<svg version="1.1" xmlns="http://www.w3.org/2000/svg" xmlns:xlink="http://www.w3.org/1999/xlink" stroke-linecap="round" stroke-linejoin="round" stroke-width="0" fill-rule="evenodd" clip-rule="evenodd" id="U8Z0GjTJuk6xn7_w9grL_bottom" viewBox="-63109.6 0 110609.6 90000" width="110.6096mm" height="90mm" class="w-100 h-100"><defs><style>.U8Z0GjTJuk6xn7_w9grL_fr4 {color: #666666;}
.U8Z0GjTJuk6xn7_w9grL_cu {color: #cccccc;}
.U8Z0GjTJuk6xn7_w9grL_cf {color: #cc9933;}
.U8Z0GjTJuk6xn7_w9grL_sm {color: #004200; opacity: 0.75;}
.U8Z0GjTJuk6xn7_w9grL_ss {color: #ffffff;}
.U8Z0GjTJuk6xn7_w9grL_sp {color: #999999;}
.U8Z0GjTJuk6xn7_w9grL_out {color: #000000;}</style><rect x="-780" y="-780" width="1560" height="1560" id="Y7WIqdnsEL1hcYOXnZSL_pad-12"/><circle cx="0" cy="0" r="780" id="Y7WIqdnsEL1hcYOXnZSL_pad-13"/><circle cx="0" cy="0" r="698.5" id="Y7WIqdnsEL1hcYOXnZSL_pad-14"/><circle cx="0" cy="0" r="1016" id="Y7WIqdnsEL1hcYOXnZSL_pad-15"/><rect x="-1016" y="-1016" width="2032" height="2032" id="Y7WIqdnsEL1hcYOXnZSL_pad-16"/><circle cx="0" cy="0" r="889" id="Y7WIqdnsEL1hcYOXnZSL_pad-17"/><polygon points="-780,780 780,780 780,-780 -780,-780" id="ZHzOopzn-IiBJmZniOvq_pad-22"/><circle cx="0" cy="0" r="390" id="ZHzOopzn-IiBJmZniOvq_pad-23"/><circle cx="0" cy="0" r="825.5" id="ZHzOopzn-IiBJmZniOvq_pad-24"/><circle cx="0" cy="0" r="1143" id="ZHzOopzn-IiBJmZniOvq_pad-25"/><polygon points="-1016,1143 1016,1143 1041.97,1140.47 1065.98,1133.2 1087.58,1121.65 1106.29,1106.29 1121.65,1087.57 1133.2,1065.98 1140.47,1041.97 1143,1016 1143,-1016 1140.47,-1041.97 1133.2,-1065.98 1121.65,-1087.57 1106.29,-1106.29 1087.58,-1121.65 1065.98,-1133.2 1041.97,-1140.47 1016,-1143 -1016,-1143 -1041.97,-1140.47 -1065.98,-1133.2 -1087.58,-1121.65 -1106.29,-1106.29 -1121.65,-1087.57 -1133.2,-1065.98 -1140.47,-1041.97 -1143,-1016 -1143,1016 -1140.47,1041.97 -1133.2,1065.98 -1121.65,1087.57 -1106.29,1106.29 -1087.58,1121.65 -1065.98,1133.2 -1041.97,1140.47" id="ZHzOopzn-IiBJmZniOvq_pad-26"/><circle cx="0" cy="0" r="1016" id="ZHzOopzn-IiBJmZniOvq_pad-27"/><polygon points="1143,1016 1143,-1016 1140.47,-1041.97 1133.2,-1065.98 1121.65,-1087.58 1106.29,-1106.29 1087.57,-1121.65 1065.98,-1133.2 1041.97,-1140.47 1016,-1143 -1016,-1143 -1041.97,-1140.47 -1065.98,-1133.2 -1087.57,-1121.65 -1106.29,-1106.29 -1121.65,-1087.58 -1133.2,-1065.98 -1140.47,-1041.97 -1143,-1016 -1143,1016 -1140.47,1041.97 -1133.2,1065.98 -1121.65,1087.58 -1106.29,1106.29 -1087.57,1121.65 -1065.98,1133.2 -1041.97,1140.47 -1016,1143 1016,1143 1041.97,1140.47 1065.98,1133.2 1087.57,1121.65 1106.29,1106.29 1121.65,1087.58 1133.2,1065.98 1140.47,1041.97" id="ZHzOopzn-IiBJmZniOvq_pad-28"/><g id="U8Z0GjTJuk6xn7_w9grL_bottom_copper"><path d="M -20200 57260 1540 79000 37500 79000 M -52451 42500 -47540 42500 M -19558 8890 -19558 10760 -20200 11402 -20200 11540 M -45000 42500 -39440 36940 -20200 36940 M 30000 8000 26670 8000 23641.84 11028.16 23641.84 24003 20864.84 26780 5200 26780 M 37500 75000 40000 75000 41714.31 73285.69 41714.31 66992.81 29991.23 55269.73 25595.08 55269.73 5749.73 55269.73 5200 54720 M 40585.64 10668 35560 10668 32228 14000 30000 14000 M 35000 45500 33573.79 45500 30000 49073.79 30000 50000 5560 50000 5200 49640 M 43373.85 33126.15 43373.85 13456.21 M 35000 41500 43373.85 33126.15 M 43373.85 13456.21 40585.64 10668 M -19558 8890 -12446 8890 -8890 5334 32500 5334 35560 10668 M -53340 67500 -53340 69342 -53340 70344 -53092 70592 M -53340 67500 -53340 42672 M -55000 72500 -35000 72500 -30040 67540 -30040 67500 M -57500 77500 -57500 75000 -55000 72500 -53092 70592 M -53340 42672 -53340 42500 -53340 16814.81 -52930.89 16405.7 -45703.24 9178.05 -44464.22 9178.05 -19846.05 9178.05 -19558 8890 M -53340 42500 -52451 42500 M -45000 15000 -50000 20000 -49768.23 20231.77 -49768.23 26336.96 -46105.19 30000 -42500 30000 M -42500 24920 -42245.52 24665.52 -40958.08 24665.52 -33104.52 16811.96 -32650.85 16811.96 -20391.96 16811.96 -20200 16620" fill="none" stroke-width="2032"/><use xlink:href="#Y7WIqdnsEL1hcYOXnZSL_pad-12" x="-20200" y="57260"/><use xlink:href="#Y7WIqdnsEL1hcYOXnZSL_pad-13" x="-20200" y="54720"/><use xlink:href="#Y7WIqdnsEL1hcYOXnZSL_pad-13" x="-20200" y="52180"/><use xlink:href="#Y7WIqdnsEL1hcYOXnZSL_pad-13" x="-20200" y="49640"/><use xlink:href="#Y7WIqdnsEL1hcYOXnZSL_pad-13" x="-20200" y="47100"/><use xlink:href="#Y7WIqdnsEL1hcYOXnZSL_pad-13" x="-20200" y="44560"/><use xlink:href="#Y7WIqdnsEL1hcYOXnZSL_pad-13" x="-20200" y="42020"/><use xlink:href="#Y7WIqdnsEL1hcYOXnZSL_pad-13" x="-20200" y="39480"/><use xlink:href="#Y7WIqdnsEL1hcYOXnZSL_pad-13" x="-20200" y="36940"/><use xlink:href="#Y7WIqdnsEL1hcYOXnZSL_pad-13" x="-20200" y="34400"/><use xlink:href="#Y7WIqdnsEL1hcYOXnZSL_pad-13" x="-20200" y="31860"/><use xlink:href="#Y7WIqdnsEL1hcYOXnZSL_pad-13" x="-20200" y="29320"/><use xlink:href="#Y7WIqdnsEL1hcYOXnZSL_pad-13" x="-20200" y="26780"/><use xlink:href="#Y7WIqdnsEL1hcYOXnZSL_pad-13" x="-20200" y="24240"/><use xlink:href="#Y7WIqdnsEL1hcYOXnZSL_pad-13" x="-20200" y="21700"/><use xlink:href="#Y7WIqdnsEL1hcYOXnZSL_pad-13" x="-20200" y="19160"/><use xlink:href="#Y7WIqdnsEL1hcYOXnZSL_pad-13" x="-20200" y="16620"/><use xlink:href="#Y7WIqdnsEL1hcYOXnZSL_pad-13" x="-20200" y="14080"/><use xlink:href="#Y7WIqdnsEL1hcYOXnZSL_pad-13" x="-20200" y="11540"/><use xlink:href="#Y7WIqdnsEL1hcYOXnZSL_pad-13" x="5200" y="57260"/><use xlink:href="#Y7WIqdnsEL1hcYOXnZSL_pad-13" x="5200" y="54720"/><use xlink:href="#Y7WIqdnsEL1hcYOXnZSL_pad-13" x="5200" y="52180"/><use xlink:href="#Y7WIqdnsEL1hcYOXnZSL_pad-13" x="5200" y="49640"/><use xlink:href="#Y7WIqdnsEL1hcYOXnZSL_pad-13" x="5200" y="47100"/><use xlink:href="#Y7WIqdnsEL1hcYOXnZSL_pad-13" x="5200" y="44560"/><use xlink:href="#Y7WIqdnsEL1hcYOXnZSL_pad-13" x="5200" y="42020"/><use xlink:href="#Y7WIqdnsEL1hcYOXnZSL_pad-13" x="5200" y="39480"/><use xlink:href="#Y7WIqdnsEL1hcYOXnZSL_pad-13" x="5200" y="36940"/><use xlink:href="#Y7WIqdnsEL1hcYOXnZSL_pad-13" x="5200" y="34400"/><use xlink:href="#Y7WIqdnsEL1hcYOXnZSL_pad-13" x="5200" y="31860"/><use xlink:href="#Y7WIqdnsEL1hcYOXnZSL_pad-13" x="5200" y="29320"/><use xlink:href="#Y7WIqdnsEL1hcYOXnZSL_pad-13" x="5200" y="26780"/><use xlink:href="#Y7WIqdnsEL1hcYOXnZSL_pad-13" x="5200" y="24240"/><use xlink:href="#Y7WIqdnsEL1hcYOXnZSL_pad-13" x="5200" y="21700"/><use xlink:href="#Y7WIqdnsEL1hcYOXnZSL_pad-13" x="5200" y="19160"/><use xlink:href="#Y7WIqdnsEL1hcYOXnZSL_pad-13" x="5200" y="16620"/><use xlink:href="#Y7WIqdnsEL1hcYOXnZSL_pad-13" x="5200" y="14080"/><use xlink:href="#Y7WIqdnsEL1hcYOXnZSL_pad-13" x="5200" y="11540"/><use xlink:href="#Y7WIqdnsEL1hcYOXnZSL_pad-14" x="30000" y="14000"/><use xlink:href="#Y7WIqdnsEL1hcYOXnZSL_pad-14" x="30000" y="12000"/><use xlink:href="#Y7WIqdnsEL1hcYOXnZSL_pad-14" x="30000" y="10000"/><use xlink:href="#Y7WIqdnsEL1hcYOXnZSL_pad-14" x="30000" y="8000"/><use xlink:href="#Y7WIqdnsEL1hcYOXnZSL_pad-14" x="35000" y="41500"/><use xlink:href="#Y7WIqdnsEL1hcYOXnZSL_pad-14" x="35000" y="43500"/><use xlink:href="#Y7WIqdnsEL1hcYOXnZSL_pad-14" x="35000" y="45500"/><use xlink:href="#Y7WIqdnsEL1hcYOXnZSL_pad-14" x="35000" y="47500"/><use xlink:href="#Y7WIqdnsEL1hcYOXnZSL_pad-15" x="-57500" y="77500"/><use xlink:href="#Y7WIqdnsEL1hcYOXnZSL_pad-15" x="-54960" y="77500"/><use xlink:href="#Y7WIqdnsEL1hcYOXnZSL_pad-16" x="-47540" y="42500"/><use xlink:href="#Y7WIqdnsEL1hcYOXnZSL_pad-16" x="-45000" y="42500"/><use xlink:href="#Y7WIqdnsEL1hcYOXnZSL_pad-17" x="-47500" y="67500"/><use xlink:href="#Y7WIqdnsEL1hcYOXnZSL_pad-17" x="-47500" y="57340"/><use xlink:href="#Y7WIqdnsEL1hcYOXnZSL_pad-17" x="-50000" y="77500"/><use xlink:href="#Y7WIqdnsEL1hcYOXnZSL_pad-17" x="-39840" y="77500"/><use xlink:href="#Y7WIqdnsEL1hcYOXnZSL_pad-14" x="37500" y="79000"/><use xlink:href="#Y7WIqdnsEL1hcYOXnZSL_pad-14" x="37500" y="77000"/><use xlink:href="#Y7WIqdnsEL1hcYOXnZSL_pad-14" x="37500" y="75000"/><use xlink:href="#Y7WIqdnsEL1hcYOXnZSL_pad-14" x="37500" y="73000"/><use xlink:href="#Y7WIqdnsEL1hcYOXnZSL_pad-14" x="37500" y="71000"/><use xlink:href="#Y7WIqdnsEL1hcYOXnZSL_pad-14" x="37500" y="69000"/><use xlink:href="#Y7WIqdnsEL1hcYOXnZSL_pad-16" x="-30040" y="67500"/><use xlink:href="#Y7WIqdnsEL1hcYOXnZSL_pad-16" x="-27500" y="67500"/><use xlink:href="#Y7WIqdnsEL1hcYOXnZSL_pad-16" x="-42500" y="30000"/><use xlink:href="#Y7WIqdnsEL1hcYOXnZSL_pad-16" x="-42500" y="27460"/><use xlink:href="#Y7WIqdnsEL1hcYOXnZSL_pad-16" x="-42500" y="24920"/><use xlink:href="#Y7WIqdnsEL1hcYOXnZSL_pad-16" x="-42500" y="22380"/><use xlink:href="#Y7WIqdnsEL1hcYOXnZSL_pad-16" x="-45000" y="15000"/><use xlink:href="#Y7WIqdnsEL1hcYOXnZSL_pad-16" x="-42460" y="15000"/><path d="M -63109.6 0 47500 0 47500 90000 -63109.6 90000 -63109.6 0" fill="none" stroke-width="203.2"/></g><g id="U8Z0GjTJuk6xn7_w9grL_bottom_soldermask"><use xlink:href="#ZHzOopzn-IiBJmZniOvq_pad-22" x="-20200" y="57260"/><use xlink:href="#ZHzOopzn-IiBJmZniOvq_pad-23" x="-20200" y="54720"/><use xlink:href="#ZHzOopzn-IiBJmZniOvq_pad-23" x="-20200" y="52180"/><use xlink:href="#ZHzOopzn-IiBJmZniOvq_pad-23" x="-20200" y="49640"/><use xlink:href="#ZHzOopzn-IiBJmZniOvq_pad-23" x="-20200" y="47100"/><use xlink:href="#ZHzOopzn-IiBJmZniOvq_pad-23" x="-20200" y="44560"/><use xlink:href="#ZHzOopzn-IiBJmZniOvq_pad-23" x="-20200" y="42020"/><use xlink:href="#ZHzOopzn-IiBJmZniOvq_pad-23" x="-20200" y="39480"/><use xlink:href="#ZHzOopzn-IiBJmZniOvq_pad-23" x="-20200" y="36940"/><use xlink:href="#ZHzOopzn-IiBJmZniOvq_pad-23" x="-20200" y="34400"/><use xlink:href="#ZHzOopzn-IiBJmZniOvq_pad-23" x="-20200" y="31860"/><use xlink:href="#ZHzOopzn-IiBJmZniOvq_pad-23" x="-20200" y="29320"/><use xlink:href="#ZHzOopzn-IiBJmZniOvq_pad-23" x="-20200" y="26780"/><use xlink:href="#ZHzOopzn-IiBJmZniOvq_pad-23" x="-20200" y="24240"/><use xlink:href="#ZHzOopzn-IiBJmZniOvq_pad-23" x="-20200" y="21700"/><use xlink:href="#ZHzOopzn-IiBJmZniOvq_pad-23" x="-20200" y="19160"/><use xlink:href="#ZHzOopzn-IiBJmZniOvq_pad-23" x="-20200" y="16620"/><use xlink:href="#ZHzOopzn-IiBJmZniOvq_pad-23" x="-20200" y="14080"/><use xlink:href="#ZHzOopzn-IiBJmZniOvq_pad-23" x="-20200" y="11540"/><use xlink:href="#ZHzOopzn-IiBJmZniOvq_pad-23" x="5200" y="57260"/><use xlink:href="#ZHzOopzn-IiBJmZniOvq_pad-23" x="5200" y="54720"/><use xlink:href="#ZHzOopzn-IiBJmZniOvq_pad-23" x="5200" y="52180"/><use xlink:href="#ZHzOopzn-IiBJmZniOvq_pad-23" x="5200" y="49640"/><use xlink:href="#ZHzOopzn-IiBJmZniOvq_pad-23" x="5200" y="47100"/><use xlink:href="#ZHzOopzn-IiBJmZniOvq_pad-23" x="5200" y="44560"/><use xlink:href="#ZHzOopzn-IiBJmZniOvq_pad-23" x="5200" y="42020"/><use xlink:href="#ZHzOopzn-IiBJmZniOvq_pad-23" x="5200" y="39480"/><use xlink:href="#ZHzOopzn-IiBJmZniOvq_pad-23" x="5200" y="36940"/><use xlink:href="#ZHzOopzn-IiBJmZniOvq_pad-23" x="5200" y="34400"/><use xlink:href="#ZHzOopzn-IiBJmZniOvq_pad-23" x="5200" y="31860"/><use xlink:href="#ZHzOopzn-IiBJmZniOvq_pad-23" x="5200" y="29320"/><use xlink:href="#ZHzOopzn-IiBJmZniOvq_pad-23" x="5200" y="26780"/><use xlink:href="#ZHzOopzn-IiBJmZniOvq_pad-23" x="5200" y="24240"/><use xlink:href="#ZHzOopzn-IiBJmZniOvq_pad-23" x="5200" y="21700"/><use xlink:href="#ZHzOopzn-IiBJmZniOvq_pad-23" x="5200" y="19160"/><use xlink:href="#ZHzOopzn-IiBJmZniOvq_pad-23" x="5200" y="16620"/><use xlink:href="#ZHzOopzn-IiBJmZniOvq_pad-23" x="5200" y="14080"/><use xlink:href="#ZHzOopzn-IiBJmZniOvq_pad-23" x="5200" y="11540"/><use xlink:href="#ZHzOopzn-IiBJmZniOvq_pad-24" x="30000" y="14000"/><use xlink:href="#ZHzOopzn-IiBJmZniOvq_pad-24" x="30000" y="12000"/><use xlink:href="#ZHzOopzn-IiBJmZniOvq_pad-24" x="30000" y="10000"/><use xlink:href="#ZHzOopzn-IiBJmZniOvq_pad-24" x="30000" y="8000"/><use xlink:href="#ZHzOopzn-IiBJmZniOvq_pad-24" x="35000" y="41500"/><use xlink:href="#ZHzOopzn-IiBJmZniOvq_pad-24" x="35000" y="43500"/><use xlink:href="#ZHzOopzn-IiBJmZniOvq_pad-24" x="35000" y="45500"/><use xlink:href="#ZHzOopzn-IiBJmZniOvq_pad-24" x="35000" y="47500"/><use xlink:href="#ZHzOopzn-IiBJmZniOvq_pad-25" x="-57500" y="77500"/><use xlink:href="#ZHzOopzn-IiBJmZniOvq_pad-25" x="-54960" y="77500"/><use xlink:href="#ZHzOopzn-IiBJmZniOvq_pad-26" x="-47540" y="42500"/><use xlink:href="#ZHzOopzn-IiBJmZniOvq_pad-26" x="-45000" y="42500"/><use xlink:href="#ZHzOopzn-IiBJmZniOvq_pad-27" x="-47500" y="67500"/><use xlink:href="#ZHzOopzn-IiBJmZniOvq_pad-27" x="-47500" y="57340"/><use xlink:href="#ZHzOopzn-IiBJmZniOvq_pad-27" x="-50000" y="77500"/><use xlink:href="#ZHzOopzn-IiBJmZniOvq_pad-27" x="-39840" y="77500"/><use xlink:href="#ZHzOopzn-IiBJmZniOvq_pad-24" x="37500" y="79000"/><use xlink:href="#ZHzOopzn-IiBJmZniOvq_pad-24" x="37500" y="77000"/><use xlink:href="#ZHzOopzn-IiBJmZniOvq_pad-24" x="37500" y="75000"/><use xlink:href="#ZHzOopzn-IiBJmZniOvq_pad-24" x="37500" y="73000"/><use xlink:href="#ZHzOopzn-IiBJmZniOvq_pad-24" x="37500" y="71000"/><use xlink:href="#ZHzOopzn-IiBJmZniOvq_pad-24" x="37500" y="69000"/><use xlink:href="#ZHzOopzn-IiBJmZniOvq_pad-26" x="-30040" y="67500"/><use xlink:href="#ZHzOopzn-IiBJmZniOvq_pad-26" x="-27500" y="67500"/><use xlink:href="#ZHzOopzn-IiBJmZniOvq_pad-28" x="-42500" y="30000"/><use xlink:href="#ZHzOopzn-IiBJmZniOvq_pad-28" x="-42500" y="27460"/><use xlink:href="#ZHzOopzn-IiBJmZniOvq_pad-28" x="-42500" y="24920"/><use xlink:href="#ZHzOopzn-IiBJmZniOvq_pad-28" x="-42500" y="22380"/><use xlink:href="#ZHzOopzn-IiBJmZniOvq_pad-26" x="-45000" y="15000"/><use xlink:href="#ZHzOopzn-IiBJmZniOvq_pad-26" x="-42460" y="15000"/><path d="M -63109.6 0 47500 0 47500 90000 -63109.6 90000 -63109.6 0" fill="none" stroke-width="203.2"/></g><clipPath id="U8Z0GjTJuk6xn7_w9grL_bottom_outline"><path d="M -63109.6 0 47500 0 47500 90000 -63109.6 90000 -63109.6 0" fill="none" stroke-width="203.2"/></clipPath><mask id="U8Z0GjTJuk6xn7_w9grL_bottom_mech-mask"><g fill="#000" stroke="#000"><rect x="-63109.6" y="0" width="110609.6" height="90000" fill="#fff"/></g></mask><mask id="U8Z0GjTJuk6xn7_w9grL_bottom_cf-mask"><g fill="#fff" stroke="#fff"><use xlink:href="#U8Z0GjTJuk6xn7_w9grL_bottom_soldermask"/></g></mask><mask id="U8Z0GjTJuk6xn7_w9grL_bottom_sm-mask"><g fill="#000" stroke="#000"><rect x="-63109.6" y="0" width="110609.6" height="90000" fill="#fff"/><use xlink:href="#U8Z0GjTJuk6xn7_w9grL_bottom_soldermask"/></g></mask></defs><g transform="translate(0,90000) scale(1,-1)"><g mask="url(#U8Z0GjTJuk6xn7_w9grL_bottom_mech-mask)" clip-path="url(#U8Z0GjTJuk6xn7_w9grL_bottom_outline)" transform="translate(-15609.599999999991,0) scale(-1,1)"><rect x="-63109.6" y="0" width="110609.6" height="90000" fill="currentColor" class="U8Z0GjTJuk6xn7_w9grL_fr4"/><use xlink:href="#U8Z0GjTJuk6xn7_w9grL_bottom_copper" fill="currentColor" stroke="currentColor" class="U8Z0GjTJuk6xn7_w9grL_cu"/><use xlink:href="#U8Z0GjTJuk6xn7_w9grL_bottom_copper" fill="currentColor" stroke="currentColor" class="U8Z0GjTJuk6xn7_w9grL_cf" mask="url(#U8Z0GjTJuk6xn7_w9grL_bottom_cf-mask)"/><g mask="url(#U8Z0GjTJuk6xn7_w9grL_bottom_sm-mask)"><rect x="-63109.6" y="0" width="110609.6" height="90000" fill="currentColor" class="U8Z0GjTJuk6xn7_w9grL_sm"/></g></g></g></svg>