<svg version="1.1" xmlns="http://www.w3.org/2000/svg" xmlns:xlink="http://www.w3.org/1999/xlink" stroke-linecap="round" stroke-linejoin="round" stroke-width="0" fill-rule="evenodd" width="120.929mm" height="96.8288mm" viewBox="-63211.2 -101.6 120929 96828.8" id="AA04NJwmrq0RJituSTN4"><g transform="translate(0,96625.6) scale(1,-1)" fill="currentColor" stroke="currentColor"><path d="M -21450 10250 -21450 64650.06 6450 64650.06 6450 10250 -21450 10250" fill="none" stroke-width="127"/><path d="M -10050 65018.36 -11002.5 65018.36 -11002.5 65932.76 -10050 65932.76 M -11002.5 65475.56 -10367.5 65475.56 M -9732.5 65170.76 -9573.75 65018.36 -8938.75 65018.36 -8780 65170.76 -8780 65323.16 -8938.75 65475.56 -9573.75 65475.56 -9732.5 65627.96 -9732.5 65780.36 -9573.75 65932.76 -8938.75 65932.76 -8780 65780.36 M -8462.5 65018.36 -8462.5 65932.76 -7668.75 65932.76 -7510 65780.36 -7510 65627.96 -7668.75 65475.56 -8462.5 65475.56 M -7033.75 65780.36 -6875 65932.76 -6398.75 65932.76 -6240 65780.36 -6240 65627.96 -6398.75 65475.56 -6240 65323.16 -6240 65170.76 -6398.75 65018.36 -6875 65018.36 -7033.75 65170.76 M -6716.25 65475.56 -6398.75 65475.56 M -5763.75 65780.36 -5605 65932.76 -5128.75 65932.76 -4970 65780.36 -4970 65627.96 -5128.75 65475.56 -5605 65475.56 -5763.75 65323.16 -5763.75 65018.36 -4970 65018.36" fill="none" stroke-width="203.2"/><path d="M 32286 14000 32284.69 14031.58 32274.03 14094.76 32251.72 14157.94 32215.27 14221.12 32159.52 14283.51 32096.34 14329.47 32033.16 14358.8 31969.98 14375.42 31906.8 14381 31905 14381 M 31524 14000 31525.31 14031.58 31535.97 14094.76 31558.28 14157.94 31594.73 14221.12 31650.48 14283.51 31713.66 14329.47 31776.84 14358.8 31840.02 14375.42 31903.2 14381 31905 14381 M 31524 14000 31525.31 13968.42 31535.97 13905.24 31558.28 13842.06 31594.73 13778.88 31650.48 13716.49 31713.66 13670.53 31776.84 13641.2 31840.02 13624.58 31903.2 13619 31905 13619 M 32286 14000 32284.69 13968.42 32274.03 13905.24 32251.72 13842.06 32215.27 13778.88 32159.52 13716.49 32096.34 13670.53 32033.16 13641.2 31969.98 13624.58 31906.8 13619 31905 13619" fill="none" stroke-width="508"/><path d="M 31193.8 7301.5 31193.8 14698.5 30758.65 14698.5 M 28806.2 14698.5 28806.2 7301.5 29241.35 7301.5 M 30758.65 7301.5 31193.8 7301.5 M 29241.35 14698.5 28806.2 14698.5" fill="none" stroke-width="152.4"/><path d="M 9593 18042.8 9593 18957.2 10069.25 18500 10545.5 18957.2 10545.5 18042.8 M 10863 18652.4 11180.5 18957.2 11498 18957.2 11815.5 18652.4 11815.5 18347.6 11498 18042.8 11180.5 18042.8 10863 18347.6 10863 18652.4 M 12133 18042.8 12133 18957.2 12768 18957.2 13085.5 18652.4 13085.5 18347.6 12768 18042.8 12133 18042.8 M 13403 18957.2 13403 18195.2 13561.75 18042.8 14196.75 18042.8 14355.5 18195.2 14355.5 18957.2 M 14673 18957.2 14673 18042.8 15625.5 18042.8 M 15943 18652.4 16260.5 18957.2 16578 18957.2 16895.5 18652.4 16895.5 18347.6 16578 18042.8 16260.5 18042.8 15943 18347.6 15943 18652.4 M 18483 18042.8 18483 18957.2 19118 18957.2 19435.5 18652.4 19435.5 18347.6 19118 18042.8 18483 18042.8 M 19753 18652.4 20070.5 18957.2 20388 18957.2 20705.5 18652.4 20705.5 18347.6 20388 18042.8 20070.5 18042.8 19753 18347.6 19753 18652.4 M 22293 18957.2 22293 18195.2 22451.75 18042.8 23086.75 18042.8 23245.5 18195.2 23245.5 18957.2 M 23563 18042.8 23563 18957.2 24039.25 18500 24515.5 18957.2 24515.5 18042.8 M 24991.75 18957.2 25626.75 18957.2 M 25309.25 18957.2 25309.25 18042.8 M 24991.75 18042.8 25626.75 18042.8 M 26103 18042.8 26103 18957.2 26738 18957.2 27055.5 18652.4 27055.5 18347.6 26738 18042.8 26103 18042.8 M 27373 18042.8 27373 18652.4 27690.5 18957.2 28008 18957.2 28325.5 18652.4 28325.5 18042.8 M 27373 18347.6 28325.5 18347.6 M 28643 18042.8 28643 18957.2 29278 18957.2 29595.5 18652.4 29595.5 18347.6 29278 18042.8 28643 18042.8 M 30865.5 18042.8 29913 18042.8 29913 18957.2 30865.5 18957.2 M 29913 18500 30548 18500 M 32453 18042.8 32453 18957.2 33088 18957.2 33405.5 18652.4 33405.5 18347.6 33088 18042.8 32453 18042.8 M 33723 18652.4 34040.5 18957.2 34358 18957.2 34675.5 18652.4 34675.5 18347.6 34358 18042.8 34040.5 18042.8 33723 18347.6 33723 18652.4 M 36263 18195.2 36421.75 18042.8 37056.75 18042.8 37215.5 18195.2 37215.5 18347.6 37056.75 18500 36421.75 18500 36263 18652.4 36263 18804.8 36421.75 18957.2 37056.75 18957.2 37215.5 18804.8 M 37533 18652.4 37850.5 18957.2 38168 18957.2 38485.5 18652.4 38485.5 18347.6 38168 18042.8 37850.5 18042.8 37533 18347.6 37533 18652.4 M 38803 18957.2 38803 18042.8 39755.5 18042.8 M 40073 18652.4 40390.5 18957.2 40708 18957.2 41025.5 18652.4 41025.5 18347.6 40708 18042.8 40390.5 18042.8 40073 18347.6 40073 18652.4" fill="none" stroke-width="203.2"/><path d="M 33476 41500 33474.69 41531.58 33464.03 41594.76 33441.72 41657.94 33405.27 41721.12 33349.52 41783.51 33286.34 41829.47 33223.16 41858.8 33159.98 41875.42 33096.8 41881 33095 41881 M 32714 41500 32715.31 41531.58 32725.97 41594.76 32748.28 41657.94 32784.73 41721.12 32840.48 41783.51 32903.66 41829.47 32966.84 41858.8 33030.02 41875.42 33093.2 41881 33095 41881 M 32714 41500 32715.31 41468.42 32725.97 41405.24 32748.28 41342.06 32784.73 41278.88 32840.48 41216.49 32903.66 41170.53 32966.84 41141.2 33030.02 41124.58 33093.2 41119 33095 41119 M 33476 41500 33474.69 41468.42 33464.03 41405.24 33441.72 41342.06 33405.27 41278.88 33349.52 41216.49 33286.34 41170.53 33223.16 41141.2 33159.98 41124.58 33096.8 41119 33095 41119" fill="none" stroke-width="508"/><path d="M 33806.2 48198.5 33806.2 40801.5 34241.35 40801.5 M 36193.8 40801.5 36193.8 48198.5 35758.65 48198.5 M 34241.35 48198.5 33806.2 48198.5 M 35758.65 40801.5 36193.8 40801.5" fill="none" stroke-width="152.4"/><path d="M 20682 39042.8 20682 39957.2 21158.25 39500 21634.5 39957.2 21634.5 39042.8 M 21952 39652.4 22269.5 39957.2 22587 39957.2 22904.5 39652.4 22904.5 39347.6 22587 39042.8 22269.5 39042.8 21952 39347.6 21952 39652.4 M 23222 39042.8 23222 39957.2 23857 39957.2 24174.5 39652.4 24174.5 39347.6 23857 39042.8 23222 39042.8 M 24492 39957.2 24492 39195.2 24650.75 39042.8 25285.75 39042.8 25444.5 39195.2 25444.5 39957.2 M 25762 39957.2 25762 39042.8 26714.5 39042.8 M 27032 39652.4 27349.5 39957.2 27667 39957.2 27984.5 39652.4 27984.5 39347.6 27667 39042.8 27349.5 39042.8 27032 39347.6 27032 39652.4 M 30207 39347.6 30524.5 39347.6 30524.5 39042.8 29889.5 39042.8 29572 39347.6 29572 39652.4 29889.5 39957.2 30365.75 39957.2 30524.5 39804.8 M 30842 39195.2 31000.75 39042.8 31635.75 39042.8 31794.5 39195.2 31794.5 39347.6 31635.75 39500 31000.75 39500 30842 39652.4 30842 39804.8 31000.75 39957.2 31635.75 39957.2 31794.5 39804.8 M 32112 39042.8 32112 39957.2 32588.25 39500 33064.5 39957.2 33064.5 39042.8 M -60040 74960 -52420 74960 -52420 81310 -60040 81310 -60040 74960 M -60040 80040 -52420 80040 M -62620 81716.4 -62620 82326 -62302.5 82630.8 -61985 82630.8 -61667.5 82326 -61667.5 81716.4 M -62620 82021.2 -61667.5 82021.2 M -61350 82630.8 -61350 81716.4 -60397.5 81716.4 M -59921.25 82630.8 -59286.25 82630.8 M -59603.75 82630.8 -59603.75 81716.4 M -59921.25 81716.4 -59286.25 81716.4 M -58810 81716.4 -58810 82630.8 -58333.75 82173.6 -57857.5 82630.8 -57857.5 81716.4 M -56587.5 81716.4 -57540 81716.4 -57540 82630.8 -56587.5 82630.8 M -57540 82173.6 -56905 82173.6 M -56270 81716.4 -56270 82630.8 -55317.5 81716.4 -55317.5 82630.8 M -55000 82630.8 -54047.5 82630.8 M -54523.75 82630.8 -54523.75 81716.4 M -53730 81716.4 -53730 82326 -53412.5 82630.8 -53095 82630.8 -52777.5 82326 -52777.5 81716.4 M -53730 82021.2 -52777.5 82021.2 M -51507.5 81868.8 -51666.25 81716.4 -52142.5 81716.4 -52460 82021.2 -52460 82326 -52142.5 82630.8 -51666.25 82630.8 -51507.5 82478.4 M -51190 81716.4 -51190 82326 -50872.5 82630.8 -50555 82630.8 -50237.5 82326 -50237.5 81716.4 M -51190 82021.2 -50237.5 82021.2 M -49920 82326 -49602.5 82630.8 -49285 82630.8 -48967.5 82326 -48967.5 82021.2 -49285 81716.4 -49602.5 81716.4 -49920 82021.2 -49920 82326 M -46427.5 82630.8 -47221.25 82630.8 -47221.25 82326 -46586.25 82326 -46427.5 82173.6 -46427.5 81868.8 -46586.25 81716.4 -47062.5 81716.4 -47221.25 81868.8 M -46110 82630.8 -46110 82173.6 -45633.75 81716.4 -45157.5 82173.6 -45157.5 82630.8 M -48810 41230 -43730 41230 -43730 43770 -48810 43770 -48810 41230 M -52620 44176.4 -52620 44786 -52302.5 45090.8 -51985 45090.8 -51667.5 44786 -51667.5 44176.4 M -52620 44481.2 -51667.5 44481.2 M -51350 44176.4 -51350 45090.8 -50397.5 44176.4 -50397.5 45090.8 M -49127.5 44176.4 -50080 44176.4 -50080 45090.8 -49127.5 45090.8 M -50080 44633.6 -49445 44633.6 M -48810 44176.4 -48810 45090.8 -48333.75 44633.6 -47857.5 45090.8 -47857.5 44176.4 M -47540 44786 -47222.5 45090.8 -46905 45090.8 -46587.5 44786 -46587.5 44481.2 -46905 44176.4 -47222.5 44176.4 -47540 44481.2 -47540 44786 M -46270 44176.4 -46270 45090.8 -45793.75 44633.6 -45317.5 45090.8 -45317.5 44176.4 M -44047.5 44176.4 -45000 44176.4 -45000 45090.8 -44047.5 45090.8 M -45000 44633.6 -44365 44633.6 M -43730 45090.8 -42777.5 45090.8 M -43253.75 45090.8 -43253.75 44176.4 M -42460 44176.4 -42460 45090.8 -41666.25 45090.8 -41507.5 44938.4 -41507.5 44786 -41666.25 44633.6 -42460 44633.6 M -41666.25 44633.6 -41507.5 44481.2 -41507.5 44176.4 M -41190 44786 -40872.5 45090.8 -40555 45090.8 -40237.5 44786 -40237.5 44481.2 -40555 44176.4 -40872.5 44176.4 -41190 44481.2 -41190 44786 M -47500 66230 -47500 64960 M -48135 59880 -46865 59880 -46865 64960 -48135 64960 -48135 59880 M -47500 59880 -47500 58610 M -45544.2 61150 -46458.6 61150 -46458.6 61943.75 -46306.2 62102.5 -46153.8 62102.5 -46001.4 61943.75 -46001.4 61150 M -46001.4 61943.75 -45849 62102.5 -45544.2 62102.5 M -46153.8 62737.5 -46458.6 63055 -45544.2 63055 M -48730 77500 -47460 77500 M -47460 76865 -42380 76865 -42380 78135 -47460 78135 -47460 76865 M -42380 77500 -41110 77500 M -46190 78541.4 -46190 79455.8 -45396.25 79455.8 -45237.5 79303.4 -45237.5 79151 -45396.25 78998.6 -46190 78998.6 M -45396.25 78998.6 -45237.5 78846.2 -45237.5 78541.4 M -44761.25 79303.4 -44602.5 79455.8 -44126.25 79455.8 -43967.5 79303.4 -43967.5 79151 -44126.25 78998.6 -44602.5 78998.6 -44761.25 78846.2 -44761.25 78541.4 -43967.5 78541.4" fill="none" stroke-width="203.2"/><path d="M 39786 79000 39784.69 79031.58 39774.03 79094.76 39751.72 79157.94 39715.27 79221.12 39659.52 79283.51 39596.34 79329.47 39533.16 79358.8 39469.98 79375.42 39406.8 79381 39405 79381 M 39024 79000 39025.31 79031.58 39035.97 79094.76 39058.28 79157.94 39094.73 79221.12 39150.48 79283.51 39213.66 79329.47 39276.84 79358.8 39340.02 79375.42 39403.2 79381 39405 79381 M 39024 79000 39025.31 78968.42 39035.97 78905.24 39058.28 78842.06 39094.73 78778.88 39150.48 78716.49 39213.66 78670.53 39276.84 78641.2 39340.02 78624.58 39403.2 78619 39405 78619 M 39786 79000 39784.69 78968.42 39774.03 78905.24 39751.72 78842.06 39715.27 78778.88 39659.52 78716.49 39596.34 78670.53 39533.16 78641.2 39469.98 78624.58 39406.8 78619 39405 78619" fill="none" stroke-width="508"/><path d="M 38693.8 68301.5 38693.8 79698.5 38258.65 79698.5 M 36306.2 79698.5 36306.2 68301.5 36741.35 68301.5 M 38258.65 68301.5 38693.8 68301.5 M 36741.35 79698.5 36306.2 79698.5" fill="none" stroke-width="152.4"/><path d="M 35925.2 70190 35010.8 70190 35010.8 70983.75 35163.2 71142.5 35315.6 71142.5 35468 70983.75 35620.4 71142.5 35772.8 71142.5 35925.2 70983.75 35925.2 70190 M 35468 70190 35468 70983.75 M 35925.2 71460 35010.8 71460 35468 71936.25 35010.8 72412.5 35925.2 72412.5 M 35925.2 73682.5 35925.2 72730 35010.8 72730 35010.8 73682.5 M 35468 72730 35468 73365 M 35163.2 74158.75 35010.8 74317.5 35010.8 74793.75 35163.2 74952.5 35315.6 74952.5 35468 74793.75 35468 74317.5 35620.4 74158.75 35925.2 74158.75 35925.2 74952.5 M 35468 75587.5 35315.6 75428.75 35163.2 75428.75 35010.8 75587.5 35010.8 76063.75 35163.2 76222.5 35315.6 76222.5 35468 76063.75 35468 75587.5 35620.4 75428.75 35772.8 75428.75 35925.2 75587.5 35925.2 76063.75 35772.8 76222.5 35620.4 76222.5 35468 76063.75 M 35772.8 76540 35163.2 76540 35010.8 76698.75 35010.8 77333.75 35163.2 77492.5 35772.8 77492.5 35925.2 77333.75 35925.2 76698.75 35772.8 76540 M 35925.2 76540 35010.8 77492.5" fill="none" stroke-width="203.2"/><path d="M -63109.6 0 47500 0 47500 90000 -63109.6 90000 -63109.6 0" fill="none" stroke-width="203.2"/><path d="M 52500 90000 52500 0 M 52500 90000 51230 88730 M 52500 90000 53770 88730 M 52500 0 53770 1270 M 52500 0 51230 1270 M 52817.5 45000 52816.41 45026.34 52807.51 45079.03 52788.89 45131.72 52758.46 45184.41 52711.91 45236.43 52659.22 45274.69 52606.53 45299.09 52553.84 45312.9 52501.15 45317.5 52500 45317.5 M 52182.5 45000 52183.59 45026.34 52192.49 45079.03 52211.11 45131.72 52241.54 45184.41 52288.09 45236.43 52340.78 45274.69 52393.47 45299.09 52446.16 45312.9 52498.85 45317.5 52500 45317.5 M 52182.5 45000 52183.59 44973.66 52192.49 44920.97 52211.11 44868.28 52241.54 44815.59 52288.09 44763.57 52340.78 44725.31 52393.47 44700.91 52446.16 44687.1 52498.85 44682.5 52500 44682.5 M 52817.5 45000 52816.41 44973.66 52807.51 44920.97 52788.89 44868.28 52758.46 44815.59 52711.91 44763.57 52659.22 44725.31 52606.53 44700.91 52553.84 44687.1 52501.15 44682.5 52500 44682.5 M 56854.2 49762.5 56473.2 50238.75 56473.2 51667.5 56854.2 52143.75 57235.2 52143.75 57616.2 51667.5 57616.2 50238.75 57235.2 49762.5 55711.2 49762.5 55330.2 50238.75 55330.2 51667.5 M 55711.2 48810 57235.2 48810 57616.2 48333.75 57616.2 46428.75 57235.2 45952.5 55711.2 45952.5 55330.2 46428.75 55330.2 48333.75 55711.2 48810 M 55330.2 48810 57616.2 45952.5 M 55330.2 45000 56854.2 45000 M 56473.2 45000 56854.2 44523.75 56092.2 43571.25 56854.2 42618.75 56473.2 42142.5 55330.2 42142.5 M 55330.2 41190 56854.2 41190 M 56473.2 41190 56854.2 40713.75 56092.2 39761.25 56854.2 38808.75 56473.2 38332.5 55330.2 38332.5 M -62500 92500 47500 92500 M -62500 92500 -61230 91230 M -62500 92500 -61230 93770 M 47500 92500 46230 93770 M 47500 92500 46230 91230 M -7182.5 92500 -7183.59 92526.34 -7192.49 92579.03 -7211.11 92631.72 -7241.54 92684.41 -7288.09 92736.43 -7340.78 92774.69 -7393.47 92799.09 -7446.16 92812.9 -7498.85 92817.5 -7500 92817.5 M -7817.5 92500 -7816.41 92526.34 -7807.51 92579.03 -7788.89 92631.72 -7758.46 92684.41 -7711.91 92736.43 -7659.22 92774.69 -7606.53 92799.09 -7553.84 92812.9 -7501.15 92817.5 -7500 92817.5 M -7817.5 92500 -7816.41 92473.66 -7807.51 92420.97 -7788.89 92368.28 -7758.46 92315.59 -7711.91 92263.57 -7659.22 92225.31 -7606.53 92200.91 -7553.84 92187.1 -7501.15 92182.5 -7500 92182.5 M -7182.5 92500 -7183.59 92473.66 -7192.49 92420.97 -7211.11 92368.28 -7241.54 92315.59 -7288.09 92263.57 -7340.78 92225.31 -7393.47 92200.91 -7446.16 92187.1 -7498.85 92182.5 -7500 92182.5 M -13215 96117.6 -12580 96625.6 -12580 95101.6 M -10675 96117.6 -10040 96625.6 -10040 95101.6 M -8770 95355.6 -8770 96371.6 -8452.5 96625.6 -7182.5 96625.6 -6865 96371.6 -6865 95355.6 -7182.5 95101.6 -8452.5 95101.6 -8770 95355.6 M -8770 95101.6 -6865 96625.6 M -6230 95101.6 -6230 96117.6 M -6230 95863.6 -5912.5 96117.6 -5277.5 95609.6 -4642.5 96117.6 -4325 95863.6 -4325 95101.6 M -3690 95101.6 -3690 96117.6 M -3690 95863.6 -3372.5 96117.6 -2737.5 95609.6 -2102.5 96117.6 -1785 95863.6 -1785 95101.6" fill="none" stroke-width="203.2"/><path d="M -31310 66230 -26230 66230 -26230 68770 -31310 68770 -31310 66230 M -35755 69176.4 -35755 70090.8 -34961.25 70090.8 -34802.5 69938.4 -34802.5 69786 -34961.25 69633.6 -35755 69633.6 M -34485 70090.8 -34485 69176.4 -33532.5 69176.4 M -33215 70090.8 -33215 69328.8 -33056.25 69176.4 -32421.25 69176.4 -32262.5 69328.8 -32262.5 70090.8 M -31945 70090.8 -31945 69633.6 -31468.75 69176.4 -30992.5 69633.6 -30992.5 70090.8 M -30516.25 70090.8 -29881.25 70090.8 M -30198.75 70090.8 -30198.75 69176.4 M -30516.25 69176.4 -29881.25 69176.4 M -29405 69786 -29087.5 70090.8 -28770 70090.8 -28452.5 69786 -28452.5 69481.2 -28770 69176.4 -29087.5 69176.4 -29405 69481.2 -29405 69786 M -28135 69176.4 -28135 70090.8 -27658.75 69633.6 -27182.5 70090.8 -27182.5 69176.4 M -25912.5 69176.4 -26865 69176.4 -26865 70090.8 -25912.5 70090.8 M -26865 69633.6 -26230 69633.6 M -25595 70090.8 -24642.5 70090.8 M -25118.75 70090.8 -25118.75 69176.4 M -24325 69176.4 -24325 70090.8 -23531.25 70090.8 -23372.5 69938.4 -23372.5 69786 -23531.25 69633.6 -24325 69633.6 M -23531.25 69633.6 -23372.5 69481.2 -23372.5 69176.4 M -23055 69786 -22737.5 70090.8 -22420 70090.8 -22102.5 69786 -22102.5 69481.2 -22420 69176.4 -22737.5 69176.4 -23055 69481.2 -23055 69786 M -43770 21110 -41230 21110 -41230 31270 -43770 31270 -43770 21110 M -52471.4 33232.8 -52471.4 34147.2 -51995.15 33690 -51518.9 34147.2 -51518.9 33232.8 M -51201.4 33842.4 -50883.9 34147.2 -50566.4 34147.2 -50248.9 33842.4 -50248.9 33537.6 -50566.4 33232.8 -50883.9 33232.8 -51201.4 33537.6 -51201.4 33842.4 M -49931.4 33232.8 -49931.4 34147.2 -49296.4 34147.2 -48978.9 33842.4 -48978.9 33537.6 -49296.4 33232.8 -49931.4 33232.8 M -48661.4 34147.2 -48661.4 33385.2 -48502.65 33232.8 -47867.65 33232.8 -47708.9 33385.2 -47708.9 34147.2 M -47391.4 34147.2 -47391.4 33232.8 -46438.9 33232.8 M -46121.4 33842.4 -45803.9 34147.2 -45486.4 34147.2 -45168.9 33842.4 -45168.9 33537.6 -45486.4 33232.8 -45803.9 33232.8 -46121.4 33537.6 -46121.4 33842.4 M -43581.4 33232.8 -43581.4 34147.2 -42946.4 34147.2 -42628.9 33842.4 -42628.9 33537.6 -42946.4 33232.8 -43581.4 33232.8 M -41358.9 33232.8 -42311.4 33232.8 -42311.4 34147.2 -41358.9 34147.2 M -42311.4 33690 -41676.4 33690 M -39771.4 34147.2 -39771.4 33232.8 -38818.9 33232.8 M -37548.9 33232.8 -38501.4 33232.8 -38501.4 34147.2 -37548.9 34147.2 M -38501.4 33690 -37866.4 33690 M -37072.65 34147.2 -36437.65 34147.2 M -36755.15 34147.2 -36755.15 33232.8 M -37072.65 33232.8 -36437.65 33232.8 M -35961.4 34147.2 -35008.9 34147.2 M -35485.15 34147.2 -35485.15 33232.8 M -34691.4 34147.2 -34691.4 33385.2 -34532.65 33232.8 -33897.65 33232.8 -33738.9 33385.2 -33738.9 34147.2 M -33421.4 33232.8 -33421.4 34147.2 -32627.65 34147.2 -32468.9 33994.8 -32468.9 33842.4 -32627.65 33690 -33421.4 33690 M -32627.65 33690 -32468.9 33537.6 -32468.9 33232.8 M -32151.4 33232.8 -32151.4 33842.4 -31833.9 34147.2 -31516.4 34147.2 -31198.9 33842.4 -31198.9 33232.8 M -32151.4 33537.6 -31198.9 33537.6 M -29611.4 33232.8 -29611.4 34147.2 -28976.4 34147.2 -28658.9 33842.4 -28658.9 33537.6 -28976.4 33232.8 -29611.4 33232.8 M -27388.9 33232.8 -28341.4 33232.8 -28341.4 34147.2 -27388.9 34147.2 M -28341.4 33690 -27706.4 33690 M -25801.4 33232.8 -25801.4 34147.2 -25007.65 34147.2 -24848.9 33994.8 -24848.9 33842.4 -25007.65 33690 -25801.4 33690 M -24531.4 33232.8 -24531.4 34147.2 M -23578.9 34147.2 -23578.9 33232.8 M -24531.4 33690 -23578.9 33690 M -46270 13730 -41190 13730 -41190 16270 -46270 16270 -46270 13730 M -53255 16676.4 -53255 17286 -52937.5 17590.8 -52620 17590.8 -52302.5 17286 -52302.5 16676.4 M -53255 16981.2 -52302.5 16981.2 M -51985 17590.8 -51985 16676.4 -51032.5 16676.4 M -50556.25 17590.8 -49921.25 17590.8 M -50238.75 17590.8 -50238.75 16676.4 M -50556.25 16676.4 -49921.25 16676.4 M -49445 16676.4 -49445 17590.8 -48968.75 17133.6 -48492.5 17590.8 -48492.5 16676.4 M -47222.5 16676.4 -48175 16676.4 -48175 17590.8 -47222.5 17590.8 M -48175 17133.6 -47540 17133.6 M -46905 16676.4 -46905 17590.8 -45952.5 16676.4 -45952.5 17590.8 M -45635 17590.8 -44682.5 17590.8 M -45158.75 17590.8 -45158.75 16676.4 M -44365 16676.4 -44365 17286 -44047.5 17590.8 -43730 17590.8 -43412.5 17286 -43412.5 16676.4 M -44365 16981.2 -43412.5 16981.2 M -42142.5 16828.8 -42301.25 16676.4 -42777.5 16676.4 -43095 16981.2 -43095 17286 -42777.5 17590.8 -42301.25 17590.8 -42142.5 17438.4 M -41825 16676.4 -41825 17286 -41507.5 17590.8 -41190 17590.8 -40872.5 17286 -40872.5 16676.4 M -41825 16981.2 -40872.5 16981.2 M -40555 17286 -40237.5 17590.8 -39920 17590.8 -39602.5 17286 -39602.5 16981.2 -39920 16676.4 -40237.5 16676.4 -40555 16981.2 -40555 17286 M -37856.25 17438.4 -37697.5 17590.8 -37221.25 17590.8 -37062.5 17438.4 -37062.5 17286 -37221.25 17133.6 -37697.5 17133.6 -37856.25 16981.2 -37856.25 16676.4 -37062.5 16676.4 M -35792.5 16981.2 -36745 16981.2 -36110 17590.8 -36110 16676.4 M -35475 17590.8 -35475 17133.6 -34998.75 16676.4 -34522.5 17133.6 -34522.5 17590.8" fill="none" stroke-width="203.2"/></g></svg>