<svg version="1.1" xmlns="http://www.w3.org/2000/svg" xmlns:xlink="http://www.w3.org/1999/xlink" stroke-linecap="round" stroke-linejoin="round" stroke-width="0" fill-rule="evenodd" width="110.81280000000001mm" height="90.2032mm" viewBox="-63211.2 -101.6 110812.8 90203.2" id="uE_CaIUBGsKqF9hPeGPp"><g transform="translate(0,90000) scale(1,-1)" fill="currentColor" stroke="currentColor"><path d="M -21700 64900 6700 64900 6700 10000 -21700 10000 -21700 64900" fill="none" stroke-width="50"/><path d="M -20200 57260 -20200 57260" fill="none" stroke-width="624"/><path d="M -4752.5 24628.34 -4752.5 19133.35 -10247.5 19133.35 -10247.5 24628.34 M -7500 19133.35 -7500 22796.68 M -5668.33 26460.01 -4752.5 27375.84 -4752.5 31039.17 -5668.33 31955 -6584.17 31955 -7500 31039.17 -7500 27375.84 -8415.83 26460.01 -9331.67 26460.01 -10247.5 27375.84 -10247.5 31039.17 -9331.67 31955 M -4752.5 33786.67 -10247.5 33786.67 -10247.5 38365.83 -9331.67 39281.66 -8415.83 39281.66 -7500 38365.83 -7500 33786.67 M -9331.67 42029.16 -10247.5 42944.99 -10247.5 45692.49 -9331.67 46608.32 -8415.83 46608.32 -7500 45692.49 -6584.17 46608.32 -5668.33 46608.32 -4752.5 45692.49 -4752.5 42944.99 -5668.33 42029.16 M -7500 43860.82 -7500 45692.49 M -9331.67 49355.82 -10247.5 50271.65 -10247.5 53019.15 -9331.67 53934.98 -8415.83 53934.98 -7500 53019.15 -7500 50271.65 -6584.17 49355.82 -4752.5 49355.82 -4752.5 53934.98" fill="none" stroke-width="915.83"/><path d="M 28552.2 7047.5 31447.8 7047.5 31447.8 14952.5 28552.2 14952.5 28552.2 7047.5 31447.8 7047.5 31447.8 14952.5 28552.2 14952.5 28552.2 7047.5" fill="none" stroke-width="152.4"/><path d="M 30000 14000 30000 14000" fill="none" stroke-width="558.8"/><path d="M 30092.97 7901 29907.03 7901 30000 7993.97 29907.03 8086.94 30092.97 8086.94 M 29969.01 8148.92 29907.03 8210.9 29907.03 8272.88 29969.01 8334.86 30030.99 8334.86 30092.97 8272.88 30092.97 8210.9 30030.99 8148.92 29969.01 8148.92 M 30092.97 8396.84 29907.03 8396.84 29907.03 8520.8 29969.01 8582.78 30030.99 8582.78 30092.97 8520.8 30092.97 8396.84 M 29907.03 8644.76 30061.98 8644.76 30092.97 8675.75 30092.97 8799.71 30061.98 8830.7 29907.03 8830.7 M 29907.03 8892.68 30092.97 8892.68 30092.97 9078.62 M 29969.01 9140.6 29907.03 9202.58 29907.03 9264.56 29969.01 9326.54 30030.99 9326.54 30092.97 9264.56 30092.97 9202.58 30030.99 9140.6 29969.01 9140.6 M 30092.97 9636.44 29907.03 9636.44 29907.03 9760.4 29969.01 9822.38 30030.99 9822.38 30092.97 9760.4 30092.97 9636.44 M 29969.01 9884.36 29907.03 9946.34 29907.03 10008.32 29969.01 10070.3 30030.99 10070.3 30092.97 10008.32 30092.97 9946.34 30030.99 9884.36 29969.01 9884.36 M 29907.03 10380.2 30061.98 10380.2 30092.97 10411.19 30092.97 10535.15 30061.98 10566.14 29907.03 10566.14 M 30092.97 10628.12 29907.03 10628.12 30000 10721.09 29907.03 10814.06 30092.97 10814.06 M 29907.03 10907.03 29907.03 11030.99 M 29907.03 10969.01 30092.97 10969.01 M 30092.97 10907.03 30092.97 11030.99 M 30092.97 11123.96 29907.03 11123.96 29907.03 11247.92 29969.01 11309.9 30030.99 11309.9 30092.97 11247.92 30092.97 11123.96 M 30092.97 11371.88 29969.01 11371.88 29907.03 11433.86 29907.03 11495.84 29969.01 11557.82 30092.97 11557.82 M 30030.99 11371.88 30030.99 11557.82 M 30092.97 11619.8 29907.03 11619.8 29907.03 11743.76 29969.01 11805.74 30030.99 11805.74 30092.97 11743.76 30092.97 11619.8 M 30092.97 12053.66 30092.97 11867.72 29907.03 11867.72 29907.03 12053.66 M 30000 11867.72 30000 11991.68 M 30092.97 12363.56 29907.03 12363.56 29907.03 12487.52 29969.01 12549.5 30030.99 12549.5 30092.97 12487.52 30092.97 12363.56 M 29969.01 12611.48 29907.03 12673.46 29907.03 12735.44 29969.01 12797.42 30030.99 12797.42 30092.97 12735.44 30092.97 12673.46 30030.99 12611.48 29969.01 12611.48 M 30061.98 13107.32 30092.97 13138.31 30092.97 13262.27 30061.98 13293.26 30030.99 13293.26 30000 13262.27 30000 13138.31 29969.01 13107.32 29938.02 13107.32 29907.03 13138.31 29907.03 13262.27 29938.02 13293.26 M 29969.01 13355.24 29907.03 13417.22 29907.03 13479.2 29969.01 13541.18 30030.99 13541.18 30092.97 13479.2 30092.97 13417.22 30030.99 13355.24 29969.01 13355.24 M 29907.03 13603.16 30092.97 13603.16 30092.97 13789.1 M 29969.01 13851.08 29907.03 13913.06 29907.03 13975.04 29969.01 14037.02 30030.99 14037.02 30092.97 13975.04 30092.97 13913.06 30030.99 13851.08 29969.01 13851.08" fill="none" stroke-width="30.99"/><path d="M 36447.8 48452.5 33552.2 48452.5 33552.2 40547.5 36447.8 40547.5 36447.8 48452.5 33552.2 48452.5 33552.2 40547.5 36447.8 40547.5 36447.8 48452.5" fill="none" stroke-width="152.4"/><path d="M 35000 41500 35000 41500" fill="none" stroke-width="558.8"/><path d="M 35219.75 41570.05 34780.25 41570.05 35000 41789.79 34780.25 42009.54 35219.75 42009.54 M 34926.75 42156.04 34780.25 42302.53 34780.25 42449.03 34926.75 42595.53 35073.25 42595.53 35219.75 42449.03 35219.75 42302.53 35073.25 42156.04 34926.75 42156.04 M 35219.75 42742.03 34780.25 42742.03 34780.25 43035.02 34926.75 43181.52 35073.25 43181.52 35219.75 43035.02 35219.75 42742.03 M 34780.25 43328.02 35146.5 43328.02 35219.75 43401.26 35219.75 43694.26 35146.5 43767.51 34780.25 43767.51 M 34780.25 43914.01 35219.75 43914.01 35219.75 44353.5 M 34926.75 44500 34780.25 44646.49 34780.25 44792.99 34926.75 44939.49 35073.25 44939.49 35219.75 44792.99 35219.75 44646.49 35073.25 44500 34926.75 44500 M 35073.25 45964.97 35073.25 46111.47 35219.75 46111.47 35219.75 45818.47 35073.25 45671.98 34926.75 45671.98 34780.25 45818.47 34780.25 46038.22 34853.5 46111.47 M 35146.5 46257.97 35219.75 46331.21 35219.75 46624.21 35146.5 46697.46 35073.25 46697.46 35000 46624.21 35000 46331.21 34926.75 46257.97 34853.5 46257.97 34780.25 46331.21 34780.25 46624.21 34853.5 46697.46 M 35219.75 46843.96 34780.25 46843.96 35000 47063.7 34780.25 47283.45 35219.75 47283.45" fill="none" stroke-width="73.24"/><path d="M -60141.6 74858.4 -52318.4 74858.4 -52318.4 81411.6 -60141.6 81411.6 -60141.6 74858.4" fill="none" stroke-width="203.2"/><path d="M -57500 77500 -57500 77500" fill="none" stroke-width="812.8"/><path d="M -59150.61 77978.53 -59150.61 78187.15 -59046.31 78291.46 -58942 78291.46 -58837.69 78187.15 -58837.69 77978.53 M -59150.61 78082.84 -58837.69 78082.84 M -58733.38 78291.46 -58733.38 77978.53 -58420.46 77978.53 M -58264 78291.46 -58055.39 78291.46 M -58159.69 78291.46 -58159.69 77978.53 M -58264 77978.53 -58055.39 77978.53 M -57898.92 77978.53 -57898.92 78291.46 -57742.46 78135 -57586 78291.46 -57586 77978.53 M -57168.77 77978.53 -57481.69 77978.53 -57481.69 78291.46 -57168.77 78291.46 M -57481.69 78135 -57273.08 78135 M -57064.46 77978.53 -57064.46 78291.46 -56751.54 77978.53 -56751.54 78291.46 M -56647.23 78291.46 -56334.31 78291.46 M -56490.77 78291.46 -56490.77 77978.53 M -56230 77978.53 -56230 78187.15 -56125.7 78291.46 -56021.39 78291.46 -55917.08 78187.15 -55917.08 77978.53 M -56230 78082.84 -55917.08 78082.84 M -55499.85 78030.69 -55552.01 77978.53 -55708.47 77978.53 -55812.77 78082.84 -55812.77 78187.15 -55708.47 78291.46 -55552.01 78291.46 -55499.85 78239.3 M -55395.54 77978.53 -55395.54 78187.15 -55291.24 78291.46 -55186.93 78291.46 -55082.62 78187.15 -55082.62 77978.53 M -55395.54 78082.84 -55082.62 78082.84 M -54978.31 78187.15 -54874.01 78291.46 -54769.7 78291.46 -54665.39 78187.15 -54665.39 78082.84 -54769.7 77978.53 -54874.01 77978.53 -54978.31 78082.84 -54978.31 78187.15 M -53830.93 78291.46 -54091.7 78291.46 -54091.7 78187.15 -53883.09 78187.15 -53830.93 78135 -53830.93 78030.69 -53883.09 77978.53 -54039.55 77978.53 -54091.7 78030.69 M -53726.62 78291.46 -53726.62 78135 -53570.16 77978.53 -53413.7 78135 -53413.7 78291.46" fill="none" stroke-width="52.15"/><path d="M -48911.6 41128.4 -43628.4 41128.4 -43628.4 43871.6 -48911.6 43871.6 -48911.6 41128.4" fill="none" stroke-width="203.2"/><path d="M -47540 42500 -47540 42500" fill="none" stroke-width="812.8"/><path d="M -48191.15 42355.91 -48191.15 42548.03 -48095.1 42644.09 -47999.04 42644.09 -47902.98 42548.03 -47902.98 42355.91 M -48191.15 42451.97 -47902.98 42451.97 M -47806.92 42355.91 -47806.92 42644.09 -47518.75 42355.91 -47518.75 42644.09 M -47134.52 42355.91 -47422.69 42355.91 -47422.69 42644.09 -47134.52 42644.09 M -47422.69 42500 -47230.58 42500 M -47038.46 42355.91 -47038.46 42644.09 -46894.38 42500 -46750.29 42644.09 -46750.29 42355.91 M -46654.23 42548.03 -46558.18 42644.09 -46462.12 42644.09 -46366.06 42548.03 -46366.06 42451.97 -46462.12 42355.91 -46558.18 42355.91 -46654.23 42451.97 -46654.23 42548.03 M -46270 42355.91 -46270 42644.09 -46125.92 42500 -45981.83 42644.09 -45981.83 42355.91 M -45597.6 42355.91 -45885.77 42355.91 -45885.77 42644.09 -45597.6 42644.09 M -45885.77 42500 -45693.66 42500 M -45501.54 42644.09 -45213.37 42644.09 M -45357.46 42644.09 -45357.46 42355.91 M -45117.31 42355.91 -45117.31 42644.09 -44877.17 42644.09 -44829.14 42596.06 -44829.14 42548.03 -44877.17 42500 -45117.31 42500 M -44877.17 42500 -44829.14 42451.97 -44829.14 42355.91 M -44733.08 42548.03 -44637.03 42644.09 -44540.97 42644.09 -44444.91 42548.03 -44444.91 42451.97 -44540.97 42355.91 -44637.03 42355.91 -44733.08 42451.97 -44733.08 42548.03" fill="none" stroke-width="48.02"/><path d="M -48389 56451 -46611 56451 -46611 68389 -48389 68389 -48389 56451" fill="none" stroke-width="203.2"/><path d="M -47500 67500 -47500 67500" fill="none" stroke-width="711.2"/><path d="M -47179.96 61566.56 -47820.04 61566.56 -47820.04 62099.96 -47713.36 62206.64 -47606.68 62206.64 -47500 62099.96 -47500 61566.56 M -47500 62099.96 -47393.32 62206.64 -47179.96 62206.64 M -47606.68 62633.36 -47820.04 62846.72 -47179.96 62846.72" fill="none" stroke-width="106.68"/><path d="M -50889 76611 -38951 76611 -38951 78389 -50889 78389 -50889 76611" fill="none" stroke-width="203.2"/><path d="M -50000 77500 -50000 77500" fill="none" stroke-width="711.2"/><path d="M -45773.44 77179.96 -45773.44 77820.04 -45240.04 77820.04 -45133.36 77713.36 -45133.36 77606.68 -45240.04 77500 -45773.44 77500 M -45240.04 77500 -45133.36 77393.32 -45133.36 77179.96 M -44813.32 77713.36 -44706.64 77820.04 -44386.6 77820.04 -44279.92 77713.36 -44279.92 77606.68 -44386.6 77500 -44706.64 77500 -44813.32 77393.32 -44813.32 77179.96 -44279.92 77179.96" fill="none" stroke-width="106.68"/><path d="M 36052.2 68047.5 38947.8 68047.5 38947.8 79952.5 36052.2 79952.5 36052.2 68047.5 38947.8 68047.5 38947.8 79952.5 36052.2 79952.5 36052.2 68047.5" fill="none" stroke-width="152.4"/><path d="M 37500 79000 37500 79000" fill="none" stroke-width="558.8"/><path d="M 38016.75 69866.06 36983.26 69866.06 36983.26 70727.29 37155.51 70899.54 37327.76 70899.54 37500 70727.29 37672.25 70899.54 37844.5 70899.54 38016.75 70727.29 38016.75 69866.06 M 37500 69866.06 37500 70727.29 M 38016.75 71244.04 36983.26 71244.04 37500 71760.78 36983.26 72277.52 38016.75 72277.52 M 38016.75 73655.5 38016.75 72622.02 36983.26 72622.02 36983.26 73655.5 M 37500 72622.02 37500 73311.01 M 37155.51 74172.24 36983.26 74344.49 36983.26 74861.23 37155.51 75033.48 37327.76 75033.48 37500 74861.23 37500 74344.49 37672.25 74172.24 38016.75 74172.24 38016.75 75033.48 M 37500 75722.47 37327.76 75550.22 37155.51 75550.22 36983.26 75722.47 36983.26 76239.21 37155.51 76411.46 37327.76 76411.46 37500 76239.21 37500 75722.47 37672.25 75550.22 37844.5 75550.22 38016.75 75722.47 38016.75 76239.21 37844.5 76411.46 37672.25 76411.46 37500 76239.21 M 37844.5 76755.96 37155.51 76755.96 36983.26 76928.2 36983.26 77617.19 37155.51 77789.44 37844.5 77789.44 38016.75 77617.19 38016.75 76928.2 37844.5 76755.96 M 38016.75 76755.96 36983.26 77789.44" fill="none" stroke-width="172.24"/><path d="M -63109.6 0 47500 0 47500 90000 -63109.6 90000 -63109.6 0" fill="none" stroke-width="203.2"/><path d="M -31411.6 66128.4 -26128.4 66128.4 -26128.4 68871.6 -31411.6 68871.6 -31411.6 66128.4" fill="none" stroke-width="203.2"/><path d="M -30040 67500 -30040 67500" fill="none" stroke-width="812.8"/><path d="M -30707.1 67367.92 -30707.1 67632.07 -30486.98 67632.07 -30442.95 67588.05 -30442.95 67544.02 -30486.98 67500 -30707.1 67500 M -30354.9 67632.07 -30354.9 67367.92 -30090.75 67367.92 M -30002.7 67632.07 -30002.7 67411.94 -29958.68 67367.92 -29782.58 67367.92 -29738.55 67411.94 -29738.55 67632.07 M -29650.5 67632.07 -29650.5 67500 -29518.43 67367.92 -29386.35 67500 -29386.35 67632.07 M -29254.28 67632.07 -29078.18 67632.07 M -29166.23 67632.07 -29166.23 67367.92 M -29254.28 67367.92 -29078.18 67367.92 M -28946.1 67544.02 -28858.05 67632.07 -28770 67632.07 -28681.95 67544.02 -28681.95 67455.97 -28770 67367.92 -28858.05 67367.92 -28946.1 67455.97 -28946.1 67544.02 M -28593.9 67367.92 -28593.9 67632.07 -28461.83 67500 -28329.75 67632.07 -28329.75 67367.92 M -27977.55 67367.92 -28241.7 67367.92 -28241.7 67632.07 -27977.55 67632.07 M -28241.7 67500 -28065.6 67500 M -27889.5 67632.07 -27625.35 67632.07 M -27757.43 67632.07 -27757.43 67367.92 M -27537.3 67367.92 -27537.3 67632.07 -27317.18 67632.07 -27273.15 67588.05 -27273.15 67544.02 -27317.18 67500 -27537.3 67500 M -27317.18 67500 -27273.15 67455.97 -27273.15 67367.92 M -27185.1 67544.02 -27097.05 67632.07 -27009 67632.07 -26920.95 67544.02 -26920.95 67455.97 -27009 67367.92 -27097.05 67367.92 -27185.1 67455.97 -27185.1 67544.02" fill="none" stroke-width="44.02"/><path d="M -43871.6 21008.4 -41128.4 21008.4 -41128.4 31371.6 -43871.6 31371.6 -43871.6 21008.4" fill="none" stroke-width="203.2"/><path d="M -42500 30000 -42500 30000" fill="none" stroke-width="812.8"/><path d="M -42370.46 22217.44 -42629.54 22217.44 -42500 22346.98 -42629.54 22476.52 -42370.46 22476.52 M -42543.18 22562.88 -42629.54 22649.24 -42629.54 22735.6 -42543.18 22821.96 -42456.82 22821.96 -42370.46 22735.6 -42370.46 22649.24 -42456.82 22562.88 -42543.18 22562.88 M -42370.46 22908.32 -42629.54 22908.32 -42629.54 23081.04 -42543.18 23167.4 -42456.82 23167.4 -42370.46 23081.04 -42370.46 22908.32 M -42629.54 23253.76 -42413.64 23253.76 -42370.46 23296.94 -42370.46 23469.66 -42413.64 23512.84 -42629.54 23512.84 M -42629.54 23599.2 -42370.46 23599.2 -42370.46 23858.28 M -42543.18 23944.64 -42629.54 24031 -42629.54 24117.36 -42543.18 24203.72 -42456.82 24203.72 -42370.46 24117.36 -42370.46 24031 -42456.82 23944.64 -42543.18 23944.64 M -42370.46 24635.52 -42629.54 24635.52 -42629.54 24808.24 -42543.18 24894.6 -42456.82 24894.6 -42370.46 24808.24 -42370.46 24635.52 M -42370.46 25240.04 -42370.46 24980.96 -42629.54 24980.96 -42629.54 25240.04 M -42500 24980.96 -42500 25153.68 M -42629.54 25671.84 -42370.46 25671.84 -42370.46 25930.92 M -42370.46 26276.36 -42370.46 26017.28 -42629.54 26017.28 -42629.54 26276.36 M -42500 26017.28 -42500 26190 M -42629.54 26405.9 -42629.54 26578.62 M -42629.54 26492.26 -42370.46 26492.26 M -42370.46 26405.9 -42370.46 26578.62 M -42629.54 26708.16 -42629.54 26967.24 M -42629.54 26837.7 -42370.46 26837.7 M -42629.54 27053.6 -42413.64 27053.6 -42370.46 27096.78 -42370.46 27269.5 -42413.64 27312.68 -42629.54 27312.68 M -42370.46 27399.04 -42629.54 27399.04 -42629.54 27614.94 -42586.36 27658.12 -42543.18 27658.12 -42500 27614.94 -42500 27399.04 M -42500 27614.94 -42456.82 27658.12 -42370.46 27658.12 M -42370.46 27744.48 -42543.18 27744.48 -42629.54 27830.84 -42629.54 27917.2 -42543.18 28003.56 -42370.46 28003.56 M -42456.82 27744.48 -42456.82 28003.56 M -42370.46 28435.36 -42629.54 28435.36 -42629.54 28608.08 -42543.18 28694.44 -42456.82 28694.44 -42370.46 28608.08 -42370.46 28435.36 M -42370.46 29039.88 -42370.46 28780.8 -42629.54 28780.8 -42629.54 29039.88 M -42500 28780.8 -42500 28953.52 M -42370.46 29471.68 -42629.54 29471.68 -42629.54 29687.58 -42586.36 29730.76 -42543.18 29730.76 -42500 29687.58 -42500 29471.68 M -42370.46 29817.12 -42629.54 29817.12 M -42629.54 30076.2 -42370.46 30076.2 M -42500 29817.12 -42500 30076.2" fill="none" stroke-width="43.18"/><path d="M -46371.6 13628.4 -41088.4 13628.4 -41088.4 16371.6 -46371.6 16371.6 -46371.6 13628.4" fill="none" stroke-width="203.2"/><path d="M -45000 15000 -45000 15000" fill="none" stroke-width="812.8"/><path d="M -45711.2 14900.94 -45711.2 15033.02 -45645.16 15099.06 -45579.12 15099.06 -45513.08 15033.02 -45513.08 14900.94 M -45711.2 14966.98 -45513.08 14966.98 M -45447.04 15099.06 -45447.04 14900.94 -45248.92 14900.94 M -45149.86 15099.06 -45017.78 15099.06 M -45083.82 15099.06 -45083.82 14900.94 M -45149.86 14900.94 -45017.78 14900.94 M -44918.72 14900.94 -44918.72 15099.06 -44819.66 15000 -44720.6 15099.06 -44720.6 14900.94 M -44456.44 14900.94 -44654.56 14900.94 -44654.56 15099.06 -44456.44 15099.06 M -44654.56 15000 -44522.48 15000 M -44390.4 14900.94 -44390.4 15099.06 -44192.28 14900.94 -44192.28 15099.06 M -44126.24 15099.06 -43928.12 15099.06 M -44027.18 15099.06 -44027.18 14900.94 M -43862.08 14900.94 -43862.08 15033.02 -43796.04 15099.06 -43730 15099.06 -43663.96 15033.02 -43663.96 14900.94 M -43862.08 14966.98 -43663.96 14966.98 M -43399.8 14933.96 -43432.82 14900.94 -43531.88 14900.94 -43597.92 14966.98 -43597.92 15033.02 -43531.88 15099.06 -43432.82 15099.06 -43399.8 15066.04 M -43333.76 14900.94 -43333.76 15033.02 -43267.72 15099.06 -43201.68 15099.06 -43135.64 15033.02 -43135.64 14900.94 M -43333.76 14966.98 -43135.64 14966.98 M -43069.6 15033.02 -43003.56 15099.06 -42937.52 15099.06 -42871.48 15033.02 -42871.48 14966.98 -42937.52 14900.94 -43003.56 14900.94 -43069.6 14966.98 -43069.6 15033.02 M -42508.26 15066.04 -42475.24 15099.06 -42376.18 15099.06 -42343.16 15066.04 -42343.16 15033.02 -42376.18 15000 -42475.24 15000 -42508.26 14966.98 -42508.26 14900.94 -42343.16 14900.94 M -42079 14966.98 -42277.12 14966.98 -42145.04 15099.06 -42145.04 14900.94 M -42012.96 15099.06 -42012.96 15000 -41913.9 14900.94 -41814.84 15000 -41814.84 15099.06" fill="none" stroke-width="33.02"/></g></svg>