<svg version="1.1" xmlns="http://www.w3.org/2000/svg" xmlns:xlink="http://www.w3.org/1999/xlink" stroke-linecap="round" stroke-linejoin="round" stroke-width="0" fill-rule="evenodd" width="95.9144mm" height="71.81280000000001mm" viewBox="-58008 7593.6 95914.4 71812.8" id="mJlJY1mqeT-zx4OaxgO5"><defs><circle cx="0" cy="0" r="508" id="mJlJY1mqeT-zx4OaxgO5_pad-44"/><circle cx="0" cy="0" r="406.4" id="mJlJY1mqeT-zx4OaxgO5_pad-45"/><circle cx="0" cy="0" r="381" id="mJlJY1mqeT-zx4OaxgO5_pad-46"/></defs><g transform="translate(0,87000) scale(1,-1)" fill="currentColor" stroke="currentColor"><use xlink:href="#mJlJY1mqeT-zx4OaxgO5_pad-44" x="-20200" y="57260"/><use xlink:href="#mJlJY1mqeT-zx4OaxgO5_pad-44" x="-20200" y="54720"/><use xlink:href="#mJlJY1mqeT-zx4OaxgO5_pad-44" x="-20200" y="52180"/><use xlink:href="#mJlJY1mqeT-zx4OaxgO5_pad-44" x="-20200" y="49640"/><use xlink:href="#mJlJY1mqeT-zx4OaxgO5_pad-44" x="-20200" y="47100"/><use xlink:href="#mJlJY1mqeT-zx4OaxgO5_pad-44" x="-20200" y="44560"/><use xlink:href="#mJlJY1mqeT-zx4OaxgO5_pad-44" x="-20200" y="42020"/><use xlink:href="#mJlJY1mqeT-zx4OaxgO5_pad-44" x="-20200" y="39480"/><use xlink:href="#mJlJY1mqeT-zx4OaxgO5_pad-44" x="-20200" y="36940"/><use xlink:href="#mJlJY1mqeT-zx4OaxgO5_pad-44" x="-20200" y="34400"/><use xlink:href="#mJlJY1mqeT-zx4OaxgO5_pad-44" x="-20200" y="31860"/><use xlink:href="#mJlJY1mqeT-zx4OaxgO5_pad-44" x="-20200" y="29320"/><use xlink:href="#mJlJY1mqeT-zx4OaxgO5_pad-44" x="-20200" y="26780"/><use xlink:href="#mJlJY1mqeT-zx4OaxgO5_pad-44" x="-20200" y="24240"/><use xlink:href="#mJlJY1mqeT-zx4OaxgO5_pad-44" x="-20200" y="21700"/><use xlink:href="#mJlJY1mqeT-zx4OaxgO5_pad-44" x="-20200" y="19160"/><use xlink:href="#mJlJY1mqeT-zx4OaxgO5_pad-44" x="-20200" y="16620"/><use xlink:href="#mJlJY1mqeT-zx4OaxgO5_pad-44" x="-20200" y="14080"/><use xlink:href="#mJlJY1mqeT-zx4OaxgO5_pad-44" x="-20200" y="11540"/><use xlink:href="#mJlJY1mqeT-zx4OaxgO5_pad-44" x="5200" y="57260"/><use xlink:href="#mJlJY1mqeT-zx4OaxgO5_pad-44" x="5200" y="54720"/><use xlink:href="#mJlJY1mqeT-zx4OaxgO5_pad-44" x="5200" y="52180"/><use xlink:href="#mJlJY1mqeT-zx4OaxgO5_pad-44" x="5200" y="49640"/><use xlink:href="#mJlJY1mqeT-zx4OaxgO5_pad-44" x="5200" y="47100"/><use xlink:href="#mJlJY1mqeT-zx4OaxgO5_pad-44" x="5200" y="44560"/><use xlink:href="#mJlJY1mqeT-zx4OaxgO5_pad-44" x="5200" y="42020"/><use xlink:href="#mJlJY1mqeT-zx4OaxgO5_pad-44" x="5200" y="39480"/><use xlink:href="#mJlJY1mqeT-zx4OaxgO5_pad-44" x="5200" y="36940"/><use xlink:href="#mJlJY1mqeT-zx4OaxgO5_pad-44" x="5200" y="34400"/><use xlink:href="#mJlJY1mqeT-zx4OaxgO5_pad-44" x="5200" y="31860"/><use xlink:href="#mJlJY1mqeT-zx4OaxgO5_pad-44" x="5200" y="29320"/><use xlink:href="#mJlJY1mqeT-zx4OaxgO5_pad-44" x="5200" y="26780"/><use xlink:href="#mJlJY1mqeT-zx4OaxgO5_pad-44" x="5200" y="24240"/><use xlink:href="#mJlJY1mqeT-zx4OaxgO5_pad-44" x="5200" y="21700"/><use xlink:href="#mJlJY1mqeT-zx4OaxgO5_pad-44" x="5200" y="19160"/><use xlink:href="#mJlJY1mqeT-zx4OaxgO5_pad-44" x="5200" y="16620"/><use xlink:href="#mJlJY1mqeT-zx4OaxgO5_pad-44" x="5200" y="14080"/><use xlink:href="#mJlJY1mqeT-zx4OaxgO5_pad-44" x="5200" y="11540"/><use xlink:href="#mJlJY1mqeT-zx4OaxgO5_pad-45" x="30000" y="14000"/><use xlink:href="#mJlJY1mqeT-zx4OaxgO5_pad-45" x="30000" y="12000"/><use xlink:href="#mJlJY1mqeT-zx4OaxgO5_pad-45" x="30000" y="10000"/><use xlink:href="#mJlJY1mqeT-zx4OaxgO5_pad-45" x="30000" y="8000"/><use xlink:href="#mJlJY1mqeT-zx4OaxgO5_pad-45" x="35000" y="41500"/><use xlink:href="#mJlJY1mqeT-zx4OaxgO5_pad-45" x="35000" y="43500"/><use xlink:href="#mJlJY1mqeT-zx4OaxgO5_pad-45" x="35000" y="45500"/><use xlink:href="#mJlJY1mqeT-zx4OaxgO5_pad-45" x="35000" y="47500"/><use xlink:href="#mJlJY1mqeT-zx4OaxgO5_pad-44" x="-57500" y="77500"/><use xlink:href="#mJlJY1mqeT-zx4OaxgO5_pad-44" x="-54960" y="77500"/><use xlink:href="#mJlJY1mqeT-zx4OaxgO5_pad-44" x="-47540" y="42500"/><use xlink:href="#mJlJY1mqeT-zx4OaxgO5_pad-44" x="-45000" y="42500"/><use xlink:href="#mJlJY1mqeT-zx4OaxgO5_pad-46" x="-47500" y="67500"/><use xlink:href="#mJlJY1mqeT-zx4OaxgO5_pad-46" x="-47500" y="57340"/><use xlink:href="#mJlJY1mqeT-zx4OaxgO5_pad-46" x="-50000" y="77500"/><use xlink:href="#mJlJY1mqeT-zx4OaxgO5_pad-46" x="-39840" y="77500"/><use xlink:href="#mJlJY1mqeT-zx4OaxgO5_pad-45" x="37500" y="79000"/><use xlink:href="#mJlJY1mqeT-zx4OaxgO5_pad-45" x="37500" y="77000"/><use xlink:href="#mJlJY1mqeT-zx4OaxgO5_pad-45" x="37500" y="75000"/><use xlink:href="#mJlJY1mqeT-zx4OaxgO5_pad-45" x="37500" y="73000"/><use xlink:href="#mJlJY1mqeT-zx4OaxgO5_pad-45" x="37500" y="71000"/><use xlink:href="#mJlJY1mqeT-zx4OaxgO5_pad-45" x="37500" y="69000"/><use xlink:href="#mJlJY1mqeT-zx4OaxgO5_pad-44" x="-30040" y="67500"/><use xlink:href="#mJlJY1mqeT-zx4OaxgO5_pad-44" x="-27500" y="67500"/><use xlink:href="#mJlJY1mqeT-zx4OaxgO5_pad-44" x="-42500" y="30000"/><use xlink:href="#mJlJY1mqeT-zx4OaxgO5_pad-44" x="-42500" y="27460"/><use xlink:href="#mJlJY1mqeT-zx4OaxgO5_pad-44" x="-42500" y="24920"/><use xlink:href="#mJlJY1mqeT-zx4OaxgO5_pad-44" x="-42500" y="22380"/><use xlink:href="#mJlJY1mqeT-zx4OaxgO5_pad-44" x="-45000" y="15000"/><use xlink:href="#mJlJY1mqeT-zx4OaxgO5_pad-44" x="-42460" y="15000"/></g></svg>