<svg version="1.1" xmlns="http://www.w3.org/2000/svg" xmlns:xlink="http://www.w3.org/1999/xlink" stroke-linecap="round" stroke-linejoin="round" stroke-width="0" fill-rule="evenodd" width="110.81280000000001mm" height="90.2032mm" viewBox="-63211.2 -101.6 110812.8 90203.2" id="rYDSLx1gW-40Uas8dwrr"><defs><polygon points="-780,780 780,780 780,-780 -780,-780" id="rYDSLx1gW-40Uas8dwrr_pad-22"/><circle cx="0" cy="0" r="390" id="rYDSLx1gW-40Uas8dwrr_pad-23"/><circle cx="0" cy="0" r="825.5" id="rYDSLx1gW-40Uas8dwrr_pad-24"/><circle cx="0" cy="0" r="1143" id="rYDSLx1gW-40Uas8dwrr_pad-25"/><polygon points="-1016,1143 1016,1143 1041.97,1140.47 1065.98,1133.2 1087.58,1121.65 1106.29,1106.29 1121.65,1087.57 1133.2,1065.98 1140.47,1041.97 1143,1016 1143,-1016 1140.47,-1041.97 1133.2,-1065.98 1121.65,-1087.57 1106.29,-1106.29 1087.58,-1121.65 1065.98,-1133.2 1041.97,-1140.47 1016,-1143 -1016,-1143 -1041.97,-1140.47 -1065.98,-1133.2 -1087.58,-1121.65 -1106.29,-1106.29 -1121.65,-1087.57 -1133.2,-1065.98 -1140.47,-1041.97 -1143,-1016 -1143,1016 -1140.47,1041.97 -1133.2,1065.98 -1121.65,1087.57 -1106.29,1106.29 -1087.58,1121.65 -1065.98,1133.2 -1041.97,1140.47" id="rYDSLx1gW-40Uas8dwrr_pad-26"/><circle cx="0" cy="0" r="1016" id="rYDSLx1gW-40Uas8dwrr_pad-27"/><polygon points="1143,1016 1143,-1016 1140.47,-1041.97 1133.2,-1065.98 1121.65,-1087.58 1106.29,-1106.29 1087.57,-1121.65 1065.98,-1133.2 1041.97,-1140.47 1016,-1143 -1016,-1143 -1041.97,-1140.47 -1065.98,-1133.2 -1087.57,-1121.65 -1106.29,-1106.29 -1121.65,-1087.58 -1133.2,-1065.98 -1140.47,-1041.97 -1143,-1016 -1143,1016 -1140.47,1041.97 -1133.2,1065.98 -1121.65,1087.58 -1106.29,1106.29 -1087.57,1121.65 -1065.98,1133.2 -1041.97,1140.47 -1016,1143 1016,1143 1041.97,1140.47 1065.98,1133.2 1087.57,1121.65 1106.29,1106.29 1121.65,1087.58 1133.2,1065.98 1140.47,1041.97" id="rYDSLx1gW-40Uas8dwrr_pad-28"/></defs><g transform="translate(0,90000) scale(1,-1)" fill="currentColor" stroke="currentColor"><use xlink:href="#rYDSLx1gW-40Uas8dwrr_pad-22" x="-20200" y="57260"/><use xlink:href="#rYDSLx1gW-40Uas8dwrr_pad-23" x="-20200" y="54720"/><use xlink:href="#rYDSLx1gW-40Uas8dwrr_pad-23" x="-20200" y="52180"/><use xlink:href="#rYDSLx1gW-40Uas8dwrr_pad-23" x="-20200" y="49640"/><use xlink:href="#rYDSLx1gW-40Uas8dwrr_pad-23" x="-20200" y="47100"/><use xlink:href="#rYDSLx1gW-40Uas8dwrr_pad-23" x="-20200" y="44560"/><use xlink:href="#rYDSLx1gW-40Uas8dwrr_pad-23" x="-20200" y="42020"/><use xlink:href="#rYDSLx1gW-40Uas8dwrr_pad-23" x="-20200" y="39480"/><use xlink:href="#rYDSLx1gW-40Uas8dwrr_pad-23" x="-20200" y="36940"/><use xlink:href="#rYDSLx1gW-40Uas8dwrr_pad-23" x="-20200" y="34400"/><use xlink:href="#rYDSLx1gW-40Uas8dwrr_pad-23" x="-20200" y="31860"/><use xlink:href="#rYDSLx1gW-40Uas8dwrr_pad-23" x="-20200" y="29320"/><use xlink:href="#rYDSLx1gW-40Uas8dwrr_pad-23" x="-20200" y="26780"/><use xlink:href="#rYDSLx1gW-40Uas8dwrr_pad-23" x="-20200" y="24240"/><use xlink:href="#rYDSLx1gW-40Uas8dwrr_pad-23" x="-20200" y="21700"/><use xlink:href="#rYDSLx1gW-40Uas8dwrr_pad-23" x="-20200" y="19160"/><use xlink:href="#rYDSLx1gW-40Uas8dwrr_pad-23" x="-20200" y="16620"/><use xlink:href="#rYDSLx1gW-40Uas8dwrr_pad-23" x="-20200" y="14080"/><use xlink:href="#rYDSLx1gW-40Uas8dwrr_pad-23" x="-20200" y="11540"/><use xlink:href="#rYDSLx1gW-40Uas8dwrr_pad-23" x="5200" y="57260"/><use xlink:href="#rYDSLx1gW-40Uas8dwrr_pad-23" x="5200" y="54720"/><use xlink:href="#rYDSLx1gW-40Uas8dwrr_pad-23" x="5200" y="52180"/><use xlink:href="#rYDSLx1gW-40Uas8dwrr_pad-23" x="5200" y="49640"/><use xlink:href="#rYDSLx1gW-40Uas8dwrr_pad-23" x="5200" y="47100"/><use xlink:href="#rYDSLx1gW-40Uas8dwrr_pad-23" x="5200" y="44560"/><use xlink:href="#rYDSLx1gW-40Uas8dwrr_pad-23" x="5200" y="42020"/><use xlink:href="#rYDSLx1gW-40Uas8dwrr_pad-23" x="5200" y="39480"/><use xlink:href="#rYDSLx1gW-40Uas8dwrr_pad-23" x="5200" y="36940"/><use xlink:href="#rYDSLx1gW-40Uas8dwrr_pad-23" x="5200" y="34400"/><use xlink:href="#rYDSLx1gW-40Uas8dwrr_pad-23" x="5200" y="31860"/><use xlink:href="#rYDSLx1gW-40Uas8dwrr_pad-23" x="5200" y="29320"/><use xlink:href="#rYDSLx1gW-40Uas8dwrr_pad-23" x="5200" y="26780"/><use xlink:href="#rYDSLx1gW-40Uas8dwrr_pad-23" x="5200" y="24240"/><use xlink:href="#rYDSLx1gW-40Uas8dwrr_pad-23" x="5200" y="21700"/><use xlink:href="#rYDSLx1gW-40Uas8dwrr_pad-23" x="5200" y="19160"/><use xlink:href="#rYDSLx1gW-40Uas8dwrr_pad-23" x="5200" y="16620"/><use xlink:href="#rYDSLx1gW-40Uas8dwrr_pad-23" x="5200" y="14080"/><use xlink:href="#rYDSLx1gW-40Uas8dwrr_pad-23" x="5200" y="11540"/><use xlink:href="#rYDSLx1gW-40Uas8dwrr_pad-24" x="30000" y="14000"/><use xlink:href="#rYDSLx1gW-40Uas8dwrr_pad-24" x="30000" y="12000"/><use xlink:href="#rYDSLx1gW-40Uas8dwrr_pad-24" x="30000" y="10000"/><use xlink:href="#rYDSLx1gW-40Uas8dwrr_pad-24" x="30000" y="8000"/><use xlink:href="#rYDSLx1gW-40Uas8dwrr_pad-24" x="35000" y="41500"/><use xlink:href="#rYDSLx1gW-40Uas8dwrr_pad-24" x="35000" y="43500"/><use xlink:href="#rYDSLx1gW-40Uas8dwrr_pad-24" x="35000" y="45500"/><use xlink:href="#rYDSLx1gW-40Uas8dwrr_pad-24" x="35000" y="47500"/><use xlink:href="#rYDSLx1gW-40Uas8dwrr_pad-25" x="-57500" y="77500"/><use xlink:href="#rYDSLx1gW-40Uas8dwrr_pad-25" x="-54960" y="77500"/><use xlink:href="#rYDSLx1gW-40Uas8dwrr_pad-26" x="-47540" y="42500"/><use xlink:href="#rYDSLx1gW-40Uas8dwrr_pad-26" x="-45000" y="42500"/><use xlink:href="#rYDSLx1gW-40Uas8dwrr_pad-27" x="-47500" y="67500"/><use xlink:href="#rYDSLx1gW-40Uas8dwrr_pad-27" x="-47500" y="57340"/><use xlink:href="#rYDSLx1gW-40Uas8dwrr_pad-27" x="-50000" y="77500"/><use xlink:href="#rYDSLx1gW-40Uas8dwrr_pad-27" x="-39840" y="77500"/><use xlink:href="#rYDSLx1gW-40Uas8dwrr_pad-24" x="37500" y="79000"/><use xlink:href="#rYDSLx1gW-40Uas8dwrr_pad-24" x="37500" y="77000"/><use xlink:href="#rYDSLx1gW-40Uas8dwrr_pad-24" x="37500" y="75000"/><use xlink:href="#rYDSLx1gW-40Uas8dwrr_pad-24" x="37500" y="73000"/><use xlink:href="#rYDSLx1gW-40Uas8dwrr_pad-24" x="37500" y="71000"/><use xlink:href="#rYDSLx1gW-40Uas8dwrr_pad-24" x="37500" y="69000"/><use xlink:href="#rYDSLx1gW-40Uas8dwrr_pad-26" x="-30040" y="67500"/><use xlink:href="#rYDSLx1gW-40Uas8dwrr_pad-26" x="-27500" y="67500"/><use xlink:href="#rYDSLx1gW-40Uas8dwrr_pad-28" x="-42500" y="30000"/><use xlink:href="#rYDSLx1gW-40Uas8dwrr_pad-28" x="-42500" y="27460"/><use xlink:href="#rYDSLx1gW-40Uas8dwrr_pad-28" x="-42500" y="24920"/><use xlink:href="#rYDSLx1gW-40Uas8dwrr_pad-28" x="-42500" y="22380"/><use xlink:href="#rYDSLx1gW-40Uas8dwrr_pad-26" x="-45000" y="15000"/><use xlink:href="#rYDSLx1gW-40Uas8dwrr_pad-26" x="-42460" y="15000"/><path d="M -22100 57260 -22100 57260 M -22100 57540 -22100 57540 M -22100.01 57260 -22099.99 57260 M -22100.01 57540 -22099.99 57540 M -22100.02 57260 -22099.98 57260 M -22100.02 57540 -22099.98 57540 M -22100.03 57260 -22099.97 57260 M -22100.03 57540 -22099.97 57540 M -22100.04 57260 -22099.96 57260 M -22100.04 57540 -22099.96 57540 M -22100.05 57260 -22099.95 57260 M -22100.05 57540 -22099.95 57540 M -22100.06 57260 -22099.94 57260 M -22100.06 57540 -22099.94 57540 M -22100.07 57260 -22099.93 57260 M -22100.07 57540 -22099.93 57540 M -22100.08 57260 -22099.92 57260 M -22100.08 57540 -22099.92 57540 M -22100.09 57260 -22099.91 57260 M -22100.09 57540 -22099.91 57540 M -22100.1 57260 -22099.9 57260 M -22100.1 57540 -22099.9 57540 M -22100.11 57260 -22099.89 57260 M -22100.11 57540 -22099.89 57540 M -22100.12 57260 -22099.88 57260 M -22100.12 57540 -22099.88 57540 M -22100.13 57260 -22099.87 57260 M -22100.13 57540 -22099.87 57540 M -22100.14 57260 -22099.86 57260 M -22100.14 57540 -22099.86 57540 M -22100.15 57260 -22099.85 57260 M -22100.15 57540 -22099.85 57540 M -22100.16 57260 -22099.84 57260 M -22100.16 57540 -22099.84 57540 M -22100.17 57260 -22099.83 57260 M -22100.17 57540 -22099.83 57540 M -22100.18 57260 -22099.82 57260 M -22100.18 57540 -22099.82 57540 M -22100.19 57260 -22099.81 57260 M -22100.19 57540 -22099.81 57540 M -22100.2 57260 -22099.8 57260 M -22100.2 57540 -22099.8 57540 M -22100.21 57260 -22099.79 57260 M -22100.21 57540 -22099.79 57540 M -22100.22 57260 -22099.78 57260 M -22100.22 57540 -22099.78 57540 M -22100.23 57260 -22099.77 57260 M -22100.23 57540 -22099.77 57540 M -22100.24 57260 -22099.76 57260 M -22100.24 57540 -22099.76 57540 M -22100.25 57260 -22099.75 57260 M -22100.25 57540 -22099.75 57540 M -22100.26 57260 -22099.74 57260 M -22100.26 57540 -22099.74 57540 M -22100.27 57260 -22099.73 57260 M -22100.27 57540 -22099.73 57540 M -22100.28 57260 -22099.72 57260 M -22100.28 57540 -22099.72 57540 M -22100.29 57260 -22099.71 57260 M -22100.29 57540 -22099.71 57540 M -22100.3 57260 -22099.7 57260 M -22100.3 57540 -22099.7 57540 M -22100.31 57260 -22099.69 57260 M -22100.31 57540 -22099.69 57540 M -22100.32 57260 -22099.68 57260 M -22100.32 57540 -22099.68 57540 M -22100.33 57260 -22099.67 57260 M -22100.33 57540 -22099.67 57540 M -22100.34 57260 -22099.66 57260 M -22100.34 57540 -22099.66 57540 M -22100.35 57260 -22099.65 57260 M -22100.35 57540 -22099.65 57540 M -22100.36 57260 -22099.64 57260 M -22100.36 57540 -22099.64 57540 M -22100.37 57260 -22099.63 57260 M -22100.37 57540 -22099.63 57540 M -22100.38 57260 -22099.62 57260 M -22100.38 57540 -22099.62 57540 M -22100.39 57260 -22099.61 57260 M -22100.39 57540 -22099.61 57540 M -22100.4 57260 -22099.6 57260 M -22100.4 57540 -22099.6 57540 M -22100.41 57260 -22099.59 57260 M -22100.41 57540 -22099.59 57540 M -22100.42 57260 -22099.58 57260 M -22100.42 57540 -22099.58 57540 M -22100.43 57260 -22099.57 57260 M -22100.43 57540 -22099.57 57540 M -22100.44 57260 -22099.56 57260 M -22100.44 57540 -22099.56 57540 M -22100.45 57260 -22099.55 57260 M -22100.45 57540 -22099.55 57540 M -22100.46 57260 -22099.54 57260 M -22100.46 57540 -22099.54 57540 M -22100.47 57260 -22099.53 57260 M -22100.47 57540 -22099.53 57540 M -22100.48 57260 -22099.52 57260 M -22100.48 57540 -22099.52 57540 M -22100.49 57260 -22099.51 57260 M -22100.49 57540 -22099.51 57540 M -22100.5 57260 -22099.5 57260 M -22100.5 57540 -22099.5 57540 M -22100.51 57260 -22099.49 57260 M -22100.51 57540 -22099.49 57540 M -22100.52 57260 -22099.48 57260 M -22100.52 57540 -22099.48 57540 M -22100.53 57260 -22099.47 57260 M -22100.53 57540 -22099.47 57540 M -22100.54 57260 -22099.46 57260 M -22100.54 57540 -22099.46 57540 M -22100.55 57260 -22099.45 57260 M -22100.55 57540 -22099.45 57540 M -22100.56 57260 -22099.44 57260 M -22100.56 57540 -22099.44 57540 M -22100.57 57260 -22099.43 57260 M -22100.57 57540 -22099.43 57540 M -22100.58 57260 -22099.42 57260 M -22100.58 57540 -22099.42 57540 M -22100.59 57260 -22099.41 57260 M -22100.59 57540 -22099.41 57540 M -22100.6 57260 -22099.4 57260 M -22100.6 57540 -22099.4 57540 M -22100.61 57260 -22099.39 57260 M -22100.61 57540 -22099.39 57540 M -22100.62 57260 -22099.38 57260 M -22100.62 57540 -22099.38 57540 M -22100.63 57260 -22099.37 57260 M -22100.63 57540 -22099.37 57540 M -22100.64 57260 -22099.36 57260 M -22100.64 57540 -22099.36 57540 M -22100.65 57260 -22099.35 57260 M -22100.65 57540 -22099.35 57540 M -22100.66 57260 -22099.34 57260 M -22100.66 57540 -22099.34 57540 M -22100.67 57260 -22099.33 57260 M -22100.67 57540 -22099.33 57540 M -22100.68 57260 -22099.32 57260 M -22100.68 57540 -22099.32 57540 M -22100.69 57260 -22099.31 57260 M -22100.69 57540 -22099.31 57540 M -22100.7 57260 -22099.3 57260 M -22100.7 57540 -22099.3 57540 M -22100.71 57260 -22099.29 57260 M -22100.71 57540 -22099.29 57540 M -22100.72 57260 -22099.28 57260 M -22100.72 57540 -22099.28 57540 M -22100.73 57260 -22099.27 57260 M -22100.73 57540 -22099.27 57540 M -22100.74 57260 -22099.26 57260 M -22100.74 57540 -22099.26 57540 M -22100.75 57260 -22099.25 57260 M -22100.75 57540 -22099.25 57540 M -22100.76 57260 -22099.24 57260 M -22100.76 57540 -22099.24 57540 M -22100.77 57260 -22099.23 57260 M -22100.77 57540 -22099.23 57540 M -22100.78 57260 -22099.22 57260 M -22100.78 57540 -22099.22 57540 M -22100.79 57260 -22099.21 57260 M -22100.79 57540 -22099.21 57540 M -22100.8 57260 -22099.2 57260 M -22100.8 57540 -22099.2 57540 M -22100.81 57260 -22099.19 57260 M -22100.81 57540 -22099.19 57540 M -22100.82 57260 -22099.18 57260 M -22100.82 57540 -22099.18 57540 M -22100.83 57260 -22099.17 57260 M -22100.83 57540 -22099.17 57540 M -22100.84 57260 -22099.16 57260 M -22100.84 57540 -22099.16 57540 M -22100.85 57260 -22099.15 57260 M -22100.85 57540 -22099.15 57540 M -22100.86 57260 -22099.14 57260 M -22100.86 57540 -22099.14 57540 M -22100.87 57260 -22099.13 57260 M -22100.87 57540 -22099.13 57540 M -22100.88 57260 -22099.12 57260 M -22100.88 57540 -22099.12 57540 M -22100.89 57260 -22099.11 57260 M -22100.89 57540 -22099.11 57540 M -22100.9 57260 -22099.1 57260 M -22100.9 57540 -22099.1 57540 M -22100.91 57260 -22099.09 57260 M -22100.91 57540 -22099.09 57540 M -22100.92 57260 -22099.08 57260 M -22100.92 57540 -22099.08 57540 M -22100.93 57260 -22099.07 57260 M -22100.93 57540 -22099.07 57540 M -22100.94 57260 -22099.06 57260 M -22100.94 57540 -22099.06 57540 M -22100.95 57260 -22099.05 57260 M -22100.95 57540 -22099.05 57540 M -22100.96 57260 -22099.04 57260 M -22100.96 57540 -22099.04 57540 M -22100.97 57260 -22099.03 57260 M -22100.97 57540 -22099.03 57540 M -22100.98 57260 -22099.02 57260 M -22100.98 57540 -22099.02 57540 M -22100.99 57260 -22099.01 57260 M -22100.99 57540 -22099.01 57540 M -22101 57260 -22099 57260 M -22101 57540 -22099 57540 M -22101.01 57260 -22098.99 57260 M -22101.01 57540 -22098.99 57540 M -22101.02 57260 -22098.98 57260 M -22101.02 57540 -22098.98 57540 M -22101.03 57260 -22098.97 57260 M -22101.03 57540 -22098.97 57540 M -22101.04 57260 -22098.96 57260 M -22101.04 57540 -22098.96 57540 M -22101.05 57260 -22098.95 57260 M -22101.05 57540 -22098.95 57540 M -22101.06 57260 -22098.94 57260 M -22101.06 57540 -22098.94 57540 M -22101.07 57260 -22098.93 57260 M -22101.07 57540 -22098.93 57540 M -22101.08 57260 -22098.92 57260 M -22101.08 57540 -22098.92 57540 M -22101.09 57260 -22098.91 57260 M -22101.09 57540 -22098.91 57540 M -22101.1 57260 -22098.9 57260 M -22101.1 57540 -22098.9 57540 M -22101.11 57260 -22098.89 57260 M -22101.11 57540 -22098.89 57540 M -22101.12 57260 -22098.88 57260 M -22101.12 57540 -22098.88 57540 M -22101.13 57260 -22098.87 57260 M -22101.13 57540 -22098.87 57540 M -22101.14 57260 -22098.86 57260 M -22101.14 57540 -22098.86 57540 M -22101.15 57260 -22098.85 57260 M -22101.15 57540 -22098.85 57540 M -22101.16 57260 -22098.84 57260 M -22101.16 57540 -22098.84 57540 M -22101.17 57260 -22098.83 57260 M -22101.17 57540 -22098.83 57540 M -22101.18 57260 -22098.82 57260 M -22101.18 57540 -22098.82 57540 M -22151.98 57270.01 -22048.02 57270.01 M -22151.98 57529.99 -22048.02 57529.99 M -22202.64 57304.79 -21997.36 57304.79 M -22202.64 57495.21 -21997.36 57495.21 M -22232.77 57355.59 -21967.23 57355.59 M -22232.77 57444.41 -21967.23 57444.41 M -22240 57400 -21960 57400 M -22240 57400 -21960 57400" fill="none" stroke-width="63.5"/><path d="M -21960 57400 -21960.48 57411.64 -21964.43 57434.93 -21972.68 57458.22 -21986.18 57481.51 -22006.81 57504.48 -22030.1 57521.3 -22053.39 57532.01 -22076.68 57538.04 -22099.97 57540 -22100 57540 M -22240 57400 -22239.52 57411.64 -22235.57 57434.93 -22227.32 57458.22 -22213.82 57481.51 -22193.19 57504.48 -22169.9 57521.3 -22146.61 57532.01 -22123.32 57538.04 -22100.03 57540 -22100 57540 M -22240 57400 -22239.52 57388.36 -22235.57 57365.07 -22227.32 57341.78 -22213.82 57318.49 -22193.19 57295.52 -22169.9 57278.7 -22146.61 57267.99 -22123.32 57261.96 -22100.03 57260 -22100 57260 M -21960 57400 -21960.48 57388.36 -21964.43 57365.07 -21972.68 57341.78 -21986.18 57318.49 -22006.81 57295.52 -22030.1 57278.7 -22053.39 57267.99 -22076.68 57261.96 -22099.97 57260 -22100 57260" fill="none" stroke-width="280"/><path d="M -63109.6 0 47500 0 47500 90000 -63109.6 90000 -63109.6 0" fill="none" stroke-width="203.2"/></g></svg>