<svg version="1.1" xmlns="http://www.w3.org/2000/svg" xmlns:xlink="http://www.w3.org/1999/xlink" stroke-linecap="round" stroke-linejoin="round" stroke-width="0" fill-rule="evenodd" width="110.81280000000001mm" height="90.2032mm" viewBox="-63211.2 -101.6 110812.8 90203.2" id="MIb4_r11n_ikZbdhrluz"><defs><mask id="MIb4_r11n_ikZbdhrluz_clear-1" fill="#000" stroke="#000"><g><rect x="-62500" y="609.59" width="109390.4" height="88780.82" fill="#fff"/><path d="M -21360.99 58420.99 -19039.01 58420.99 -19039.01 56099.01 -21360.99 56099.01 -21360.99 58420.99"/><path d="M -21360.99 54239.1 -21360.99 55200.9 -20680.9 55880.99 -19719.1 55880.99 -19039.01 55200.9 -19039.01 54239.1 -19719.1 53559.01 -20680.9 53559.01 -21360.99 54239.1"/><path d="M -21360.99 51699.1 -21360.99 52660.9 -20680.9 53340.99 -19719.1 53340.99 -19039.01 52660.9 -19039.01 51699.1 -19719.1 51019.01 -20680.9 51019.01 -21360.99 51699.1"/><path d="M -21360.99 49159.1 -21360.99 50120.9 -20680.9 50800.99 -19719.1 50800.99 -19039.01 50120.9 -19039.01 49159.1 -19719.1 48479.01 -20680.9 48479.01 -21360.99 49159.1"/><path d="M -21360.99 46619.1 -21360.99 47580.9 -20680.9 48260.99 -19719.1 48260.99 -19039.01 47580.9 -19039.01 46619.1 -19719.1 45939.01 -20680.9 45939.01 -21360.99 46619.1"/><path d="M -26512.18 73487.82 -26103.01 73078.65 -26103.01 49434.02 -21360.99 44692 -21360.99 45040.9 -20680.9 45720.99 -19719.1 45720.99 -19039.01 45040.9 -19039.01 44079.1 -19701.12 43416.99 -19621.35 43416.99 -18803.01 42598.65 -18803.01 41441.35 -19621.35 40623.01 -19701.12 40623.01 -19039.01 39960.9 -19039.01 38999.1 -19719.1 38319.01 -20680.9 38319.01 -21360.99 38999.1 -21360.99 39960.9 -20698.88 40623.01 -21243.28 40623.01 -28896.99 48276.72 -28896.99 66103.01 -31436.99 66103.01 -31436.99 68896.99 -28896.99 68896.99 -28896.99 71921.35 -33078.65 76103.01 -40418.65 76103.01 -41236.99 76921.35 -41236.99 78078.65 -40418.65 78896.99 -34030.71 78896.99 -33726.58 79201.12 -32225.48 79201.12 -26512.18 73487.82"/><path d="M -21360.99 36459.1 -21360.99 37420.9 -20680.9 38100.99 -19719.1 38100.99 -19039.01 37420.9 -19039.01 36459.1 -19719.1 35779.01 -20680.9 35779.01 -21360.99 36459.1"/><path d="M -21360.99 33919.1 -21360.99 34880.9 -20680.9 35560.99 -19719.1 35560.99 -19039.01 34880.9 -19039.01 33919.1 -19719.1 33239.01 -20680.9 33239.01 -21360.99 33919.1"/><path d="M -21360.99 31379.1 -21360.99 32340.9 -20680.9 33020.99 -19719.1 33020.99 -19039.01 32340.9 -19039.01 31379.1 -19719.1 30699.01 -20680.9 30699.01 -21360.99 31379.1"/><path d="M -21360.99 28839.1 -21360.99 29800.9 -20680.9 30480.99 -19719.1 30480.99 -19039.01 29800.9 -19039.01 28839.1 -19719.1 28159.01 -20680.9 28159.01 -21360.99 28839.1"/><path d="M -21360.99 26299.1 -21360.99 27260.9 -20680.9 27940.99 -19719.1 27940.99 -19039.01 27260.9 -19039.01 26299.1 -19719.1 25619.01 -20680.9 25619.01 -21360.99 26299.1"/><path d="M -21360.99 23759.1 -21360.99 24720.9 -20680.9 25400.99 -19719.1 25400.99 -19039.01 24720.9 -19039.01 23759.1 -19719.1 23079.01 -20680.9 23079.01 -21360.99 23759.1"/><path d="M -41103.01 28603.01 -41103.01 23776.99 -24486.46 23776.99 -24394.72 23868.73 -23237.42 23868.73 -21360.99 21992.3 -21360.99 22180.9 -20680.9 22860.99 -19719.1 22860.99 -19039.01 22180.9 -19039.01 21219.1 -19701.12 20556.99 -19621.35 20556.99 -18803.01 19738.65 -18803.01 18581.35 -19621.35 17763.01 -19701.12 17763.01 -19039.01 17100.9 -19039.01 16139.1 -19719.1 15459.01 -20680.9 15459.01 -21360.99 16139.1 -21360.99 17100.9 -20698.88 17763.01 -21497.11 17763.01 -23896.99 20162.89 -23896.99 20577.02 -24302.98 20983.01 -43539.73 20983.01 -43539.73 19342.67 -41063.01 16865.95 -41063.01 13603.01 -46396.99 13603.01 -46396.99 16396.99 -44545.33 16396.99 -46333.71 18185.37 -46333.71 26888.76 -44365.48 28856.99 -43896.99 28856.99 -43896.99 31396.99 -41103.01 31396.99 -41103.01 28603.01"/><path d="M -21360.99 13599.1 -21360.99 14560.9 -20680.9 15240.99 -19719.1 15240.99 -19039.01 14560.9 -19039.01 13599.1 -19719.1 12919.01 -20680.9 12919.01 -21360.99 13599.1"/><path d="M -21360.99 11059.1 -21360.99 12020.9 -20680.9 12700.99 -19719.1 12700.99 -19039.01 12020.9 -19039.01 11059.1 -19719.1 10379.01 -20680.9 10379.01 -21360.99 11059.1"/><path d="M 38579.49 79447.14 38579.49 78552.86 38251.14 78224.5 38896.99 77578.65 38896.99 76421.35 38251.14 75775.5 38579.49 75447.14 38579.49 74552.86 38251.14 74224.5 38896.99 73578.65 38896.99 72421.35 38251.14 71775.5 38579.49 71447.14 38579.49 70552.86 38026.63 70000 38579.49 69447.14 38579.49 68552.86 37947.14 67920.51 37052.86 67920.51 36420.51 68552.86 36420.51 69447.14 36973.37 70000 36420.51 70552.86 36420.51 71447.14 36576.38 71603.01 33646.31 71603.01 12826.31 50783.01 5698.88 50783.01 6360.99 50120.9 6360.99 49159.1 5698.88 48496.99 25062.7 48496.99 28662.7 44896.99 34076.38 44896.99 33920.51 45052.86 33920.51 45947.14 34248.86 46275.5 33603.01 46921.35 33603.01 48078.65 34421.35 48896.99 39805.01 48896.99 42297.2 46404.8 42297.2 36129.55 39362.19 33194.54 12329.82 33194.54 6360.99 39163.37 6360.99 38999.1 5680.9 38319.01 4719.1 38319.01 4039.01 38999.1 4039.01 39960.9 4701.12 40623.01 4621.35 40623.01 3803.01 41441.35 3803.01 42598.65 4621.35 43416.99 4701.12 43416.99 4039.01 44079.1 4039.01 45040.9 4701.12 45703.01 4621.35 45703.01 3803.01 46521.35 3803.01 47678.65 4621.35 48496.99 4701.12 48496.99 4039.01 49159.1 4039.01 50120.9 4701.12 50783.01 4621.35 50783.01 3803.01 51601.35 3803.01 52758.65 4621.35 53576.99 4701.12 53576.99 4039.01 54239.1 4039.01 55200.9 4664.7 55826.59 4657.77 55826.59 3803.01 56681.35 3803.01 57838.65 4621.35 58656.99 5778.65 58656.99 5815.07 58620.57 7920.28 58620.57 27696.7 78396.99 36576.38 78396.99 36420.51 78552.86 36420.51 79447.14 37052.86 80079.49 37947.14 80079.49 38579.49 79447.14"/><path d="M 4039.01 36459.1 4039.01 37420.9 4719.1 38100.99 5680.9 38100.99 6360.99 37420.9 6360.99 36459.1 5680.9 35779.01 4719.1 35779.01 4039.01 36459.1"/><path d="M 4039.01 33919.1 4039.01 34880.9 4719.1 35560.99 5680.9 35560.99 6360.99 34880.9 6360.99 33919.1 5680.9 33239.01 4719.1 33239.01 4039.01 33919.1"/><path d="M 4039.01 31379.1 4039.01 32340.9 4719.1 33020.99 5680.9 33020.99 6360.99 32340.9 6360.99 31379.1 5680.9 30699.01 4719.1 30699.01 4039.01 31379.1"/><path d="M 4039.01 28839.1 4039.01 29800.9 4719.1 30480.99 5680.9 30480.99 6360.99 29800.9 6360.99 28839.1 5680.9 28159.01 4719.1 28159.01 4039.01 28839.1"/><path d="M 4039.01 26299.1 4039.01 27260.9 4719.1 27940.99 5680.9 27940.99 6360.99 27260.9 6360.99 26299.1 5680.9 25619.01 4719.1 25619.01 4039.01 26299.1"/><path d="M 4039.01 23759.1 4039.01 24720.9 4719.1 25400.99 5680.9 25400.99 6360.99 24720.9 6360.99 23759.1 5680.9 23079.01 4719.1 23079.01 4039.01 23759.1"/><path d="M 4039.01 21219.1 4039.01 22180.9 4719.1 22860.99 5680.9 22860.99 6360.99 22180.9 6360.99 21219.1 5680.9 20539.01 4719.1 20539.01 4039.01 21219.1"/><path d="M 4039.01 18679.1 4039.01 19640.9 4719.1 20320.99 5680.9 20320.99 6360.99 19640.9 6360.99 18679.1 5680.9 17999.01 4719.1 17999.01 4039.01 18679.1"/><path d="M 4039.01 16139.1 4039.01 17100.9 4719.1 17780.99 5680.9 17780.99 6360.99 17100.9 6360.99 16139.1 5680.9 15459.01 4719.1 15459.01 4039.01 16139.1"/><path d="M 4039.01 13599.1 4039.01 14560.9 4719.1 15240.99 5680.9 15240.99 6360.99 14560.9 6360.99 13599.1 5680.9 12919.01 4719.1 12919.01 4039.01 13599.1"/><path d="M 4039.01 11059.1 4039.01 12020.9 4719.1 12700.99 5680.9 12700.99 6360.99 12020.9 6360.99 11059.1 5680.9 10379.01 4719.1 10379.01 4039.01 11059.1"/><path d="M -49012.18 78487.82 -46103.01 75578.65 -46103.01 70497.79 -47312.58 69288.22 -46103.01 68078.65 -46103.01 66921.35 -46921.35 66103.01 -48078.65 66103.01 -50239.65 68264.01 -54421.35 68264.01 -56667.51 66017.85 -56667.51 11550.1 -50292.15 5174.74 20945.92 5174.74 26660.13 10888.95 26660.13 12679.98 28007.64 14027.49 28920.51 14027.49 28920.51 14447.14 29552.86 15079.49 30447.14 15079.49 31079.49 14447.14 31079.49 13552.86 30751.14 13224.5 31396.99 12578.65 31396.99 11421.35 30751.14 10775.5 31079.49 10447.14 31079.49 9552.86 30526.63 9000 31079.49 8447.14 31079.49 7552.86 30447.14 6920.51 29552.86 6920.51 28920.51 7552.86 28920.51 8447.14 29473.37 9000 29097.92 9375.46 23247.2 3524.74 23247.2 3199.1 22266.04 2217.94 21108.74 2217.94 20945.92 2380.76 -51449.45 2380.76 -59461.49 10392.8 -59461.49 67175.15 -55578.65 71057.99 -49494.09 71057.99 -48896.99 71655.09 -48896.99 74421.35 -50578.65 76103.01 -55538.65 76103.01 -56230 76794.36 -56921.35 76103.01 -58078.65 76103.01 -58896.99 76921.35 -58896.99 78078.65 -58078.65 78896.99 -56921.35 78896.99 -56230 78205.64 -55538.65 78896.99 -49421.35 78896.99 -49012.18 78487.82"/><path d="M -46512.18 58327.82 -43603.01 55418.65 -43603.01 41103.01 -48936.99 41103.01 -48936.99 43896.99 -46396.99 43896.99 -46396.99 54261.35 -48896.99 56761.35 -48896.99 57918.65 -48078.65 58736.99 -46921.35 58736.99 -46512.18 58327.82"/></g></mask><rect x="-780" y="-780" width="1560" height="1560" id="MIb4_r11n_ikZbdhrluz_pad-12"/><circle cx="0" cy="0" r="780" id="MIb4_r11n_ikZbdhrluz_pad-13"/><circle cx="0" cy="0" r="698.5" id="MIb4_r11n_ikZbdhrluz_pad-14"/><circle cx="0" cy="0" r="1016" id="MIb4_r11n_ikZbdhrluz_pad-15"/><rect x="-1016" y="-1016" width="2032" height="2032" id="MIb4_r11n_ikZbdhrluz_pad-16"/><circle cx="0" cy="0" r="889" id="MIb4_r11n_ikZbdhrluz_pad-17"/></defs><g transform="translate(0,90000) scale(1,-1)" fill="currentColor" stroke="currentColor"><g mask="url(#MIb4_r11n_ikZbdhrluz_clear-1)"><path d="M 46890.4 609.59 -62500 609.59 -62500 89390.41 46890.4 89390.41 46890.4 609.59"/></g><path d="M 36420.51 75447.14 36420.51 74552.86 36576.38 74396.99 32421.35 74396.99 31103.01 73078.65 31103.01 73010.99 11669.01 53576.99 5698.88 53576.99 6360.99 54239.1 6360.99 55200.9 5735.3 55826.59 9240.4 55826.59 10058.74 56644.93 10058.74 56807.75 28854 75603.01 36576.38 75603.01 36420.51 75447.14"/><path d="M 39503.22 45247.5 39503.22 37286.85 38204.89 35988.52 13487.12 35988.52 8340.57 41135.07 8340.57 41284.51 6208.09 43416.99 5698.88 43416.99 6360.99 44079.1 6360.99 45040.9 5698.88 45703.01 23905.4 45703.01 27505.4 42103.01 34076.38 42103.01 33920.51 41947.14 33920.51 41052.86 34552.86 40420.51 35447.14 40420.51 36079.49 41052.86 36079.49 41947.14 35751.14 42275.5 36396.99 42921.35 36396.99 44078.65 35751.14 44724.5 36079.49 45052.86 36079.49 45947.14 35923.62 46103.01 38647.71 46103.01 39503.22 45247.5"/><path d="M -45000 42500 -45000 54840 -47500 57340 M 37500 77000 28275.35 77000 23641.23 72365.88 8661.75 57386.4 8661.75 57223.58 5236.42 57223.58 5200 57260 M 37500 73000 33000 73000 32500 72500 32500 72432.34 21198.93 61131.27 12247.66 52180 5200 52180 M 35000 47500 39226.36 47500 40900.21 45826.15 40900.21 36708.2 38783.54 34591.53 12908.47 34591.53 12500 35000 6943.58 40556.42 6943.58 40705.86 5629.44 42020 5200 42020 M 35000 43500 28084.05 43500 24484.05 47100 5200 47100 M 21850.21 3777.75 21524.57 3777.75 20000 3777.75 M 21524.57 3777.75 21687.39 3614.93 21850.21 3777.75 M 21524.57 3777.75 28057.12 10310.3 28057.12 12101.33 28586.29 12630.5 29216.79 12000 30000 12000 M -55000 69661 -58064.5 66596.5 -58064.5 10971.45 -50870.8 3777.75 -50717.4 3777.75 20000 3777.75 M -47500 67500 -49661 69661 -55000 69661 M -50000 77500 -47500 75000 -47500 71076.44 -47568.64 71007.8 -48915.44 69661 -49661 69661 M -50000 77500 -54960 77500 M -39840 77500 -33452.06 77500 -33147.93 77804.13 -32804.13 77804.13 -27500 72500 -27500 67500 -27500 48855.37 -26640.49 47995.86 -20664.63 42020 -20200 42020 M -42460 15000 -42460 16287.3 -44936.72 18764.02 -44936.72 23990.22 -44936.72 26310.11 -43786.83 27460 -42500 27460 M -42500 22380 -23907.81 22380 -23816.07 22471.74 -22500 21155.67 -22500 20741.54 -20918.46 19160 -20200 19160" fill="none" stroke-width="2032"/><path d="M 46890.4 609.59 -62500 609.59 -62500 89390.41 46890.4 89390.41 46890.4 609.59 M -21360.99 58420.99 -19039.01 58420.99 -19039.01 56099.01 -21360.99 56099.01 -21360.99 58420.99 M -21360.99 54239.1 -21360.99 55200.9 -20680.9 55880.99 -19719.1 55880.99 -19039.01 55200.9 -19039.01 54239.1 -19719.1 53559.01 -20680.9 53559.01 -21360.99 54239.1 M -21360.99 51699.1 -21360.99 52660.9 -20680.9 53340.99 -19719.1 53340.99 -19039.01 52660.9 -19039.01 51699.1 -19719.1 51019.01 -20680.9 51019.01 -21360.99 51699.1 M -21360.99 49159.1 -21360.99 50120.9 -20680.9 50800.99 -19719.1 50800.99 -19039.01 50120.9 -19039.01 49159.1 -19719.1 48479.01 -20680.9 48479.01 -21360.99 49159.1 M -21360.99 46619.1 -21360.99 47580.9 -20680.9 48260.99 -19719.1 48260.99 -19039.01 47580.9 -19039.01 46619.1 -19719.1 45939.01 -20680.9 45939.01 -21360.99 46619.1 M -26512.18 73487.82 -26103.01 73078.65 -26103.01 49434.02 -21360.99 44692 -21360.99 45040.9 -20680.9 45720.99 -19719.1 45720.99 -19039.01 45040.9 -19039.01 44079.1 -19701.12 43416.99 -19621.35 43416.99 -18803.01 42598.65 -18803.01 41441.35 -19621.35 40623.01 -19701.12 40623.01 -19039.01 39960.9 -19039.01 38999.1 -19719.1 38319.01 -20680.9 38319.01 -21360.99 38999.1 -21360.99 39960.9 -20698.88 40623.01 -21243.28 40623.01 -28896.99 48276.72 -28896.99 66103.01 -31436.99 66103.01 -31436.99 68896.99 -28896.99 68896.99 -28896.99 71921.35 -33078.65 76103.01 -40418.65 76103.01 -41236.99 76921.35 -41236.99 78078.65 -40418.65 78896.99 -34030.71 78896.99 -33726.58 79201.12 -32225.48 79201.12 -26512.18 73487.82 M -21360.99 36459.1 -21360.99 37420.9 -20680.9 38100.99 -19719.1 38100.99 -19039.01 37420.9 -19039.01 36459.1 -19719.1 35779.01 -20680.9 35779.01 -21360.99 36459.1 M -21360.99 33919.1 -21360.99 34880.9 -20680.9 35560.99 -19719.1 35560.99 -19039.01 34880.9 -19039.01 33919.1 -19719.1 33239.01 -20680.9 33239.01 -21360.99 33919.1 M -21360.99 31379.1 -21360.99 32340.9 -20680.9 33020.99 -19719.1 33020.99 -19039.01 32340.9 -19039.01 31379.1 -19719.1 30699.01 -20680.9 30699.01 -21360.99 31379.1 M -21360.99 28839.1 -21360.99 29800.9 -20680.9 30480.99 -19719.1 30480.99 -19039.01 29800.9 -19039.01 28839.1 -19719.1 28159.01 -20680.9 28159.01 -21360.99 28839.1 M -21360.99 26299.1 -21360.99 27260.9 -20680.9 27940.99 -19719.1 27940.99 -19039.01 27260.9 -19039.01 26299.1 -19719.1 25619.01 -20680.9 25619.01 -21360.99 26299.1 M -21360.99 23759.1 -21360.99 24720.9 -20680.9 25400.99 -19719.1 25400.99 -19039.01 24720.9 -19039.01 23759.1 -19719.1 23079.01 -20680.9 23079.01 -21360.99 23759.1 M -41103.01 28603.01 -41103.01 23776.99 -24486.46 23776.99 -24394.72 23868.73 -23237.42 23868.73 -21360.99 21992.3 -21360.99 22180.9 -20680.9 22860.99 -19719.1 22860.99 -19039.01 22180.9 -19039.01 21219.1 -19701.12 20556.99 -19621.35 20556.99 -18803.01 19738.65 -18803.01 18581.35 -19621.35 17763.01 -19701.12 17763.01 -19039.01 17100.9 -19039.01 16139.1 -19719.1 15459.01 -20680.9 15459.01 -21360.99 16139.1 -21360.99 17100.9 -20698.88 17763.01 -21497.11 17763.01 -23896.99 20162.89 -23896.99 20577.02 -24302.98 20983.01 -43539.73 20983.01 -43539.73 19342.67 -41063.01 16865.95 -41063.01 13603.01 -46396.99 13603.01 -46396.99 16396.99 -44545.33 16396.99 -46333.71 18185.37 -46333.71 26888.76 -44365.48 28856.99 -43896.99 28856.99 -43896.99 31396.99 -41103.01 31396.99 -41103.01 28603.01 M -21360.99 13599.1 -21360.99 14560.9 -20680.9 15240.99 -19719.1 15240.99 -19039.01 14560.9 -19039.01 13599.1 -19719.1 12919.01 -20680.9 12919.01 -21360.99 13599.1 M -21360.99 11059.1 -21360.99 12020.9 -20680.9 12700.99 -19719.1 12700.99 -19039.01 12020.9 -19039.01 11059.1 -19719.1 10379.01 -20680.9 10379.01 -21360.99 11059.1 M 38579.49 79447.14 38579.49 78552.86 38251.14 78224.5 38896.99 77578.65 38896.99 76421.35 38251.14 75775.5 38579.49 75447.14 38579.49 74552.86 38251.14 74224.5 38896.99 73578.65 38896.99 72421.35 38251.14 71775.5 38579.49 71447.14 38579.49 70552.86 38026.63 70000 38579.49 69447.14 38579.49 68552.86 37947.14 67920.51 37052.86 67920.51 36420.51 68552.86 36420.51 69447.14 36973.37 70000 36420.51 70552.86 36420.51 71447.14 36576.38 71603.01 33646.31 71603.01 12826.31 50783.01 5698.88 50783.01 6360.99 50120.9 6360.99 49159.1 5698.88 48496.99 25062.7 48496.99 28662.7 44896.99 34076.38 44896.99 33920.51 45052.86 33920.51 45947.14 34248.86 46275.5 33603.01 46921.35 33603.01 48078.65 34421.35 48896.99 39805.01 48896.99 42297.2 46404.8 42297.2 36129.55 39362.19 33194.54 12329.82 33194.54 6360.99 39163.37 6360.99 38999.1 5680.9 38319.01 4719.1 38319.01 4039.01 38999.1 4039.01 39960.9 4701.12 40623.01 4621.35 40623.01 3803.01 41441.35 3803.01 42598.65 4621.35 43416.99 4701.12 43416.99 4039.01 44079.1 4039.01 45040.9 4701.12 45703.01 4621.35 45703.01 3803.01 46521.35 3803.01 47678.65 4621.35 48496.99 4701.12 48496.99 4039.01 49159.1 4039.01 50120.9 4701.12 50783.01 4621.35 50783.01 3803.01 51601.35 3803.01 52758.65 4621.35 53576.99 4701.12 53576.99 4039.01 54239.1 4039.01 55200.9 4664.7 55826.59 4657.77 55826.59 3803.01 56681.35 3803.01 57838.65 4621.35 58656.99 5778.65 58656.99 5815.07 58620.57 7920.28 58620.57 27696.7 78396.99 36576.38 78396.99 36420.51 78552.86 36420.51 79447.14 37052.86 80079.49 37947.14 80079.49 38579.49 79447.14 M 4039.01 36459.1 4039.01 37420.9 4719.1 38100.99 5680.9 38100.99 6360.99 37420.9 6360.99 36459.1 5680.9 35779.01 4719.1 35779.01 4039.01 36459.1 M 4039.01 33919.1 4039.01 34880.9 4719.1 35560.99 5680.9 35560.99 6360.99 34880.9 6360.99 33919.1 5680.9 33239.01 4719.1 33239.01 4039.01 33919.1 M 4039.01 31379.1 4039.01 32340.9 4719.1 33020.99 5680.9 33020.99 6360.99 32340.9 6360.99 31379.1 5680.9 30699.01 4719.1 30699.01 4039.01 31379.1 M 4039.01 28839.1 4039.01 29800.9 4719.1 30480.99 5680.9 30480.99 6360.99 29800.9 6360.99 28839.1 5680.9 28159.01 4719.1 28159.01 4039.01 28839.1 M 4039.01 26299.1 4039.01 27260.9 4719.1 27940.99 5680.9 27940.99 6360.99 27260.9 6360.99 26299.1 5680.9 25619.01 4719.1 25619.01 4039.01 26299.1 M 4039.01 23759.1 4039.01 24720.9 4719.1 25400.99 5680.9 25400.99 6360.99 24720.9 6360.99 23759.1 5680.9 23079.01 4719.1 23079.01 4039.01 23759.1 M 4039.01 21219.1 4039.01 22180.9 4719.1 22860.99 5680.9 22860.99 6360.99 22180.9 6360.99 21219.1 5680.9 20539.01 4719.1 20539.01 4039.01 21219.1 M 4039.01 18679.1 4039.01 19640.9 4719.1 20320.99 5680.9 20320.99 6360.99 19640.9 6360.99 18679.1 5680.9 17999.01 4719.1 17999.01 4039.01 18679.1 M 4039.01 16139.1 4039.01 17100.9 4719.1 17780.99 5680.9 17780.99 6360.99 17100.9 6360.99 16139.1 5680.9 15459.01 4719.1 15459.01 4039.01 16139.1 M 4039.01 13599.1 4039.01 14560.9 4719.1 15240.99 5680.9 15240.99 6360.99 14560.9 6360.99 13599.1 5680.9 12919.01 4719.1 12919.01 4039.01 13599.1 M 4039.01 11059.1 4039.01 12020.9 4719.1 12700.99 5680.9 12700.99 6360.99 12020.9 6360.99 11059.1 5680.9 10379.01 4719.1 10379.01 4039.01 11059.1 M -49012.18 78487.82 -46103.01 75578.65 -46103.01 70497.79 -47312.58 69288.22 -46103.01 68078.65 -46103.01 66921.35 -46921.35 66103.01 -48078.65 66103.01 -50239.65 68264.01 -54421.35 68264.01 -56667.51 66017.85 -56667.51 11550.1 -50292.15 5174.74 20945.92 5174.74 26660.13 10888.95 26660.13 12679.98 28007.64 14027.49 28920.51 14027.49 28920.51 14447.14 29552.86 15079.49 30447.14 15079.49 31079.49 14447.14 31079.49 13552.86 30751.14 13224.5 31396.99 12578.65 31396.99 11421.35 30751.14 10775.5 31079.49 10447.14 31079.49 9552.86 30526.63 9000 31079.49 8447.14 31079.49 7552.86 30447.14 6920.51 29552.86 6920.51 28920.51 7552.86 28920.51 8447.14 29473.37 9000 29097.92 9375.46 23247.2 3524.74 23247.2 3199.1 22266.04 2217.94 21108.74 2217.94 20945.92 2380.76 -51449.45 2380.76 -59461.49 10392.8 -59461.49 67175.15 -55578.65 71057.99 -49494.09 71057.99 -48896.99 71655.09 -48896.99 74421.35 -50578.65 76103.01 -55538.65 76103.01 -56230 76794.36 -56921.35 76103.01 -58078.65 76103.01 -58896.99 76921.35 -58896.99 78078.65 -58078.65 78896.99 -56921.35 78896.99 -56230 78205.64 -55538.65 78896.99 -49421.35 78896.99 -49012.18 78487.82 M -46512.18 58327.82 -43603.01 55418.65 -43603.01 41103.01 -48936.99 41103.01 -48936.99 43896.99 -46396.99 43896.99 -46396.99 54261.35 -48896.99 56761.35 -48896.99 57918.65 -48078.65 58736.99 -46921.35 58736.99 -46512.18 58327.82 M 36420.51 75447.14 36420.51 74552.86 36576.38 74396.99 32421.35 74396.99 31103.01 73078.65 31103.01 73010.99 11669.01 53576.99 5698.88 53576.99 6360.99 54239.1 6360.99 55200.9 5735.3 55826.59 9240.4 55826.59 10058.74 56644.93 10058.74 56807.75 28854 75603.01 36576.38 75603.01 36420.51 75447.14 M 39503.22 45247.5 39503.22 37286.85 38204.89 35988.52 13487.12 35988.52 8340.57 41135.07 8340.57 41284.51 6208.09 43416.99 5698.88 43416.99 6360.99 44079.1 6360.99 45040.9 5698.88 45703.01 23905.4 45703.01 27505.4 42103.01 34076.38 42103.01 33920.51 41947.14 33920.51 41052.86 34552.86 40420.51 35447.14 40420.51 36079.49 41052.86 36079.49 41947.14 35751.14 42275.5 36396.99 42921.35 36396.99 44078.65 35751.14 44724.5 36079.49 45052.86 36079.49 45947.14 35923.62 46103.01 38647.71 46103.01 39503.22 45247.5" fill="none" stroke-width="254"/><use xlink:href="#MIb4_r11n_ikZbdhrluz_pad-12" x="-20200" y="57260"/><use xlink:href="#MIb4_r11n_ikZbdhrluz_pad-13" x="-20200" y="54720"/><use xlink:href="#MIb4_r11n_ikZbdhrluz_pad-13" x="-20200" y="52180"/><use xlink:href="#MIb4_r11n_ikZbdhrluz_pad-13" x="-20200" y="49640"/><use xlink:href="#MIb4_r11n_ikZbdhrluz_pad-13" x="-20200" y="47100"/><use xlink:href="#MIb4_r11n_ikZbdhrluz_pad-13" x="-20200" y="44560"/><use xlink:href="#MIb4_r11n_ikZbdhrluz_pad-13" x="-20200" y="42020"/><use xlink:href="#MIb4_r11n_ikZbdhrluz_pad-13" x="-20200" y="39480"/><use xlink:href="#MIb4_r11n_ikZbdhrluz_pad-13" x="-20200" y="36940"/><use xlink:href="#MIb4_r11n_ikZbdhrluz_pad-13" x="-20200" y="34400"/><use xlink:href="#MIb4_r11n_ikZbdhrluz_pad-13" x="-20200" y="31860"/><use xlink:href="#MIb4_r11n_ikZbdhrluz_pad-13" x="-20200" y="29320"/><use xlink:href="#MIb4_r11n_ikZbdhrluz_pad-13" x="-20200" y="26780"/><use xlink:href="#MIb4_r11n_ikZbdhrluz_pad-13" x="-20200" y="24240"/><use xlink:href="#MIb4_r11n_ikZbdhrluz_pad-13" x="-20200" y="21700"/><use xlink:href="#MIb4_r11n_ikZbdhrluz_pad-13" x="-20200" y="19160"/><use xlink:href="#MIb4_r11n_ikZbdhrluz_pad-13" x="-20200" y="16620"/><use xlink:href="#MIb4_r11n_ikZbdhrluz_pad-13" x="-20200" y="14080"/><use xlink:href="#MIb4_r11n_ikZbdhrluz_pad-13" x="-20200" y="11540"/><use xlink:href="#MIb4_r11n_ikZbdhrluz_pad-13" x="5200" y="57260"/><use xlink:href="#MIb4_r11n_ikZbdhrluz_pad-13" x="5200" y="54720"/><use xlink:href="#MIb4_r11n_ikZbdhrluz_pad-13" x="5200" y="52180"/><use xlink:href="#MIb4_r11n_ikZbdhrluz_pad-13" x="5200" y="49640"/><use xlink:href="#MIb4_r11n_ikZbdhrluz_pad-13" x="5200" y="47100"/><use xlink:href="#MIb4_r11n_ikZbdhrluz_pad-13" x="5200" y="44560"/><use xlink:href="#MIb4_r11n_ikZbdhrluz_pad-13" x="5200" y="42020"/><use xlink:href="#MIb4_r11n_ikZbdhrluz_pad-13" x="5200" y="39480"/><use xlink:href="#MIb4_r11n_ikZbdhrluz_pad-13" x="5200" y="36940"/><use xlink:href="#MIb4_r11n_ikZbdhrluz_pad-13" x="5200" y="34400"/><use xlink:href="#MIb4_r11n_ikZbdhrluz_pad-13" x="5200" y="31860"/><use xlink:href="#MIb4_r11n_ikZbdhrluz_pad-13" x="5200" y="29320"/><use xlink:href="#MIb4_r11n_ikZbdhrluz_pad-13" x="5200" y="26780"/><use xlink:href="#MIb4_r11n_ikZbdhrluz_pad-13" x="5200" y="24240"/><use xlink:href="#MIb4_r11n_ikZbdhrluz_pad-13" x="5200" y="21700"/><use xlink:href="#MIb4_r11n_ikZbdhrluz_pad-13" x="5200" y="19160"/><use xlink:href="#MIb4_r11n_ikZbdhrluz_pad-13" x="5200" y="16620"/><use xlink:href="#MIb4_r11n_ikZbdhrluz_pad-13" x="5200" y="14080"/><use xlink:href="#MIb4_r11n_ikZbdhrluz_pad-13" x="5200" y="11540"/><use xlink:href="#MIb4_r11n_ikZbdhrluz_pad-14" x="30000" y="14000"/><use xlink:href="#MIb4_r11n_ikZbdhrluz_pad-14" x="30000" y="12000"/><use xlink:href="#MIb4_r11n_ikZbdhrluz_pad-14" x="30000" y="10000"/><use xlink:href="#MIb4_r11n_ikZbdhrluz_pad-14" x="30000" y="8000"/><use xlink:href="#MIb4_r11n_ikZbdhrluz_pad-14" x="35000" y="41500"/><use xlink:href="#MIb4_r11n_ikZbdhrluz_pad-14" x="35000" y="43500"/><use xlink:href="#MIb4_r11n_ikZbdhrluz_pad-14" x="35000" y="45500"/><use xlink:href="#MIb4_r11n_ikZbdhrluz_pad-14" x="35000" y="47500"/><use xlink:href="#MIb4_r11n_ikZbdhrluz_pad-15" x="-57500" y="77500"/><use xlink:href="#MIb4_r11n_ikZbdhrluz_pad-15" x="-54960" y="77500"/><use xlink:href="#MIb4_r11n_ikZbdhrluz_pad-16" x="-47540" y="42500"/><use xlink:href="#MIb4_r11n_ikZbdhrluz_pad-16" x="-45000" y="42500"/><use xlink:href="#MIb4_r11n_ikZbdhrluz_pad-17" x="-47500" y="67500"/><use xlink:href="#MIb4_r11n_ikZbdhrluz_pad-17" x="-47500" y="57340"/><use xlink:href="#MIb4_r11n_ikZbdhrluz_pad-17" x="-50000" y="77500"/><use xlink:href="#MIb4_r11n_ikZbdhrluz_pad-17" x="-39840" y="77500"/><use xlink:href="#MIb4_r11n_ikZbdhrluz_pad-14" x="37500" y="79000"/><use xlink:href="#MIb4_r11n_ikZbdhrluz_pad-14" x="37500" y="77000"/><use xlink:href="#MIb4_r11n_ikZbdhrluz_pad-14" x="37500" y="75000"/><use xlink:href="#MIb4_r11n_ikZbdhrluz_pad-14" x="37500" y="73000"/><use xlink:href="#MIb4_r11n_ikZbdhrluz_pad-14" x="37500" y="71000"/><use xlink:href="#MIb4_r11n_ikZbdhrluz_pad-14" x="37500" y="69000"/><use xlink:href="#MIb4_r11n_ikZbdhrluz_pad-16" x="-30040" y="67500"/><use xlink:href="#MIb4_r11n_ikZbdhrluz_pad-16" x="-27500" y="67500"/><use xlink:href="#MIb4_r11n_ikZbdhrluz_pad-16" x="-42500" y="30000"/><use xlink:href="#MIb4_r11n_ikZbdhrluz_pad-16" x="-42500" y="27460"/><use xlink:href="#MIb4_r11n_ikZbdhrluz_pad-16" x="-42500" y="24920"/><use xlink:href="#MIb4_r11n_ikZbdhrluz_pad-16" x="-42500" y="22380"/><use xlink:href="#MIb4_r11n_ikZbdhrluz_pad-16" x="-45000" y="15000"/><use xlink:href="#MIb4_r11n_ikZbdhrluz_pad-16" x="-42460" y="15000"/><path d="M -63109.6 0 47500 0 47500 90000 -63109.6 90000 -63109.6 0" fill="none" stroke-width="203.2"/></g></svg>