<svg version="1.1" xmlns="http://www.w3.org/2000/svg" xmlns:xlink="http://www.w3.org/1999/xlink" stroke-linecap="round" stroke-linejoin="round" stroke-width="0" fill-rule="evenodd" width="110.81280000000001mm" height="90.2032mm" viewBox="-63211.2 -101.6 110812.8 90203.2" id="ZHzOopzn-IiBJmZniOvq"><defs><polygon points="-780,780 780,780 780,-780 -780,-780" id="ZHzOopzn-IiBJmZniOvq_pad-22"/><circle cx="0" cy="0" r="390" id="ZHzOopzn-IiBJmZniOvq_pad-23"/><circle cx="0" cy="0" r="825.5" id="ZHzOopzn-IiBJmZniOvq_pad-24"/><circle cx="0" cy="0" r="1143" id="ZHzOopzn-IiBJmZniOvq_pad-25"/><polygon points="-1016,1143 1016,1143 1041.97,1140.47 1065.98,1133.2 1087.58,1121.65 1106.29,1106.29 1121.65,1087.57 1133.2,1065.98 1140.47,1041.97 1143,1016 1143,-1016 1140.47,-1041.97 1133.2,-1065.98 1121.65,-1087.57 1106.29,-1106.29 1087.58,-1121.65 1065.98,-1133.2 1041.97,-1140.47 1016,-1143 -1016,-1143 -1041.97,-1140.47 -1065.98,-1133.2 -1087.58,-1121.65 -1106.29,-1106.29 -1121.65,-1087.57 -1133.2,-1065.98 -1140.47,-1041.97 -1143,-1016 -1143,1016 -1140.47,1041.97 -1133.2,1065.98 -1121.65,1087.57 -1106.29,1106.29 -1087.58,1121.65 -1065.98,1133.2 -1041.97,1140.47" id="ZHzOopzn-IiBJmZniOvq_pad-26"/><circle cx="0" cy="0" r="1016" id="ZHzOopzn-IiBJmZniOvq_pad-27"/><polygon points="1143,1016 1143,-1016 1140.47,-1041.97 1133.2,-1065.98 1121.65,-1087.58 1106.29,-1106.29 1087.57,-1121.65 1065.98,-1133.2 1041.97,-1140.47 1016,-1143 -1016,-1143 -1041.97,-1140.47 -1065.98,-1133.2 -1087.57,-1121.65 -1106.29,-1106.29 -1121.65,-1087.58 -1133.2,-1065.98 -1140.47,-1041.97 -1143,-1016 -1143,1016 -1140.47,1041.97 -1133.2,1065.98 -1121.65,1087.58 -1106.29,1106.29 -1087.57,1121.65 -1065.98,1133.2 -1041.97,1140.47 -1016,1143 1016,1143 1041.97,1140.47 1065.98,1133.2 1087.57,1121.65 1106.29,1106.29 1121.65,1087.58 1133.2,1065.98 1140.47,1041.97" id="ZHzOopzn-IiBJmZniOvq_pad-28"/></defs><g transform="translate(0,90000) scale(1,-1)" fill="currentColor" stroke="currentColor"><use xlink:href="#ZHzOopzn-IiBJmZniOvq_pad-22" x="-20200" y="57260"/><use xlink:href="#ZHzOopzn-IiBJmZniOvq_pad-23" x="-20200" y="54720"/><use xlink:href="#ZHzOopzn-IiBJmZniOvq_pad-23" x="-20200" y="52180"/><use xlink:href="#ZHzOopzn-IiBJmZniOvq_pad-23" x="-20200" y="49640"/><use xlink:href="#ZHzOopzn-IiBJmZniOvq_pad-23" x="-20200" y="47100"/><use xlink:href="#ZHzOopzn-IiBJmZniOvq_pad-23" x="-20200" y="44560"/><use xlink:href="#ZHzOopzn-IiBJmZniOvq_pad-23" x="-20200" y="42020"/><use xlink:href="#ZHzOopzn-IiBJmZniOvq_pad-23" x="-20200" y="39480"/><use xlink:href="#ZHzOopzn-IiBJmZniOvq_pad-23" x="-20200" y="36940"/><use xlink:href="#ZHzOopzn-IiBJmZniOvq_pad-23" x="-20200" y="34400"/><use xlink:href="#ZHzOopzn-IiBJmZniOvq_pad-23" x="-20200" y="31860"/><use xlink:href="#ZHzOopzn-IiBJmZniOvq_pad-23" x="-20200" y="29320"/><use xlink:href="#ZHzOopzn-IiBJmZniOvq_pad-23" x="-20200" y="26780"/><use xlink:href="#ZHzOopzn-IiBJmZniOvq_pad-23" x="-20200" y="24240"/><use xlink:href="#ZHzOopzn-IiBJmZniOvq_pad-23" x="-20200" y="21700"/><use xlink:href="#ZHzOopzn-IiBJmZniOvq_pad-23" x="-20200" y="19160"/><use xlink:href="#ZHzOopzn-IiBJmZniOvq_pad-23" x="-20200" y="16620"/><use xlink:href="#ZHzOopzn-IiBJmZniOvq_pad-23" x="-20200" y="14080"/><use xlink:href="#ZHzOopzn-IiBJmZniOvq_pad-23" x="-20200" y="11540"/><use xlink:href="#ZHzOopzn-IiBJmZniOvq_pad-23" x="5200" y="57260"/><use xlink:href="#ZHzOopzn-IiBJmZniOvq_pad-23" x="5200" y="54720"/><use xlink:href="#ZHzOopzn-IiBJmZniOvq_pad-23" x="5200" y="52180"/><use xlink:href="#ZHzOopzn-IiBJmZniOvq_pad-23" x="5200" y="49640"/><use xlink:href="#ZHzOopzn-IiBJmZniOvq_pad-23" x="5200" y="47100"/><use xlink:href="#ZHzOopzn-IiBJmZniOvq_pad-23" x="5200" y="44560"/><use xlink:href="#ZHzOopzn-IiBJmZniOvq_pad-23" x="5200" y="42020"/><use xlink:href="#ZHzOopzn-IiBJmZniOvq_pad-23" x="5200" y="39480"/><use xlink:href="#ZHzOopzn-IiBJmZniOvq_pad-23" x="5200" y="36940"/><use xlink:href="#ZHzOopzn-IiBJmZniOvq_pad-23" x="5200" y="34400"/><use xlink:href="#ZHzOopzn-IiBJmZniOvq_pad-23" x="5200" y="31860"/><use xlink:href="#ZHzOopzn-IiBJmZniOvq_pad-23" x="5200" y="29320"/><use xlink:href="#ZHzOopzn-IiBJmZniOvq_pad-23" x="5200" y="26780"/><use xlink:href="#ZHzOopzn-IiBJmZniOvq_pad-23" x="5200" y="24240"/><use xlink:href="#ZHzOopzn-IiBJmZniOvq_pad-23" x="5200" y="21700"/><use xlink:href="#ZHzOopzn-IiBJmZniOvq_pad-23" x="5200" y="19160"/><use xlink:href="#ZHzOopzn-IiBJmZniOvq_pad-23" x="5200" y="16620"/><use xlink:href="#ZHzOopzn-IiBJmZniOvq_pad-23" x="5200" y="14080"/><use xlink:href="#ZHzOopzn-IiBJmZniOvq_pad-23" x="5200" y="11540"/><use xlink:href="#ZHzOopzn-IiBJmZniOvq_pad-24" x="30000" y="14000"/><use xlink:href="#ZHzOopzn-IiBJmZniOvq_pad-24" x="30000" y="12000"/><use xlink:href="#ZHzOopzn-IiBJmZniOvq_pad-24" x="30000" y="10000"/><use xlink:href="#ZHzOopzn-IiBJmZniOvq_pad-24" x="30000" y="8000"/><use xlink:href="#ZHzOopzn-IiBJmZniOvq_pad-24" x="35000" y="41500"/><use xlink:href="#ZHzOopzn-IiBJmZniOvq_pad-24" x="35000" y="43500"/><use xlink:href="#ZHzOopzn-IiBJmZniOvq_pad-24" x="35000" y="45500"/><use xlink:href="#ZHzOopzn-IiBJmZniOvq_pad-24" x="35000" y="47500"/><use xlink:href="#ZHzOopzn-IiBJmZniOvq_pad-25" x="-57500" y="77500"/><use xlink:href="#ZHzOopzn-IiBJmZniOvq_pad-25" x="-54960" y="77500"/><use xlink:href="#ZHzOopzn-IiBJmZniOvq_pad-26" x="-47540" y="42500"/><use xlink:href="#ZHzOopzn-IiBJmZniOvq_pad-26" x="-45000" y="42500"/><use xlink:href="#ZHzOopzn-IiBJmZniOvq_pad-27" x="-47500" y="67500"/><use xlink:href="#ZHzOopzn-IiBJmZniOvq_pad-27" x="-47500" y="57340"/><use xlink:href="#ZHzOopzn-IiBJmZniOvq_pad-27" x="-50000" y="77500"/><use xlink:href="#ZHzOopzn-IiBJmZniOvq_pad-27" x="-39840" y="77500"/><use xlink:href="#ZHzOopzn-IiBJmZniOvq_pad-24" x="37500" y="79000"/><use xlink:href="#ZHzOopzn-IiBJmZniOvq_pad-24" x="37500" y="77000"/><use xlink:href="#ZHzOopzn-IiBJmZniOvq_pad-24" x="37500" y="75000"/><use xlink:href="#ZHzOopzn-IiBJmZniOvq_pad-24" x="37500" y="73000"/><use xlink:href="#ZHzOopzn-IiBJmZniOvq_pad-24" x="37500" y="71000"/><use xlink:href="#ZHzOopzn-IiBJmZniOvq_pad-24" x="37500" y="69000"/><use xlink:href="#ZHzOopzn-IiBJmZniOvq_pad-26" x="-30040" y="67500"/><use xlink:href="#ZHzOopzn-IiBJmZniOvq_pad-26" x="-27500" y="67500"/><use xlink:href="#ZHzOopzn-IiBJmZniOvq_pad-28" x="-42500" y="30000"/><use xlink:href="#ZHzOopzn-IiBJmZniOvq_pad-28" x="-42500" y="27460"/><use xlink:href="#ZHzOopzn-IiBJmZniOvq_pad-28" x="-42500" y="24920"/><use xlink:href="#ZHzOopzn-IiBJmZniOvq_pad-28" x="-42500" y="22380"/><use xlink:href="#ZHzOopzn-IiBJmZniOvq_pad-26" x="-45000" y="15000"/><use xlink:href="#ZHzOopzn-IiBJmZniOvq_pad-26" x="-42460" y="15000"/><path d="M -63109.6 0 47500 0 47500 90000 -63109.6 90000 -63109.6 0" fill="none" stroke-width="203.2"/></g></svg>