<svg version="1.1" xmlns="http://www.w3.org/2000/svg" xmlns:xlink="http://www.w3.org/1999/xlink" stroke-linecap="round" stroke-linejoin="round" stroke-width="0" fill-rule="evenodd" clip-rule="evenodd" id="yhS3nz4x-cL2NselDkAJ_bottom" viewBox="-57500 0 97500 85000" width="97.5mm" height="85mm" class="w-100 h-100"><defs><style>.yhS3nz4x-cL2NselDkAJ_fr4 {color: #666666;}
.yhS3nz4x-cL2NselDkAJ_cu {color: #cccccc;}
.yhS3nz4x-cL2NselDkAJ_cf {color: #cc9933;}
.yhS3nz4x-cL2NselDkAJ_sm {color: #004200; opacity: 0.75;}
.yhS3nz4x-cL2NselDkAJ_ss {color: #ffffff;}
.yhS3nz4x-cL2NselDkAJ_sp {color: #999999;}
.yhS3nz4x-cL2NselDkAJ_out {color: #000000;}</style><rect x="-780" y="-780" width="1560" height="1560" id="Ku_DxGxHmDq8elWRC-NM_pad-12"/><circle cx="0" cy="0" r="780" id="Ku_DxGxHmDq8elWRC-NM_pad-13"/><circle cx="0" cy="0" r="698.5" id="Ku_DxGxHmDq8elWRC-NM_pad-14"/><rect x="-1016" y="-1016" width="2032" height="2032" id="Ku_DxGxHmDq8elWRC-NM_pad-15"/><polygon points="-780,780 780,780 780,-780 -780,-780" id="xO_NFyZFi59ktVqUb2YM_pad-20"/><circle cx="0" cy="0" r="390" id="xO_NFyZFi59ktVqUb2YM_pad-21"/><circle cx="0" cy="0" r="825.5" id="xO_NFyZFi59ktVqUb2YM_pad-22"/><polygon points="-1143,-1016 -1143,1016 -1140.47,1041.97 -1133.2,1065.98 -1121.65,1087.58 -1106.29,1106.29 -1087.57,1121.65 -1065.98,1133.2 -1041.97,1140.47 -1016,1143 1016,1143 1041.97,1140.47 1065.98,1133.2 1087.57,1121.65 1106.29,1106.29 1121.65,1087.58 1133.2,1065.98 1140.47,1041.97 1143,1016 1143,-1016 1140.47,-1041.97 1133.2,-1065.98 1121.65,-1087.58 1106.29,-1106.29 1087.57,-1121.65 1065.98,-1133.2 1041.97,-1140.47 1016,-1143 -1016,-1143 -1041.97,-1140.47 -1065.98,-1133.2 -1087.57,-1121.65 -1106.29,-1106.29 -1121.65,-1087.58 -1133.2,-1065.98 -1140.47,-1041.97" id="xO_NFyZFi59ktVqUb2YM_pad-23"/><polygon points="-1016,1143 1016,1143 1041.97,1140.47 1065.98,1133.2 1087.58,1121.65 1106.29,1106.29 1121.65,1087.57 1133.2,1065.98 1140.47,1041.97 1143,1016 1143,-1016 1140.47,-1041.97 1133.2,-1065.98 1121.65,-1087.57 1106.29,-1106.29 1087.58,-1121.65 1065.98,-1133.2 1041.97,-1140.47 1016,-1143 -1016,-1143 -1041.97,-1140.47 -1065.98,-1133.2 -1087.58,-1121.65 -1106.29,-1106.29 -1121.65,-1087.57 -1133.2,-1065.98 -1140.47,-1041.97 -1143,-1016 -1143,1016 -1140.47,1041.97 -1133.2,1065.98 -1121.65,1087.57 -1106.29,1106.29 -1087.58,1121.65 -1065.98,1133.2 -1041.97,1140.47" id="xO_NFyZFi59ktVqUb2YM_pad-24"/><g id="yhS3nz4x-cL2NselDkAJ_bottom_copper"><path d="M 35000 35000 35000 70416.66 26853.33 78563.33 2760.7 78563.33 2760.03 78563.33 -9936.67 78563.33 -10000 78500 M 35000 28815.06 35000 35000 M 25000 34000 25000 30000 27500 27500 30000 25000 35000 25000 M -20200 11540 -12293.34 3633.34 -4755.55 3633.34 23633.34 3633.34 35000 15000 35000 25000 35000 28815.06 M 25000 38000 22805.83 38000 10992.43 49813.4 5373.4 49813.4 5200 49640 M -42500 72500 -22200 72500 -21800 72100 -15200 78700 -14600 78700 -10200 78700 -10000 78500 M -10000 74500 5809.8 74500 11530 68779.8 11530 61058.2 11733.2 60855 5598.2 54720 5200 54720 M -47500 15000 -47500 33727.4 -47194.8 34032.6 -41302 39925.4 -41302 40128.6 -37628.6 40128.6 -37500 40000 M -37500 34920 -31626.79 34920 -30601.94 33895.15 -26255.42 29548.63 -26255.42 29141.14 -26255.42 23028.83 -26662.9 22621.35 -20661.55 16620 -20200 16620" fill="none" stroke-width="2032"/><use xlink:href="#Ku_DxGxHmDq8elWRC-NM_pad-12" x="-20200" y="57260"/><use xlink:href="#Ku_DxGxHmDq8elWRC-NM_pad-13" x="-20200" y="54720"/><use xlink:href="#Ku_DxGxHmDq8elWRC-NM_pad-13" x="-20200" y="52180"/><use xlink:href="#Ku_DxGxHmDq8elWRC-NM_pad-13" x="-20200" y="49640"/><use xlink:href="#Ku_DxGxHmDq8elWRC-NM_pad-13" x="-20200" y="47100"/><use xlink:href="#Ku_DxGxHmDq8elWRC-NM_pad-13" x="-20200" y="44560"/><use xlink:href="#Ku_DxGxHmDq8elWRC-NM_pad-13" x="-20200" y="42020"/><use xlink:href="#Ku_DxGxHmDq8elWRC-NM_pad-13" x="-20200" y="39480"/><use xlink:href="#Ku_DxGxHmDq8elWRC-NM_pad-13" x="-20200" y="36940"/><use xlink:href="#Ku_DxGxHmDq8elWRC-NM_pad-13" x="-20200" y="34400"/><use xlink:href="#Ku_DxGxHmDq8elWRC-NM_pad-13" x="-20200" y="31860"/><use xlink:href="#Ku_DxGxHmDq8elWRC-NM_pad-13" x="-20200" y="29320"/><use xlink:href="#Ku_DxGxHmDq8elWRC-NM_pad-13" x="-20200" y="26780"/><use xlink:href="#Ku_DxGxHmDq8elWRC-NM_pad-13" x="-20200" y="24240"/><use xlink:href="#Ku_DxGxHmDq8elWRC-NM_pad-13" x="-20200" y="21700"/><use xlink:href="#Ku_DxGxHmDq8elWRC-NM_pad-13" x="-20200" y="19160"/><use xlink:href="#Ku_DxGxHmDq8elWRC-NM_pad-13" x="-20200" y="16620"/><use xlink:href="#Ku_DxGxHmDq8elWRC-NM_pad-13" x="-20200" y="14080"/><use xlink:href="#Ku_DxGxHmDq8elWRC-NM_pad-13" x="-20200" y="11540"/><use xlink:href="#Ku_DxGxHmDq8elWRC-NM_pad-13" x="5200" y="57260"/><use xlink:href="#Ku_DxGxHmDq8elWRC-NM_pad-13" x="5200" y="54720"/><use xlink:href="#Ku_DxGxHmDq8elWRC-NM_pad-13" x="5200" y="52180"/><use xlink:href="#Ku_DxGxHmDq8elWRC-NM_pad-13" x="5200" y="49640"/><use xlink:href="#Ku_DxGxHmDq8elWRC-NM_pad-13" x="5200" y="47100"/><use xlink:href="#Ku_DxGxHmDq8elWRC-NM_pad-13" x="5200" y="44560"/><use xlink:href="#Ku_DxGxHmDq8elWRC-NM_pad-13" x="5200" y="42020"/><use xlink:href="#Ku_DxGxHmDq8elWRC-NM_pad-13" x="5200" y="39480"/><use xlink:href="#Ku_DxGxHmDq8elWRC-NM_pad-13" x="5200" y="36940"/><use xlink:href="#Ku_DxGxHmDq8elWRC-NM_pad-13" x="5200" y="34400"/><use xlink:href="#Ku_DxGxHmDq8elWRC-NM_pad-13" x="5200" y="31860"/><use xlink:href="#Ku_DxGxHmDq8elWRC-NM_pad-13" x="5200" y="29320"/><use xlink:href="#Ku_DxGxHmDq8elWRC-NM_pad-13" x="5200" y="26780"/><use xlink:href="#Ku_DxGxHmDq8elWRC-NM_pad-13" x="5200" y="24240"/><use xlink:href="#Ku_DxGxHmDq8elWRC-NM_pad-13" x="5200" y="21700"/><use xlink:href="#Ku_DxGxHmDq8elWRC-NM_pad-13" x="5200" y="19160"/><use xlink:href="#Ku_DxGxHmDq8elWRC-NM_pad-13" x="5200" y="16620"/><use xlink:href="#Ku_DxGxHmDq8elWRC-NM_pad-13" x="5200" y="14080"/><use xlink:href="#Ku_DxGxHmDq8elWRC-NM_pad-13" x="5200" y="11540"/><use xlink:href="#Ku_DxGxHmDq8elWRC-NM_pad-14" x="-10000" y="78500"/><use xlink:href="#Ku_DxGxHmDq8elWRC-NM_pad-14" x="-10000" y="76500"/><use xlink:href="#Ku_DxGxHmDq8elWRC-NM_pad-14" x="-10000" y="74500"/><use xlink:href="#Ku_DxGxHmDq8elWRC-NM_pad-14" x="-10000" y="72500"/><use xlink:href="#Ku_DxGxHmDq8elWRC-NM_pad-14" x="25000" y="34000"/><use xlink:href="#Ku_DxGxHmDq8elWRC-NM_pad-14" x="25000" y="36000"/><use xlink:href="#Ku_DxGxHmDq8elWRC-NM_pad-14" x="25000" y="38000"/><use xlink:href="#Ku_DxGxHmDq8elWRC-NM_pad-14" x="25000" y="40000"/><use xlink:href="#Ku_DxGxHmDq8elWRC-NM_pad-15" x="-42500" y="72500"/><use xlink:href="#Ku_DxGxHmDq8elWRC-NM_pad-15" x="-42500" y="75040"/><use xlink:href="#Ku_DxGxHmDq8elWRC-NM_pad-15" x="-37500" y="40000"/><use xlink:href="#Ku_DxGxHmDq8elWRC-NM_pad-15" x="-37500" y="37460"/><use xlink:href="#Ku_DxGxHmDq8elWRC-NM_pad-15" x="-37500" y="34920"/><use xlink:href="#Ku_DxGxHmDq8elWRC-NM_pad-15" x="-37500" y="32380"/><use xlink:href="#Ku_DxGxHmDq8elWRC-NM_pad-15" x="-47500" y="15000"/><use xlink:href="#Ku_DxGxHmDq8elWRC-NM_pad-15" x="-44960" y="15000"/><path d="M -57500 0 40000 0 40000 85000 -57500 85000 -57500 0" fill="none" stroke-width="203.2"/></g><g id="yhS3nz4x-cL2NselDkAJ_bottom_soldermask"><use xlink:href="#xO_NFyZFi59ktVqUb2YM_pad-20" x="-20200" y="57260"/><use xlink:href="#xO_NFyZFi59ktVqUb2YM_pad-21" x="-20200" y="54720"/><use xlink:href="#xO_NFyZFi59ktVqUb2YM_pad-21" x="-20200" y="52180"/><use xlink:href="#xO_NFyZFi59ktVqUb2YM_pad-21" x="-20200" y="49640"/><use xlink:href="#xO_NFyZFi59ktVqUb2YM_pad-21" x="-20200" y="47100"/><use xlink:href="#xO_NFyZFi59ktVqUb2YM_pad-21" x="-20200" y="44560"/><use xlink:href="#xO_NFyZFi59ktVqUb2YM_pad-21" x="-20200" y="42020"/><use xlink:href="#xO_NFyZFi59ktVqUb2YM_pad-21" x="-20200" y="39480"/><use xlink:href="#xO_NFyZFi59ktVqUb2YM_pad-21" x="-20200" y="36940"/><use xlink:href="#xO_NFyZFi59ktVqUb2YM_pad-21" x="-20200" y="34400"/><use xlink:href="#xO_NFyZFi59ktVqUb2YM_pad-21" x="-20200" y="31860"/><use xlink:href="#xO_NFyZFi59ktVqUb2YM_pad-21" x="-20200" y="29320"/><use xlink:href="#xO_NFyZFi59ktVqUb2YM_pad-21" x="-20200" y="26780"/><use xlink:href="#xO_NFyZFi59ktVqUb2YM_pad-21" x="-20200" y="24240"/><use xlink:href="#xO_NFyZFi59ktVqUb2YM_pad-21" x="-20200" y="21700"/><use xlink:href="#xO_NFyZFi59ktVqUb2YM_pad-21" x="-20200" y="19160"/><use xlink:href="#xO_NFyZFi59ktVqUb2YM_pad-21" x="-20200" y="16620"/><use xlink:href="#xO_NFyZFi59ktVqUb2YM_pad-21" x="-20200" y="14080"/><use xlink:href="#xO_NFyZFi59ktVqUb2YM_pad-21" x="-20200" y="11540"/><use xlink:href="#xO_NFyZFi59ktVqUb2YM_pad-21" x="5200" y="57260"/><use xlink:href="#xO_NFyZFi59ktVqUb2YM_pad-21" x="5200" y="54720"/><use xlink:href="#xO_NFyZFi59ktVqUb2YM_pad-21" x="5200" y="52180"/><use xlink:href="#xO_NFyZFi59ktVqUb2YM_pad-21" x="5200" y="49640"/><use xlink:href="#xO_NFyZFi59ktVqUb2YM_pad-21" x="5200" y="47100"/><use xlink:href="#xO_NFyZFi59ktVqUb2YM_pad-21" x="5200" y="44560"/><use xlink:href="#xO_NFyZFi59ktVqUb2YM_pad-21" x="5200" y="42020"/><use xlink:href="#xO_NFyZFi59ktVqUb2YM_pad-21" x="5200" y="39480"/><use xlink:href="#xO_NFyZFi59ktVqUb2YM_pad-21" x="5200" y="36940"/><use xlink:href="#xO_NFyZFi59ktVqUb2YM_pad-21" x="5200" y="34400"/><use xlink:href="#xO_NFyZFi59ktVqUb2YM_pad-21" x="5200" y="31860"/><use xlink:href="#xO_NFyZFi59ktVqUb2YM_pad-21" x="5200" y="29320"/><use xlink:href="#xO_NFyZFi59ktVqUb2YM_pad-21" x="5200" y="26780"/><use xlink:href="#xO_NFyZFi59ktVqUb2YM_pad-21" x="5200" y="24240"/><use xlink:href="#xO_NFyZFi59ktVqUb2YM_pad-21" x="5200" y="21700"/><use xlink:href="#xO_NFyZFi59ktVqUb2YM_pad-21" x="5200" y="19160"/><use xlink:href="#xO_NFyZFi59ktVqUb2YM_pad-21" x="5200" y="16620"/><use xlink:href="#xO_NFyZFi59ktVqUb2YM_pad-21" x="5200" y="14080"/><use xlink:href="#xO_NFyZFi59ktVqUb2YM_pad-21" x="5200" y="11540"/><use xlink:href="#xO_NFyZFi59ktVqUb2YM_pad-22" x="-10000" y="78500"/><use xlink:href="#xO_NFyZFi59ktVqUb2YM_pad-22" x="-10000" y="76500"/><use xlink:href="#xO_NFyZFi59ktVqUb2YM_pad-22" x="-10000" y="74500"/><use xlink:href="#xO_NFyZFi59ktVqUb2YM_pad-22" x="-10000" y="72500"/><use xlink:href="#xO_NFyZFi59ktVqUb2YM_pad-22" x="25000" y="34000"/><use xlink:href="#xO_NFyZFi59ktVqUb2YM_pad-22" x="25000" y="36000"/><use xlink:href="#xO_NFyZFi59ktVqUb2YM_pad-22" x="25000" y="38000"/><use xlink:href="#xO_NFyZFi59ktVqUb2YM_pad-22" x="25000" y="40000"/><use xlink:href="#xO_NFyZFi59ktVqUb2YM_pad-23" x="-42500" y="72500"/><use xlink:href="#xO_NFyZFi59ktVqUb2YM_pad-23" x="-42500" y="75040"/><use xlink:href="#xO_NFyZFi59ktVqUb2YM_pad-23" x="-37500" y="40000"/><use xlink:href="#xO_NFyZFi59ktVqUb2YM_pad-23" x="-37500" y="37460"/><use xlink:href="#xO_NFyZFi59ktVqUb2YM_pad-23" x="-37500" y="34920"/><use xlink:href="#xO_NFyZFi59ktVqUb2YM_pad-23" x="-37500" y="32380"/><use xlink:href="#xO_NFyZFi59ktVqUb2YM_pad-24" x="-47500" y="15000"/><use xlink:href="#xO_NFyZFi59ktVqUb2YM_pad-24" x="-44960" y="15000"/><path d="M -57500 0 40000 0 40000 85000 -57500 85000 -57500 0" fill="none" stroke-width="203.2"/></g><clipPath id="yhS3nz4x-cL2NselDkAJ_bottom_outline"><path d="M -57500 0 40000 0 40000 85000 -57500 85000 -57500 0" fill="none" stroke-width="203.2"/></clipPath><mask id="yhS3nz4x-cL2NselDkAJ_bottom_mech-mask"><g fill="#000" stroke="#000"><rect x="-57500" y="0" width="97500" height="85000" fill="#fff"/></g></mask><mask id="yhS3nz4x-cL2NselDkAJ_bottom_cf-mask"><g fill="#fff" stroke="#fff"><use xlink:href="#yhS3nz4x-cL2NselDkAJ_bottom_soldermask"/></g></mask><mask id="yhS3nz4x-cL2NselDkAJ_bottom_sm-mask"><g fill="#000" stroke="#000"><rect x="-57500" y="0" width="97500" height="85000" fill="#fff"/><use xlink:href="#yhS3nz4x-cL2NselDkAJ_bottom_soldermask"/></g></mask></defs><g transform="translate(0,85000) scale(1,-1)"><g mask="url(#yhS3nz4x-cL2NselDkAJ_bottom_mech-mask)" clip-path="url(#yhS3nz4x-cL2NselDkAJ_bottom_outline)" transform="translate(-17500,0) scale(-1,1)"><rect x="-57500" y="0" width="97500" height="85000" fill="currentColor" class="yhS3nz4x-cL2NselDkAJ_fr4"/><use xlink:href="#yhS3nz4x-cL2NselDkAJ_bottom_copper" fill="currentColor" stroke="currentColor" class="yhS3nz4x-cL2NselDkAJ_cu"/><use xlink:href="#yhS3nz4x-cL2NselDkAJ_bottom_copper" fill="currentColor" stroke="currentColor" class="yhS3nz4x-cL2NselDkAJ_cf" mask="url(#yhS3nz4x-cL2NselDkAJ_bottom_cf-mask)"/><g mask="url(#yhS3nz4x-cL2NselDkAJ_bottom_sm-mask)"><rect x="-57500" y="0" width="97500" height="85000" fill="currentColor" class="yhS3nz4x-cL2NselDkAJ_sm"/></g></g></g></svg>