<svg version="1.1" xmlns="http://www.w3.org/2000/svg" xmlns:xlink="http://www.w3.org/1999/xlink" stroke-linecap="round" stroke-linejoin="round" stroke-width="0" fill-rule="evenodd" width="73.4144mm" height="67.8744mm" viewBox="-48008 11032 73414.4 67874.4" id="jXWgBKb-ScubzY56YdPw"><defs><circle cx="0" cy="0" r="508" id="jXWgBKb-ScubzY56YdPw_pad-35"/><circle cx="0" cy="0" r="406.4" id="jXWgBKb-ScubzY56YdPw_pad-36"/></defs><g transform="translate(0,89938.4) scale(1,-1)" fill="currentColor" stroke="currentColor"><use xlink:href="#jXWgBKb-ScubzY56YdPw_pad-35" x="-20200" y="57260"/><use xlink:href="#jXWgBKb-ScubzY56YdPw_pad-35" x="-20200" y="54720"/><use xlink:href="#jXWgBKb-ScubzY56YdPw_pad-35" x="-20200" y="52180"/><use xlink:href="#jXWgBKb-ScubzY56YdPw_pad-35" x="-20200" y="49640"/><use xlink:href="#jXWgBKb-ScubzY56YdPw_pad-35" x="-20200" y="47100"/><use xlink:href="#jXWgBKb-ScubzY56YdPw_pad-35" x="-20200" y="44560"/><use xlink:href="#jXWgBKb-ScubzY56YdPw_pad-35" x="-20200" y="42020"/><use xlink:href="#jXWgBKb-ScubzY56YdPw_pad-35" x="-20200" y="39480"/><use xlink:href="#jXWgBKb-ScubzY56YdPw_pad-35" x="-20200" y="36940"/><use xlink:href="#jXWgBKb-ScubzY56YdPw_pad-35" x="-20200" y="34400"/><use xlink:href="#jXWgBKb-ScubzY56YdPw_pad-35" x="-20200" y="31860"/><use xlink:href="#jXWgBKb-ScubzY56YdPw_pad-35" x="-20200" y="29320"/><use xlink:href="#jXWgBKb-ScubzY56YdPw_pad-35" x="-20200" y="26780"/><use xlink:href="#jXWgBKb-ScubzY56YdPw_pad-35" x="-20200" y="24240"/><use xlink:href="#jXWgBKb-ScubzY56YdPw_pad-35" x="-20200" y="21700"/><use xlink:href="#jXWgBKb-ScubzY56YdPw_pad-35" x="-20200" y="19160"/><use xlink:href="#jXWgBKb-ScubzY56YdPw_pad-35" x="-20200" y="16620"/><use xlink:href="#jXWgBKb-ScubzY56YdPw_pad-35" x="-20200" y="14080"/><use xlink:href="#jXWgBKb-ScubzY56YdPw_pad-35" x="-20200" y="11540"/><use xlink:href="#jXWgBKb-ScubzY56YdPw_pad-35" x="5200" y="57260"/><use xlink:href="#jXWgBKb-ScubzY56YdPw_pad-35" x="5200" y="54720"/><use xlink:href="#jXWgBKb-ScubzY56YdPw_pad-35" x="5200" y="52180"/><use xlink:href="#jXWgBKb-ScubzY56YdPw_pad-35" x="5200" y="49640"/><use xlink:href="#jXWgBKb-ScubzY56YdPw_pad-35" x="5200" y="47100"/><use xlink:href="#jXWgBKb-ScubzY56YdPw_pad-35" x="5200" y="44560"/><use xlink:href="#jXWgBKb-ScubzY56YdPw_pad-35" x="5200" y="42020"/><use xlink:href="#jXWgBKb-ScubzY56YdPw_pad-35" x="5200" y="39480"/><use xlink:href="#jXWgBKb-ScubzY56YdPw_pad-35" x="5200" y="36940"/><use xlink:href="#jXWgBKb-ScubzY56YdPw_pad-35" x="5200" y="34400"/><use xlink:href="#jXWgBKb-ScubzY56YdPw_pad-35" x="5200" y="31860"/><use xlink:href="#jXWgBKb-ScubzY56YdPw_pad-35" x="5200" y="29320"/><use xlink:href="#jXWgBKb-ScubzY56YdPw_pad-35" x="5200" y="26780"/><use xlink:href="#jXWgBKb-ScubzY56YdPw_pad-35" x="5200" y="24240"/><use xlink:href="#jXWgBKb-ScubzY56YdPw_pad-35" x="5200" y="21700"/><use xlink:href="#jXWgBKb-ScubzY56YdPw_pad-35" x="5200" y="19160"/><use xlink:href="#jXWgBKb-ScubzY56YdPw_pad-35" x="5200" y="16620"/><use xlink:href="#jXWgBKb-ScubzY56YdPw_pad-35" x="5200" y="14080"/><use xlink:href="#jXWgBKb-ScubzY56YdPw_pad-35" x="5200" y="11540"/><use xlink:href="#jXWgBKb-ScubzY56YdPw_pad-36" x="-10000" y="78500"/><use xlink:href="#jXWgBKb-ScubzY56YdPw_pad-36" x="-10000" y="76500"/><use xlink:href="#jXWgBKb-ScubzY56YdPw_pad-36" x="-10000" y="74500"/><use xlink:href="#jXWgBKb-ScubzY56YdPw_pad-36" x="-10000" y="72500"/><use xlink:href="#jXWgBKb-ScubzY56YdPw_pad-36" x="25000" y="34000"/><use xlink:href="#jXWgBKb-ScubzY56YdPw_pad-36" x="25000" y="36000"/><use xlink:href="#jXWgBKb-ScubzY56YdPw_pad-36" x="25000" y="38000"/><use xlink:href="#jXWgBKb-ScubzY56YdPw_pad-36" x="25000" y="40000"/><use xlink:href="#jXWgBKb-ScubzY56YdPw_pad-35" x="-42500" y="72500"/><use xlink:href="#jXWgBKb-ScubzY56YdPw_pad-35" x="-42500" y="75040"/><use xlink:href="#jXWgBKb-ScubzY56YdPw_pad-35" x="-37500" y="40000"/><use xlink:href="#jXWgBKb-ScubzY56YdPw_pad-35" x="-37500" y="37460"/><use xlink:href="#jXWgBKb-ScubzY56YdPw_pad-35" x="-37500" y="34920"/><use xlink:href="#jXWgBKb-ScubzY56YdPw_pad-35" x="-37500" y="32380"/><use xlink:href="#jXWgBKb-ScubzY56YdPw_pad-35" x="-47500" y="15000"/><use xlink:href="#jXWgBKb-ScubzY56YdPw_pad-35" x="-44960" y="15000"/></g></svg>