<svg version="1.1" xmlns="http://www.w3.org/2000/svg" xmlns:xlink="http://www.w3.org/1999/xlink" stroke-linecap="round" stroke-linejoin="round" stroke-width="0" fill-rule="evenodd" width="97.7032mm" height="85.2032mm" viewBox="-57601.6 -101.6 97703.2 85203.2" id="Edto7fUpq_o-VYvp3SdY"><g transform="translate(0,85000) scale(1,-1)" fill="currentColor" stroke="currentColor"><path d="M -21700 64900 6700 64900 6700 10000 -21700 10000 -21700 64900" fill="none" stroke-width="50"/><path d="M -20200 57260 -20200 57260" fill="none" stroke-width="624"/><path d="M -4752.5 24628.34 -4752.5 19133.35 -10247.5 19133.35 -10247.5 24628.34 M -7500 19133.35 -7500 22796.68 M -5668.33 26460.01 -4752.5 27375.84 -4752.5 31039.17 -5668.33 31955 -6584.17 31955 -7500 31039.17 -7500 27375.84 -8415.83 26460.01 -9331.67 26460.01 -10247.5 27375.84 -10247.5 31039.17 -9331.67 31955 M -4752.5 33786.67 -10247.5 33786.67 -10247.5 38365.83 -9331.67 39281.66 -8415.83 39281.66 -7500 38365.83 -7500 33786.67 M -9331.67 42029.16 -10247.5 42944.99 -10247.5 45692.49 -9331.67 46608.32 -8415.83 46608.32 -7500 45692.49 -6584.17 46608.32 -5668.33 46608.32 -4752.5 45692.49 -4752.5 42944.99 -5668.33 42029.16 M -7500 43860.82 -7500 45692.49 M -9331.67 49355.82 -10247.5 50271.65 -10247.5 53019.15 -9331.67 53934.98 -8415.83 53934.98 -7500 53019.15 -7500 50271.65 -6584.17 49355.82 -4752.5 49355.82 -4752.5 53934.98" fill="none" stroke-width="915.83"/><path d="M -11447.8 71547.5 -8552.2 71547.5 -8552.2 79452.5 -11447.8 79452.5 -11447.8 71547.5 -8552.2 71547.5 -8552.2 79452.5 -11447.8 79452.5 -11447.8 71547.5" fill="none" stroke-width="152.4"/><path d="M -10000 78500 -10000 78500" fill="none" stroke-width="558.8"/><path d="M -9907.03 72401 -10092.97 72401 -10000 72493.97 -10092.97 72586.94 -9907.03 72586.94 M -10030.99 72648.92 -10092.97 72710.9 -10092.97 72772.88 -10030.99 72834.86 -9969.01 72834.86 -9907.03 72772.88 -9907.03 72710.9 -9969.01 72648.92 -10030.99 72648.92 M -9907.03 72896.84 -10092.97 72896.84 -10092.97 73020.8 -10030.99 73082.78 -9969.01 73082.78 -9907.03 73020.8 -9907.03 72896.84 M -10092.97 73144.76 -9938.02 73144.76 -9907.03 73175.75 -9907.03 73299.71 -9938.02 73330.7 -10092.97 73330.7 M -10092.97 73392.68 -9907.03 73392.68 -9907.03 73578.62 M -10030.99 73640.6 -10092.97 73702.58 -10092.97 73764.56 -10030.99 73826.54 -9969.01 73826.54 -9907.03 73764.56 -9907.03 73702.58 -9969.01 73640.6 -10030.99 73640.6 M -9907.03 74136.44 -10092.97 74136.44 -10092.97 74260.4 -10030.99 74322.38 -9969.01 74322.38 -9907.03 74260.4 -9907.03 74136.44 M -9907.03 74384.36 -10030.99 74384.36 -10092.97 74446.34 -10092.97 74508.32 -10030.99 74570.3 -9907.03 74570.3 M -9969.01 74384.36 -9969.01 74570.3 M -10092.97 74880.2 -9938.02 74880.2 -9907.03 74911.19 -9907.03 75035.15 -9938.02 75066.14 -10092.97 75066.14 M -9907.03 75128.12 -10092.97 75128.12 -10000 75221.09 -10092.97 75314.06 -9907.03 75314.06 M -10092.97 75407.03 -10092.97 75530.99 M -10092.97 75469.01 -9907.03 75469.01 M -9907.03 75407.03 -9907.03 75530.99 M -9907.03 75623.96 -10092.97 75623.96 -10092.97 75747.92 -10030.99 75809.9 -9969.01 75809.9 -9907.03 75747.92 -9907.03 75623.96 M -9907.03 75871.88 -10030.99 75871.88 -10092.97 75933.86 -10092.97 75995.84 -10030.99 76057.82 -9907.03 76057.82 M -9969.01 75871.88 -9969.01 76057.82 M -9907.03 76119.8 -10092.97 76119.8 -10092.97 76243.76 -10030.99 76305.74 -9969.01 76305.74 -9907.03 76243.76 -9907.03 76119.8 M -9907.03 76553.66 -9907.03 76367.72 -10092.97 76367.72 -10092.97 76553.66 M -10000 76367.72 -10000 76491.68 M -9907.03 76863.56 -10092.97 76863.56 -10092.97 76987.52 -10030.99 77049.5 -9969.01 77049.5 -9907.03 76987.52 -9907.03 76863.56 M -10030.99 77111.48 -10092.97 77173.46 -10092.97 77235.44 -10030.99 77297.42 -9969.01 77297.42 -9907.03 77235.44 -9907.03 77173.46 -9969.01 77111.48 -10030.99 77111.48 M -9938.02 77607.32 -9907.03 77638.31 -9907.03 77762.27 -9938.02 77793.26 -9969.01 77793.26 -10000 77762.27 -10000 77638.31 -10030.99 77607.32 -10061.98 77607.32 -10092.97 77638.31 -10092.97 77762.27 -10061.98 77793.26 M -10030.99 77855.24 -10092.97 77917.22 -10092.97 77979.2 -10030.99 78041.18 -9969.01 78041.18 -9907.03 77979.2 -9907.03 77917.22 -9969.01 77855.24 -10030.99 77855.24 M -10092.97 78103.16 -9907.03 78103.16 -9907.03 78289.1 M -10030.99 78351.08 -10092.97 78413.06 -10092.97 78475.04 -10030.99 78537.02 -9969.01 78537.02 -9907.03 78475.04 -9907.03 78413.06 -9969.01 78351.08 -10030.99 78351.08" fill="none" stroke-width="30.99"/><path d="M 26447.8 40952.5 23552.2 40952.5 23552.2 33047.5 26447.8 33047.5 26447.8 40952.5 23552.2 40952.5 23552.2 33047.5 26447.8 33047.5 26447.8 40952.5" fill="none" stroke-width="152.4"/><path d="M 25000 34000 25000 34000" fill="none" stroke-width="558.8"/><path d="M 25219.75 34070.05 24780.25 34070.05 25000 34289.79 24780.25 34509.54 25219.75 34509.54 M 24926.75 34656.04 24780.25 34802.53 24780.25 34949.03 24926.75 35095.53 25073.25 35095.53 25219.75 34949.03 25219.75 34802.53 25073.25 34656.04 24926.75 34656.04 M 25219.75 35242.03 24780.25 35242.03 24780.25 35535.02 24926.75 35681.52 25073.25 35681.52 25219.75 35535.02 25219.75 35242.03 M 24780.25 35828.02 25146.5 35828.02 25219.75 35901.26 25219.75 36194.26 25146.5 36267.51 24780.25 36267.51 M 24780.25 36414.01 25219.75 36414.01 25219.75 36853.5 M 24926.75 37000 24780.25 37146.49 24780.25 37292.99 24926.75 37439.49 25073.25 37439.49 25219.75 37292.99 25219.75 37146.49 25073.25 37000 24926.75 37000 M 25073.25 38464.97 25073.25 38611.47 25219.75 38611.47 25219.75 38318.47 25073.25 38171.98 24926.75 38171.98 24780.25 38318.47 24780.25 38538.22 24853.5 38611.47 M 25146.5 38757.97 25219.75 38831.21 25219.75 39124.21 25146.5 39197.46 25073.25 39197.46 25000 39124.21 25000 38831.21 24926.75 38757.97 24853.5 38757.97 24780.25 38831.21 24780.25 39124.21 24853.5 39197.46 M 25219.75 39343.96 24780.25 39343.96 25000 39563.7 24780.25 39783.45 25219.75 39783.45" fill="none" stroke-width="73.24"/><path d="M -57500 0 40000 0 40000 85000 -57500 85000 -57500 0" fill="none" stroke-width="203.2"/><path d="M -43871.6 71128.4 -41128.4 71128.4 -41128.4 76411.6 -43871.6 76411.6 -43871.6 71128.4" fill="none" stroke-width="203.2"/><path d="M -42500 72500 -42500 72500" fill="none" stroke-width="812.8"/><path d="M -42394.34 71797.68 -42535.22 71797.68 -42605.66 71868.12 -42605.66 71938.56 -42535.22 72009 -42394.34 72009 M -42464.78 71797.68 -42464.78 72009 M -42605.66 72079.44 -42394.34 72079.44 -42394.34 72290.76 M -42605.66 72396.42 -42605.66 72537.3 M -42605.66 72466.86 -42394.34 72466.86 M -42394.34 72396.42 -42394.34 72537.3 M -42394.34 72642.96 -42605.66 72642.96 -42500 72748.62 -42605.66 72854.28 -42394.34 72854.28 M -42394.34 73136.04 -42394.34 72924.72 -42605.66 72924.72 -42605.66 73136.04 M -42500 72924.72 -42500 73065.6 M -42394.34 73206.48 -42605.66 73206.48 -42394.34 73417.8 -42605.66 73417.8 M -42605.66 73488.24 -42605.66 73699.56 M -42605.66 73593.9 -42394.34 73593.9 M -42394.34 73770 -42535.22 73770 -42605.66 73840.44 -42605.66 73910.88 -42535.22 73981.32 -42394.34 73981.32 M -42464.78 73770 -42464.78 73981.32 M -42429.56 74263.08 -42394.34 74227.86 -42394.34 74122.2 -42464.78 74051.76 -42535.22 74051.76 -42605.66 74122.2 -42605.66 74227.86 -42570.44 74263.08 M -42394.34 74333.52 -42535.22 74333.52 -42605.66 74403.96 -42605.66 74474.4 -42535.22 74544.84 -42394.34 74544.84 M -42464.78 74333.52 -42464.78 74544.84 M -42535.22 74615.28 -42605.66 74685.72 -42605.66 74756.16 -42535.22 74826.6 -42464.78 74826.6 -42394.34 74756.16 -42394.34 74685.72 -42464.78 74615.28 -42535.22 74615.28 M -42605.66 75390.12 -42605.66 75214.02 -42535.22 75214.02 -42535.22 75354.9 -42500 75390.12 -42429.56 75390.12 -42394.34 75354.9 -42394.34 75249.24 -42429.56 75214.02 M -42605.66 75460.56 -42500 75460.56 -42394.34 75566.22 -42500 75671.88 -42605.66 75671.88" fill="none" stroke-width="35.22"/><path d="M -38871.6 31008.4 -36128.4 31008.4 -36128.4 41371.6 -38871.6 41371.6 -38871.6 31008.4" fill="none" stroke-width="203.2"/><path d="M -37500 40000 -37500 40000" fill="none" stroke-width="812.8"/><path d="M -37370.46 32217.44 -37629.54 32217.44 -37500 32346.98 -37629.54 32476.52 -37370.46 32476.52 M -37543.18 32562.88 -37629.54 32649.24 -37629.54 32735.6 -37543.18 32821.96 -37456.82 32821.96 -37370.46 32735.6 -37370.46 32649.24 -37456.82 32562.88 -37543.18 32562.88 M -37370.46 32908.32 -37629.54 32908.32 -37629.54 33081.04 -37543.18 33167.4 -37456.82 33167.4 -37370.46 33081.04 -37370.46 32908.32 M -37629.54 33253.76 -37413.64 33253.76 -37370.46 33296.94 -37370.46 33469.66 -37413.64 33512.84 -37629.54 33512.84 M -37629.54 33599.2 -37370.46 33599.2 -37370.46 33858.28 M -37543.18 33944.64 -37629.54 34031 -37629.54 34117.36 -37543.18 34203.72 -37456.82 34203.72 -37370.46 34117.36 -37370.46 34031 -37456.82 33944.64 -37543.18 33944.64 M -37370.46 34635.52 -37629.54 34635.52 -37629.54 34808.24 -37543.18 34894.6 -37456.82 34894.6 -37370.46 34808.24 -37370.46 34635.52 M -37370.46 35240.04 -37370.46 34980.96 -37629.54 34980.96 -37629.54 35240.04 M -37500 34980.96 -37500 35153.68 M -37629.54 35671.84 -37370.46 35671.84 -37370.46 35930.92 M -37370.46 36276.36 -37370.46 36017.28 -37629.54 36017.28 -37629.54 36276.36 M -37500 36017.28 -37500 36190 M -37629.54 36405.9 -37629.54 36578.62 M -37629.54 36492.26 -37370.46 36492.26 M -37370.46 36405.9 -37370.46 36578.62 M -37629.54 36708.16 -37629.54 36967.24 M -37629.54 36837.7 -37370.46 36837.7 M -37629.54 37053.6 -37413.64 37053.6 -37370.46 37096.78 -37370.46 37269.5 -37413.64 37312.68 -37629.54 37312.68 M -37370.46 37399.04 -37629.54 37399.04 -37629.54 37614.94 -37586.36 37658.12 -37543.18 37658.12 -37500 37614.94 -37500 37399.04 M -37500 37614.94 -37456.82 37658.12 -37370.46 37658.12 M -37370.46 37744.48 -37543.18 37744.48 -37629.54 37830.84 -37629.54 37917.2 -37543.18 38003.56 -37370.46 38003.56 M -37456.82 37744.48 -37456.82 38003.56 M -37370.46 38435.36 -37629.54 38435.36 -37629.54 38608.08 -37543.18 38694.44 -37456.82 38694.44 -37370.46 38608.08 -37370.46 38435.36 M -37370.46 39039.88 -37370.46 38780.8 -37629.54 38780.8 -37629.54 39039.88 M -37500 38780.8 -37500 38953.52 M -37370.46 39471.68 -37629.54 39471.68 -37629.54 39687.58 -37586.36 39730.76 -37543.18 39730.76 -37500 39687.58 -37500 39471.68 M -37370.46 39817.12 -37629.54 39817.12 M -37629.54 40076.2 -37370.46 40076.2 M -37500 39817.12 -37500 40076.2" fill="none" stroke-width="43.18"/><path d="M -48871.6 13628.4 -43588.4 13628.4 -43588.4 16371.6 -48871.6 16371.6 -48871.6 13628.4" fill="none" stroke-width="203.2"/><path d="M -47500 15000 -47500 15000" fill="none" stroke-width="812.8"/><path d="M -48167.1 14867.92 -48167.1 15044.02 -48079.05 15132.07 -47991 15132.07 -47902.95 15044.02 -47902.95 14867.92 M -48167.1 14955.97 -47902.95 14955.97 M -47814.9 15132.07 -47814.9 14867.92 -47550.75 14867.92 M -47418.68 15132.07 -47242.58 15132.07 M -47330.63 15132.07 -47330.63 14867.92 M -47418.68 14867.92 -47242.58 14867.92 M -47110.5 14867.92 -47110.5 15132.07 -46978.43 15000 -46846.35 15132.07 -46846.35 14867.92 M -46494.15 14867.92 -46758.3 14867.92 -46758.3 15132.07 -46494.15 15132.07 M -46758.3 15000 -46582.2 15000 M -46406.1 14867.92 -46406.1 15132.07 -46141.95 14867.92 -46141.95 15132.07 M -46053.9 15132.07 -45789.75 15132.07 M -45921.83 15132.07 -45921.83 14867.92 M -45701.7 14867.92 -45701.7 15044.02 -45613.65 15132.07 -45525.6 15132.07 -45437.55 15044.02 -45437.55 14867.92 M -45701.7 14955.97 -45437.55 14955.97 M -45085.35 14911.94 -45129.38 14867.92 -45261.45 14867.92 -45349.5 14955.97 -45349.5 15044.02 -45261.45 15132.07 -45129.38 15132.07 -45085.35 15088.05 M -44997.3 14867.92 -44997.3 15044.02 -44909.25 15132.07 -44821.2 15132.07 -44733.15 15044.02 -44733.15 14867.92 M -44997.3 14955.97 -44733.15 14955.97 M -44645.1 15044.02 -44557.05 15132.07 -44469 15132.07 -44380.95 15044.02 -44380.95 14955.97 -44469 14867.92 -44557.05 14867.92 -44645.1 14955.97 -44645.1 15044.02" fill="none" stroke-width="44.02"/></g></svg>