<svg version="1.1" xmlns="http://www.w3.org/2000/svg" xmlns:xlink="http://www.w3.org/1999/xlink" stroke-linecap="round" stroke-linejoin="round" stroke-width="0" fill-rule="evenodd" width="97.7032mm" height="85.2032mm" viewBox="-57601.6 -101.6 97703.2 85203.2" id="TJDXe9j6UqZwxYfb1LH3"><defs><mask id="TJDXe9j6UqZwxYfb1LH3_clear-1" fill="#000" stroke="#000"><g><rect x="-56763.4" y="736.6" width="96026.8" height="83526.8" fill="#fff"/><path d="M -18912.01 55972.01 -19630.52 55972.01 -18912.01 55253.5 -18912.01 54186.5 -19648.51 53450 -18912.01 52713.5 -18912.01 51646.5 -19648.51 50910 -18912.01 50173.5 -18912.01 49106.5 -19648.51 48370 -18912.01 47633.5 -18912.01 46566.5 -19648.51 45830 -18912.01 45093.5 -18912.01 44026.5 -19648.51 43290 -18912.01 42553.5 -18912.01 41486.5 -19648.51 40750 -18912.01 40013.5 -18912.01 38946.5 -19648.51 38210 -18912.01 37473.5 -18912.01 36406.5 -19648.51 35670 -18912.01 34933.5 -18912.01 33866.5 -19648.51 33130 -18912.01 32393.5 -18912.01 31326.5 -19648.51 30590 -18912.01 29853.5 -18912.01 28786.5 -19648.51 28050 -18912.01 27313.5 -18912.01 26246.5 -19648.51 25510 -18912.01 24773.5 -18912.01 23706.5 -19648.51 22970 -18912.01 22233.5 -18912.01 21166.5 -19481.63 20596.88 -18676.01 19791.26 -18676.01 18528.74 -19481.63 17723.12 -18912.01 17153.5 -18912.01 16086.5 -19648.51 15350 -18912.01 14613.5 -18912.01 13546.5 -19648.51 12810 -18912.01 12073.5 -18912.01 11006.5 -19666.5 10252.01 -20733.5 10252.01 -21487.99 11006.5 -21487.99 12073.5 -20751.49 12810 -21487.99 13546.5 -21487.99 14613.5 -20751.49 15350 -21487.99 16086.5 -21487.99 17153.5 -21005.48 17636.01 -32291.25 17636.01 -39023.99 24368.75 -39023.99 35171.37 -43436.01 30759.35 -43436.01 13476.01 -49023.99 13476.01 -49023.99 16523.99 -46483.99 16523.99 -46483.99 29947.35 -46889.99 30353.35 -46889.99 31615.85 -39521.85 38983.99 -39023.99 38983.99 -39023.99 41523.99 -35976.01 41523.99 -35976.01 25631.25 -31028.75 20683.99 -21005.48 20683.99 -21487.99 21166.5 -21487.99 22233.5 -20751.49 22970 -21487.99 23706.5 -21487.99 24773.5 -20751.49 25510 -21487.99 26246.5 -21487.99 27313.5 -20751.49 28050 -21487.99 28786.5 -21487.99 29853.5 -20751.49 30590 -21487.99 31326.5 -21487.99 32393.5 -20751.49 33130 -21487.99 33866.5 -21487.99 34933.5 -20751.49 35670 -21487.99 36406.5 -21487.99 37473.5 -20751.49 38210 -21487.99 38946.5 -21487.99 40013.5 -20751.49 40750 -21487.99 41486.5 -21487.99 42553.5 -20751.49 43290 -21487.99 44026.5 -21487.99 45093.5 -20751.49 45830 -21487.99 46566.5 -21487.99 47633.5 -20751.49 48370 -21487.99 49106.5 -21487.99 50173.5 -20751.49 50910 -21487.99 51646.5 -21487.99 52713.5 -20751.49 53450 -21487.99 54186.5 -21487.99 55253.5 -20769.48 55972.01 -21487.99 55972.01 -21487.99 58547.99 -18912.01 58547.99 -18912.01 55972.01"/><path d="M 6487.99 57793.5 6487.99 56726.5 5751.49 55990 6487.99 55253.5 6487.99 54186.5 5751.49 53450 6487.99 52713.5 6487.99 51646.5 5751.49 50910 6487.99 50173.5 6487.99 49106.5 6005.48 48623.99 26031.25 48623.99 29023.99 45631.25 29023.99 36868.75 26631.25 34476.01 26206.49 34476.01 26206.49 33500.26 25499.74 32793.51 24500.26 32793.51 23793.51 33500.26 23793.51 34499.74 24069.26 34775.49 23476.01 35368.74 23476.01 36631.26 24069.26 37224.51 23793.51 37500.26 23793.51 38476.01 12917.44 38476.01 12815.8 38577.65 6946.05 38577.65 6487.99 39035.71 6487.99 38946.5 5751.49 38210 6487.99 37473.5 6487.99 36406.5 5751.49 35670 6487.99 34933.5 6487.99 33866.5 5751.49 33130 6487.99 32393.5 6487.99 31326.5 5751.49 30590 6487.99 29853.5 6487.99 28786.5 5751.49 28050 6487.99 27313.5 6487.99 26246.5 5751.49 25510 6487.99 24773.5 6487.99 23706.5 5751.49 22970 6487.99 22233.5 6487.99 21166.5 5751.49 20430 6487.99 19693.5 6487.99 18626.5 5751.49 17890 6487.99 17153.5 6487.99 16086.5 5751.49 15350 6487.99 14613.5 6487.99 13546.5 5751.49 12810 6487.99 12073.5 6487.99 11006.5 5733.5 10252.01 4666.5 10252.01 3912.01 11006.5 3912.01 12073.5 4648.51 12810 3912.01 13546.5 3912.01 14613.5 4648.51 15350 3912.01 16086.5 3912.01 17153.5 4648.51 17890 3912.01 18626.5 3912.01 19693.5 4648.51 20430 3912.01 21166.5 3912.01 22233.5 4648.51 22970 3912.01 23706.5 3912.01 24773.5 4648.51 25510 3912.01 26246.5 3912.01 27313.5 4648.51 28050 3912.01 28786.5 3912.01 29853.5 4648.51 30590 3912.01 31326.5 3912.01 32393.5 4648.51 33130 3912.01 33866.5 3912.01 34933.5 4648.51 35670 3912.01 36406.5 3912.01 37473.5 4648.51 38210 3912.01 38946.5 3912.01 40013.5 4481.63 40583.12 3676.01 41388.74 3676.01 42651.26 4481.63 43456.88 3912.01 44026.5 3912.01 45093.5 4481.63 45663.12 3676.01 46468.74 3676.01 47731.26 4481.63 48536.88 3912.01 49106.5 3912.01 50173.5 4648.51 50910 3912.01 51646.5 3912.01 52713.5 4648.51 53450 3912.01 54186.5 3912.01 55253.5 4648.51 55990 3912.01 56726.5 3912.01 57793.5 4666.5 58547.99 5733.5 58547.99 6487.99 57793.5"/><path d="M -8793.51 78999.74 -8793.51 78000.26 -9069.26 77724.51 -8476.01 77131.26 -8476.01 75868.74 -9069.26 75275.49 -8793.51 74999.74 -8793.51 74000.26 -9293.77 73500 -8793.51 72999.74 -8793.51 72000.26 -9500.26 71293.51 -10499.74 71293.51 -11206.49 72000.26 -11206.49 72999.74 -10706.23 73500 -11167.04 73960.8 -11651.83 73476.01 -15631.25 73476.01 -15671.25 73516.01 -40976.01 73516.01 -40976.01 70976.01 -44023.99 70976.01 -44023.99 76563.99 -14408.75 76563.99 -14368.75 76523.99 -12914.33 76523.99 -11414.33 78023.99 -11206.49 78023.99 -11206.49 78999.74 -10499.74 79706.49 -9500.26 79706.49 -8793.51 78999.74"/></g></mask><rect x="-780" y="-780" width="1560" height="1560" id="TJDXe9j6UqZwxYfb1LH3_pad-12"/><circle cx="0" cy="0" r="780" id="TJDXe9j6UqZwxYfb1LH3_pad-13"/><circle cx="0" cy="0" r="698.5" id="TJDXe9j6UqZwxYfb1LH3_pad-14"/><rect x="-1016" y="-1016" width="2032" height="2032" id="TJDXe9j6UqZwxYfb1LH3_pad-15"/></defs><g transform="translate(0,85000) scale(1,-1)" fill="currentColor" stroke="currentColor"><g mask="url(#TJDXe9j6UqZwxYfb1LH3_clear-1)"><path d="M 39263.4 736.6 -56763.4 736.6 -56763.4 84263.4 39263.4 84263.4 39263.4 736.6"/></g><path d="M 25976.01 44368.75 25976.01 41179.24 25631.26 41523.99 14179.94 41523.99 14078.3 41625.63 8208.55 41625.63 6290.19 43543.99 6005.48 43543.99 6487.99 44026.5 6487.99 45093.5 6005.48 45576.01 24768.75 45576.01 25976.01 44368.75"/><path d="M 25976.01 38730.22 25930.74 38775.49 25976.01 38820.76 25976.01 38730.22"/><path d="M 5200 47100 25400 47100 27500 45000 27500 37500 26000 36000 25000 36000 M 25000 40000 13548.69 40000 13447.05 40101.64 7577.3 40101.64 5658.94 42020 5200 42020 M -42500 75040 -15040 75040 -15000 75000 -12283.08 75000 -10783.08 76500 -10000 76500 M -44960 15000 -44960 30578.6 -45366 30984.6 -38890.6 37460 -37500 37460 M -20200 19160 -31660 19160 -37500 25000 -37500 32380" fill="none" stroke-width="2032"/><path d="M 39263.4 736.6 -56763.4 736.6 -56763.4 84263.4 39263.4 84263.4 39263.4 736.6 M -18912.01 55972.01 -19630.52 55972.01 -18912.01 55253.5 -18912.01 54186.5 -19648.51 53450 -18912.01 52713.5 -18912.01 51646.5 -19648.51 50910 -18912.01 50173.5 -18912.01 49106.5 -19648.51 48370 -18912.01 47633.5 -18912.01 46566.5 -19648.51 45830 -18912.01 45093.5 -18912.01 44026.5 -19648.51 43290 -18912.01 42553.5 -18912.01 41486.5 -19648.51 40750 -18912.01 40013.5 -18912.01 38946.5 -19648.51 38210 -18912.01 37473.5 -18912.01 36406.5 -19648.51 35670 -18912.01 34933.5 -18912.01 33866.5 -19648.51 33130 -18912.01 32393.5 -18912.01 31326.5 -19648.51 30590 -18912.01 29853.5 -18912.01 28786.5 -19648.51 28050 -18912.01 27313.5 -18912.01 26246.5 -19648.51 25510 -18912.01 24773.5 -18912.01 23706.5 -19648.51 22970 -18912.01 22233.5 -18912.01 21166.5 -19481.63 20596.88 -18676.01 19791.26 -18676.01 18528.74 -19481.63 17723.12 -18912.01 17153.5 -18912.01 16086.5 -19648.51 15350 -18912.01 14613.5 -18912.01 13546.5 -19648.51 12810 -18912.01 12073.5 -18912.01 11006.5 -19666.5 10252.01 -20733.5 10252.01 -21487.99 11006.5 -21487.99 12073.5 -20751.49 12810 -21487.99 13546.5 -21487.99 14613.5 -20751.49 15350 -21487.99 16086.5 -21487.99 17153.5 -21005.48 17636.01 -32291.25 17636.01 -39023.99 24368.75 -39023.99 35171.37 -43436.01 30759.35 -43436.01 13476.01 -49023.99 13476.01 -49023.99 16523.99 -46483.99 16523.99 -46483.99 29947.35 -46889.99 30353.35 -46889.99 31615.85 -39521.85 38983.99 -39023.99 38983.99 -39023.99 41523.99 -35976.01 41523.99 -35976.01 25631.25 -31028.75 20683.99 -21005.48 20683.99 -21487.99 21166.5 -21487.99 22233.5 -20751.49 22970 -21487.99 23706.5 -21487.99 24773.5 -20751.49 25510 -21487.99 26246.5 -21487.99 27313.5 -20751.49 28050 -21487.99 28786.5 -21487.99 29853.5 -20751.49 30590 -21487.99 31326.5 -21487.99 32393.5 -20751.49 33130 -21487.99 33866.5 -21487.99 34933.5 -20751.49 35670 -21487.99 36406.5 -21487.99 37473.5 -20751.49 38210 -21487.99 38946.5 -21487.99 40013.5 -20751.49 40750 -21487.99 41486.5 -21487.99 42553.5 -20751.49 43290 -21487.99 44026.5 -21487.99 45093.5 -20751.49 45830 -21487.99 46566.5 -21487.99 47633.5 -20751.49 48370 -21487.99 49106.5 -21487.99 50173.5 -20751.49 50910 -21487.99 51646.5 -21487.99 52713.5 -20751.49 53450 -21487.99 54186.5 -21487.99 55253.5 -20769.48 55972.01 -21487.99 55972.01 -21487.99 58547.99 -18912.01 58547.99 -18912.01 55972.01 M 6487.99 57793.5 6487.99 56726.5 5751.49 55990 6487.99 55253.5 6487.99 54186.5 5751.49 53450 6487.99 52713.5 6487.99 51646.5 5751.49 50910 6487.99 50173.5 6487.99 49106.5 6005.48 48623.99 26031.25 48623.99 29023.99 45631.25 29023.99 36868.75 26631.25 34476.01 26206.49 34476.01 26206.49 33500.26 25499.74 32793.51 24500.26 32793.51 23793.51 33500.26 23793.51 34499.74 24069.26 34775.49 23476.01 35368.74 23476.01 36631.26 24069.26 37224.51 23793.51 37500.26 23793.51 38476.01 12917.44 38476.01 12815.8 38577.65 6946.05 38577.65 6487.99 39035.71 6487.99 38946.5 5751.49 38210 6487.99 37473.5 6487.99 36406.5 5751.49 35670 6487.99 34933.5 6487.99 33866.5 5751.49 33130 6487.99 32393.5 6487.99 31326.5 5751.49 30590 6487.99 29853.5 6487.99 28786.5 5751.49 28050 6487.99 27313.5 6487.99 26246.5 5751.49 25510 6487.99 24773.5 6487.99 23706.5 5751.49 22970 6487.99 22233.5 6487.99 21166.5 5751.49 20430 6487.99 19693.5 6487.99 18626.5 5751.49 17890 6487.99 17153.5 6487.99 16086.5 5751.49 15350 6487.99 14613.5 6487.99 13546.5 5751.49 12810 6487.99 12073.5 6487.99 11006.5 5733.5 10252.01 4666.5 10252.01 3912.01 11006.5 3912.01 12073.5 4648.51 12810 3912.01 13546.5 3912.01 14613.5 4648.51 15350 3912.01 16086.5 3912.01 17153.5 4648.51 17890 3912.01 18626.5 3912.01 19693.5 4648.51 20430 3912.01 21166.5 3912.01 22233.5 4648.51 22970 3912.01 23706.5 3912.01 24773.5 4648.51 25510 3912.01 26246.5 3912.01 27313.5 4648.51 28050 3912.01 28786.5 3912.01 29853.5 4648.51 30590 3912.01 31326.5 3912.01 32393.5 4648.51 33130 3912.01 33866.5 3912.01 34933.5 4648.51 35670 3912.01 36406.5 3912.01 37473.5 4648.51 38210 3912.01 38946.5 3912.01 40013.5 4481.63 40583.12 3676.01 41388.74 3676.01 42651.26 4481.63 43456.88 3912.01 44026.5 3912.01 45093.5 4481.63 45663.12 3676.01 46468.74 3676.01 47731.26 4481.63 48536.88 3912.01 49106.5 3912.01 50173.5 4648.51 50910 3912.01 51646.5 3912.01 52713.5 4648.51 53450 3912.01 54186.5 3912.01 55253.5 4648.51 55990 3912.01 56726.5 3912.01 57793.5 4666.5 58547.99 5733.5 58547.99 6487.99 57793.5 M -8793.51 78999.74 -8793.51 78000.26 -9069.26 77724.51 -8476.01 77131.26 -8476.01 75868.74 -9069.26 75275.49 -8793.51 74999.74 -8793.51 74000.26 -9293.77 73500 -8793.51 72999.74 -8793.51 72000.26 -9500.26 71293.51 -10499.74 71293.51 -11206.49 72000.26 -11206.49 72999.74 -10706.23 73500 -11167.04 73960.8 -11651.83 73476.01 -15631.25 73476.01 -15671.25 73516.01 -40976.01 73516.01 -40976.01 70976.01 -44023.99 70976.01 -44023.99 76563.99 -14408.75 76563.99 -14368.75 76523.99 -12914.33 76523.99 -11414.33 78023.99 -11206.49 78023.99 -11206.49 78999.74 -10499.74 79706.49 -9500.26 79706.49 -8793.51 78999.74 M 25976.01 44368.75 25976.01 41179.24 25631.26 41523.99 14179.94 41523.99 14078.3 41625.63 8208.55 41625.63 6290.19 43543.99 6005.48 43543.99 6487.99 44026.5 6487.99 45093.5 6005.48 45576.01 24768.75 45576.01 25976.01 44368.75 M 25976.01 38730.22 25930.74 38775.49 25976.01 38820.76 25976.01 38730.22" fill="none" stroke-width="508"/><use xlink:href="#TJDXe9j6UqZwxYfb1LH3_pad-12" x="-20200" y="57260"/><use xlink:href="#TJDXe9j6UqZwxYfb1LH3_pad-13" x="-20200" y="54720"/><use xlink:href="#TJDXe9j6UqZwxYfb1LH3_pad-13" x="-20200" y="52180"/><use xlink:href="#TJDXe9j6UqZwxYfb1LH3_pad-13" x="-20200" y="49640"/><use xlink:href="#TJDXe9j6UqZwxYfb1LH3_pad-13" x="-20200" y="47100"/><use xlink:href="#TJDXe9j6UqZwxYfb1LH3_pad-13" x="-20200" y="44560"/><use xlink:href="#TJDXe9j6UqZwxYfb1LH3_pad-13" x="-20200" y="42020"/><use xlink:href="#TJDXe9j6UqZwxYfb1LH3_pad-13" x="-20200" y="39480"/><use xlink:href="#TJDXe9j6UqZwxYfb1LH3_pad-13" x="-20200" y="36940"/><use xlink:href="#TJDXe9j6UqZwxYfb1LH3_pad-13" x="-20200" y="34400"/><use xlink:href="#TJDXe9j6UqZwxYfb1LH3_pad-13" x="-20200" y="31860"/><use xlink:href="#TJDXe9j6UqZwxYfb1LH3_pad-13" x="-20200" y="29320"/><use xlink:href="#TJDXe9j6UqZwxYfb1LH3_pad-13" x="-20200" y="26780"/><use xlink:href="#TJDXe9j6UqZwxYfb1LH3_pad-13" x="-20200" y="24240"/><use xlink:href="#TJDXe9j6UqZwxYfb1LH3_pad-13" x="-20200" y="21700"/><use xlink:href="#TJDXe9j6UqZwxYfb1LH3_pad-13" x="-20200" y="19160"/><use xlink:href="#TJDXe9j6UqZwxYfb1LH3_pad-13" x="-20200" y="16620"/><use xlink:href="#TJDXe9j6UqZwxYfb1LH3_pad-13" x="-20200" y="14080"/><use xlink:href="#TJDXe9j6UqZwxYfb1LH3_pad-13" x="-20200" y="11540"/><use xlink:href="#TJDXe9j6UqZwxYfb1LH3_pad-13" x="5200" y="57260"/><use xlink:href="#TJDXe9j6UqZwxYfb1LH3_pad-13" x="5200" y="54720"/><use xlink:href="#TJDXe9j6UqZwxYfb1LH3_pad-13" x="5200" y="52180"/><use xlink:href="#TJDXe9j6UqZwxYfb1LH3_pad-13" x="5200" y="49640"/><use xlink:href="#TJDXe9j6UqZwxYfb1LH3_pad-13" x="5200" y="47100"/><use xlink:href="#TJDXe9j6UqZwxYfb1LH3_pad-13" x="5200" y="44560"/><use xlink:href="#TJDXe9j6UqZwxYfb1LH3_pad-13" x="5200" y="42020"/><use xlink:href="#TJDXe9j6UqZwxYfb1LH3_pad-13" x="5200" y="39480"/><use xlink:href="#TJDXe9j6UqZwxYfb1LH3_pad-13" x="5200" y="36940"/><use xlink:href="#TJDXe9j6UqZwxYfb1LH3_pad-13" x="5200" y="34400"/><use xlink:href="#TJDXe9j6UqZwxYfb1LH3_pad-13" x="5200" y="31860"/><use xlink:href="#TJDXe9j6UqZwxYfb1LH3_pad-13" x="5200" y="29320"/><use xlink:href="#TJDXe9j6UqZwxYfb1LH3_pad-13" x="5200" y="26780"/><use xlink:href="#TJDXe9j6UqZwxYfb1LH3_pad-13" x="5200" y="24240"/><use xlink:href="#TJDXe9j6UqZwxYfb1LH3_pad-13" x="5200" y="21700"/><use xlink:href="#TJDXe9j6UqZwxYfb1LH3_pad-13" x="5200" y="19160"/><use xlink:href="#TJDXe9j6UqZwxYfb1LH3_pad-13" x="5200" y="16620"/><use xlink:href="#TJDXe9j6UqZwxYfb1LH3_pad-13" x="5200" y="14080"/><use xlink:href="#TJDXe9j6UqZwxYfb1LH3_pad-13" x="5200" y="11540"/><use xlink:href="#TJDXe9j6UqZwxYfb1LH3_pad-14" x="-10000" y="78500"/><use xlink:href="#TJDXe9j6UqZwxYfb1LH3_pad-14" x="-10000" y="76500"/><use xlink:href="#TJDXe9j6UqZwxYfb1LH3_pad-14" x="-10000" y="74500"/><use xlink:href="#TJDXe9j6UqZwxYfb1LH3_pad-14" x="-10000" y="72500"/><use xlink:href="#TJDXe9j6UqZwxYfb1LH3_pad-14" x="25000" y="34000"/><use xlink:href="#TJDXe9j6UqZwxYfb1LH3_pad-14" x="25000" y="36000"/><use xlink:href="#TJDXe9j6UqZwxYfb1LH3_pad-14" x="25000" y="38000"/><use xlink:href="#TJDXe9j6UqZwxYfb1LH3_pad-14" x="25000" y="40000"/><use xlink:href="#TJDXe9j6UqZwxYfb1LH3_pad-15" x="-42500" y="72500"/><use xlink:href="#TJDXe9j6UqZwxYfb1LH3_pad-15" x="-42500" y="75040"/><use xlink:href="#TJDXe9j6UqZwxYfb1LH3_pad-15" x="-37500" y="40000"/><use xlink:href="#TJDXe9j6UqZwxYfb1LH3_pad-15" x="-37500" y="37460"/><use xlink:href="#TJDXe9j6UqZwxYfb1LH3_pad-15" x="-37500" y="34920"/><use xlink:href="#TJDXe9j6UqZwxYfb1LH3_pad-15" x="-37500" y="32380"/><use xlink:href="#TJDXe9j6UqZwxYfb1LH3_pad-15" x="-47500" y="15000"/><use xlink:href="#TJDXe9j6UqZwxYfb1LH3_pad-15" x="-44960" y="15000"/><path d="M -57500 0 40000 0 40000 85000 -57500 85000 -57500 0" fill="none" stroke-width="203.2"/></g></svg>