<svg version="1.1" xmlns="http://www.w3.org/2000/svg" xmlns:xlink="http://www.w3.org/1999/xlink" stroke-linecap="round" stroke-linejoin="round" stroke-width="0" fill-rule="evenodd" width="97.7032mm" height="85.2032mm" viewBox="-57601.6 -101.6 97703.2 85203.2" id="xO_NFyZFi59ktVqUb2YM"><defs><polygon points="-780,780 780,780 780,-780 -780,-780" id="xO_NFyZFi59ktVqUb2YM_pad-20"/><circle cx="0" cy="0" r="390" id="xO_NFyZFi59ktVqUb2YM_pad-21"/><circle cx="0" cy="0" r="825.5" id="xO_NFyZFi59ktVqUb2YM_pad-22"/><polygon points="-1143,-1016 -1143,1016 -1140.47,1041.97 -1133.2,1065.98 -1121.65,1087.58 -1106.29,1106.29 -1087.57,1121.65 -1065.98,1133.2 -1041.97,1140.47 -1016,1143 1016,1143 1041.97,1140.47 1065.98,1133.2 1087.57,1121.65 1106.29,1106.29 1121.65,1087.58 1133.2,1065.98 1140.47,1041.97 1143,1016 1143,-1016 1140.47,-1041.97 1133.2,-1065.98 1121.65,-1087.58 1106.29,-1106.29 1087.57,-1121.65 1065.98,-1133.2 1041.97,-1140.47 1016,-1143 -1016,-1143 -1041.97,-1140.47 -1065.98,-1133.2 -1087.57,-1121.65 -1106.29,-1106.29 -1121.65,-1087.58 -1133.2,-1065.98 -1140.47,-1041.97" id="xO_NFyZFi59ktVqUb2YM_pad-23"/><polygon points="-1016,1143 1016,1143 1041.97,1140.47 1065.98,1133.2 1087.58,1121.65 1106.29,1106.29 1121.65,1087.57 1133.2,1065.98 1140.47,1041.97 1143,1016 1143,-1016 1140.47,-1041.97 1133.2,-1065.98 1121.65,-1087.57 1106.29,-1106.29 1087.58,-1121.65 1065.98,-1133.2 1041.97,-1140.47 1016,-1143 -1016,-1143 -1041.97,-1140.47 -1065.98,-1133.2 -1087.58,-1121.65 -1106.29,-1106.29 -1121.65,-1087.57 -1133.2,-1065.98 -1140.47,-1041.97 -1143,-1016 -1143,1016 -1140.47,1041.97 -1133.2,1065.98 -1121.65,1087.57 -1106.29,1106.29 -1087.58,1121.65 -1065.98,1133.2 -1041.97,1140.47" id="xO_NFyZFi59ktVqUb2YM_pad-24"/></defs><g transform="translate(0,85000) scale(1,-1)" fill="currentColor" stroke="currentColor"><use xlink:href="#xO_NFyZFi59ktVqUb2YM_pad-20" x="-20200" y="57260"/><use xlink:href="#xO_NFyZFi59ktVqUb2YM_pad-21" x="-20200" y="54720"/><use xlink:href="#xO_NFyZFi59ktVqUb2YM_pad-21" x="-20200" y="52180"/><use xlink:href="#xO_NFyZFi59ktVqUb2YM_pad-21" x="-20200" y="49640"/><use xlink:href="#xO_NFyZFi59ktVqUb2YM_pad-21" x="-20200" y="47100"/><use xlink:href="#xO_NFyZFi59ktVqUb2YM_pad-21" x="-20200" y="44560"/><use xlink:href="#xO_NFyZFi59ktVqUb2YM_pad-21" x="-20200" y="42020"/><use xlink:href="#xO_NFyZFi59ktVqUb2YM_pad-21" x="-20200" y="39480"/><use xlink:href="#xO_NFyZFi59ktVqUb2YM_pad-21" x="-20200" y="36940"/><use xlink:href="#xO_NFyZFi59ktVqUb2YM_pad-21" x="-20200" y="34400"/><use xlink:href="#xO_NFyZFi59ktVqUb2YM_pad-21" x="-20200" y="31860"/><use xlink:href="#xO_NFyZFi59ktVqUb2YM_pad-21" x="-20200" y="29320"/><use xlink:href="#xO_NFyZFi59ktVqUb2YM_pad-21" x="-20200" y="26780"/><use xlink:href="#xO_NFyZFi59ktVqUb2YM_pad-21" x="-20200" y="24240"/><use xlink:href="#xO_NFyZFi59ktVqUb2YM_pad-21" x="-20200" y="21700"/><use xlink:href="#xO_NFyZFi59ktVqUb2YM_pad-21" x="-20200" y="19160"/><use xlink:href="#xO_NFyZFi59ktVqUb2YM_pad-21" x="-20200" y="16620"/><use xlink:href="#xO_NFyZFi59ktVqUb2YM_pad-21" x="-20200" y="14080"/><use xlink:href="#xO_NFyZFi59ktVqUb2YM_pad-21" x="-20200" y="11540"/><use xlink:href="#xO_NFyZFi59ktVqUb2YM_pad-21" x="5200" y="57260"/><use xlink:href="#xO_NFyZFi59ktVqUb2YM_pad-21" x="5200" y="54720"/><use xlink:href="#xO_NFyZFi59ktVqUb2YM_pad-21" x="5200" y="52180"/><use xlink:href="#xO_NFyZFi59ktVqUb2YM_pad-21" x="5200" y="49640"/><use xlink:href="#xO_NFyZFi59ktVqUb2YM_pad-21" x="5200" y="47100"/><use xlink:href="#xO_NFyZFi59ktVqUb2YM_pad-21" x="5200" y="44560"/><use xlink:href="#xO_NFyZFi59ktVqUb2YM_pad-21" x="5200" y="42020"/><use xlink:href="#xO_NFyZFi59ktVqUb2YM_pad-21" x="5200" y="39480"/><use xlink:href="#xO_NFyZFi59ktVqUb2YM_pad-21" x="5200" y="36940"/><use xlink:href="#xO_NFyZFi59ktVqUb2YM_pad-21" x="5200" y="34400"/><use xlink:href="#xO_NFyZFi59ktVqUb2YM_pad-21" x="5200" y="31860"/><use xlink:href="#xO_NFyZFi59ktVqUb2YM_pad-21" x="5200" y="29320"/><use xlink:href="#xO_NFyZFi59ktVqUb2YM_pad-21" x="5200" y="26780"/><use xlink:href="#xO_NFyZFi59ktVqUb2YM_pad-21" x="5200" y="24240"/><use xlink:href="#xO_NFyZFi59ktVqUb2YM_pad-21" x="5200" y="21700"/><use xlink:href="#xO_NFyZFi59ktVqUb2YM_pad-21" x="5200" y="19160"/><use xlink:href="#xO_NFyZFi59ktVqUb2YM_pad-21" x="5200" y="16620"/><use xlink:href="#xO_NFyZFi59ktVqUb2YM_pad-21" x="5200" y="14080"/><use xlink:href="#xO_NFyZFi59ktVqUb2YM_pad-21" x="5200" y="11540"/><use xlink:href="#xO_NFyZFi59ktVqUb2YM_pad-22" x="-10000" y="78500"/><use xlink:href="#xO_NFyZFi59ktVqUb2YM_pad-22" x="-10000" y="76500"/><use xlink:href="#xO_NFyZFi59ktVqUb2YM_pad-22" x="-10000" y="74500"/><use xlink:href="#xO_NFyZFi59ktVqUb2YM_pad-22" x="-10000" y="72500"/><use xlink:href="#xO_NFyZFi59ktVqUb2YM_pad-22" x="25000" y="34000"/><use xlink:href="#xO_NFyZFi59ktVqUb2YM_pad-22" x="25000" y="36000"/><use xlink:href="#xO_NFyZFi59ktVqUb2YM_pad-22" x="25000" y="38000"/><use xlink:href="#xO_NFyZFi59ktVqUb2YM_pad-22" x="25000" y="40000"/><use xlink:href="#xO_NFyZFi59ktVqUb2YM_pad-23" x="-42500" y="72500"/><use xlink:href="#xO_NFyZFi59ktVqUb2YM_pad-23" x="-42500" y="75040"/><use xlink:href="#xO_NFyZFi59ktVqUb2YM_pad-23" x="-37500" y="40000"/><use xlink:href="#xO_NFyZFi59ktVqUb2YM_pad-23" x="-37500" y="37460"/><use xlink:href="#xO_NFyZFi59ktVqUb2YM_pad-23" x="-37500" y="34920"/><use xlink:href="#xO_NFyZFi59ktVqUb2YM_pad-23" x="-37500" y="32380"/><use xlink:href="#xO_NFyZFi59ktVqUb2YM_pad-24" x="-47500" y="15000"/><use xlink:href="#xO_NFyZFi59ktVqUb2YM_pad-24" x="-44960" y="15000"/><path d="M -57500 0 40000 0 40000 85000 -57500 85000 -57500 0" fill="none" stroke-width="203.2"/></g></svg>