<svg version="1.1" xmlns="http://www.w3.org/2000/svg" xmlns:xlink="http://www.w3.org/1999/xlink" stroke-linecap="round" stroke-linejoin="round" stroke-width="0" fill-rule="evenodd" clip-rule="evenodd" id="yhS3nz4x-cL2NselDkAJ_top" viewBox="-57500 0 97500 85000" width="97.5mm" height="85mm" class="w-100 h-100"><defs><style>.yhS3nz4x-cL2NselDkAJ_fr4 {color: #666666;}
.yhS3nz4x-cL2NselDkAJ_cu {color: #cccccc;}
.yhS3nz4x-cL2NselDkAJ_cf {color: #cc9933;}
.yhS3nz4x-cL2NselDkAJ_sm {color: #004200; opacity: 0.75;}
.yhS3nz4x-cL2NselDkAJ_ss {color: #ffffff;}
.yhS3nz4x-cL2NselDkAJ_sp {color: #999999;}
.yhS3nz4x-cL2NselDkAJ_out {color: #000000;}</style><mask id="TJDXe9j6UqZwxYfb1LH3_clear-1" fill="#000" stroke="#000"><g><rect x="-56763.4" y="736.6" width="96026.8" height="83526.8" fill="#fff"/><path d="M -18912.01 55972.01 -19630.52 55972.01 -18912.01 55253.5 -18912.01 54186.5 -19648.51 53450 -18912.01 52713.5 -18912.01 51646.5 -19648.51 50910 -18912.01 50173.5 -18912.01 49106.5 -19648.51 48370 -18912.01 47633.5 -18912.01 46566.5 -19648.51 45830 -18912.01 45093.5 -18912.01 44026.5 -19648.51 43290 -18912.01 42553.5 -18912.01 41486.5 -19648.51 40750 -18912.01 40013.5 -18912.01 38946.5 -19648.51 38210 -18912.01 37473.5 -18912.01 36406.5 -19648.51 35670 -18912.01 34933.5 -18912.01 33866.5 -19648.51 33130 -18912.01 32393.5 -18912.01 31326.5 -19648.51 30590 -18912.01 29853.5 -18912.01 28786.5 -19648.51 28050 -18912.01 27313.5 -18912.01 26246.5 -19648.51 25510 -18912.01 24773.5 -18912.01 23706.5 -19648.51 22970 -18912.01 22233.5 -18912.01 21166.5 -19481.63 20596.88 -18676.01 19791.26 -18676.01 18528.74 -19481.63 17723.12 -18912.01 17153.5 -18912.01 16086.5 -19648.51 15350 -18912.01 14613.5 -18912.01 13546.5 -19648.51 12810 -18912.01 12073.5 -18912.01 11006.5 -19666.5 10252.01 -20733.5 10252.01 -21487.99 11006.5 -21487.99 12073.5 -20751.49 12810 -21487.99 13546.5 -21487.99 14613.5 -20751.49 15350 -21487.99 16086.5 -21487.99 17153.5 -21005.48 17636.01 -32291.25 17636.01 -39023.99 24368.75 -39023.99 35171.37 -43436.01 30759.35 -43436.01 13476.01 -49023.99 13476.01 -49023.99 16523.99 -46483.99 16523.99 -46483.99 29947.35 -46889.99 30353.35 -46889.99 31615.85 -39521.85 38983.99 -39023.99 38983.99 -39023.99 41523.99 -35976.01 41523.99 -35976.01 25631.25 -31028.75 20683.99 -21005.48 20683.99 -21487.99 21166.5 -21487.99 22233.5 -20751.49 22970 -21487.99 23706.5 -21487.99 24773.5 -20751.49 25510 -21487.99 26246.5 -21487.99 27313.5 -20751.49 28050 -21487.99 28786.5 -21487.99 29853.5 -20751.49 30590 -21487.99 31326.5 -21487.99 32393.5 -20751.49 33130 -21487.99 33866.5 -21487.99 34933.5 -20751.49 35670 -21487.99 36406.5 -21487.99 37473.5 -20751.49 38210 -21487.99 38946.5 -21487.99 40013.5 -20751.49 40750 -21487.99 41486.5 -21487.99 42553.5 -20751.49 43290 -21487.99 44026.5 -21487.99 45093.5 -20751.49 45830 -21487.99 46566.5 -21487.99 47633.5 -20751.49 48370 -21487.99 49106.5 -21487.99 50173.5 -20751.49 50910 -21487.99 51646.5 -21487.99 52713.5 -20751.49 53450 -21487.99 54186.5 -21487.99 55253.5 -20769.48 55972.01 -21487.99 55972.01 -21487.99 58547.99 -18912.01 58547.99 -18912.01 55972.01"/><path d="M 6487.99 57793.5 6487.99 56726.5 5751.49 55990 6487.99 55253.5 6487.99 54186.5 5751.49 53450 6487.99 52713.5 6487.99 51646.5 5751.49 50910 6487.99 50173.5 6487.99 49106.5 6005.48 48623.99 26031.25 48623.99 29023.99 45631.25 29023.99 36868.75 26631.25 34476.01 26206.49 34476.01 26206.49 33500.26 25499.74 32793.51 24500.26 32793.51 23793.51 33500.26 23793.51 34499.74 24069.26 34775.49 23476.01 35368.74 23476.01 36631.26 24069.26 37224.51 23793.51 37500.26 23793.51 38476.01 12917.44 38476.01 12815.8 38577.65 6946.05 38577.65 6487.99 39035.71 6487.99 38946.5 5751.49 38210 6487.99 37473.5 6487.99 36406.5 5751.49 35670 6487.99 34933.5 6487.99 33866.5 5751.49 33130 6487.99 32393.5 6487.99 31326.5 5751.49 30590 6487.99 29853.5 6487.99 28786.5 5751.49 28050 6487.99 27313.5 6487.99 26246.5 5751.49 25510 6487.99 24773.5 6487.99 23706.5 5751.49 22970 6487.99 22233.5 6487.99 21166.5 5751.49 20430 6487.99 19693.5 6487.99 18626.5 5751.49 17890 6487.99 17153.5 6487.99 16086.5 5751.49 15350 6487.99 14613.5 6487.99 13546.5 5751.49 12810 6487.99 12073.5 6487.99 11006.5 5733.5 10252.01 4666.5 10252.01 3912.01 11006.5 3912.01 12073.5 4648.51 12810 3912.01 13546.5 3912.01 14613.5 4648.51 15350 3912.01 16086.5 3912.01 17153.5 4648.51 17890 3912.01 18626.5 3912.01 19693.5 4648.51 20430 3912.01 21166.5 3912.01 22233.5 4648.51 22970 3912.01 23706.5 3912.01 24773.5 4648.51 25510 3912.01 26246.5 3912.01 27313.5 4648.51 28050 3912.01 28786.5 3912.01 29853.5 4648.51 30590 3912.01 31326.5 3912.01 32393.5 4648.51 33130 3912.01 33866.5 3912.01 34933.5 4648.51 35670 3912.01 36406.5 3912.01 37473.5 4648.51 38210 3912.01 38946.5 3912.01 40013.5 4481.63 40583.12 3676.01 41388.74 3676.01 42651.26 4481.63 43456.88 3912.01 44026.5 3912.01 45093.5 4481.63 45663.12 3676.01 46468.74 3676.01 47731.26 4481.63 48536.88 3912.01 49106.5 3912.01 50173.5 4648.51 50910 3912.01 51646.5 3912.01 52713.5 4648.51 53450 3912.01 54186.5 3912.01 55253.5 4648.51 55990 3912.01 56726.5 3912.01 57793.5 4666.5 58547.99 5733.5 58547.99 6487.99 57793.5"/><path d="M -8793.51 78999.74 -8793.51 78000.26 -9069.26 77724.51 -8476.01 77131.26 -8476.01 75868.74 -9069.26 75275.49 -8793.51 74999.74 -8793.51 74000.26 -9293.77 73500 -8793.51 72999.74 -8793.51 72000.26 -9500.26 71293.51 -10499.74 71293.51 -11206.49 72000.26 -11206.49 72999.74 -10706.23 73500 -11167.04 73960.8 -11651.83 73476.01 -15631.25 73476.01 -15671.25 73516.01 -40976.01 73516.01 -40976.01 70976.01 -44023.99 70976.01 -44023.99 76563.99 -14408.75 76563.99 -14368.75 76523.99 -12914.33 76523.99 -11414.33 78023.99 -11206.49 78023.99 -11206.49 78999.74 -10499.74 79706.49 -9500.26 79706.49 -8793.51 78999.74"/></g></mask><rect x="-780" y="-780" width="1560" height="1560" id="TJDXe9j6UqZwxYfb1LH3_pad-12"/><circle cx="0" cy="0" r="780" id="TJDXe9j6UqZwxYfb1LH3_pad-13"/><circle cx="0" cy="0" r="698.5" id="TJDXe9j6UqZwxYfb1LH3_pad-14"/><rect x="-1016" y="-1016" width="2032" height="2032" id="TJDXe9j6UqZwxYfb1LH3_pad-15"/><polygon points="-780,780 780,780 780,-780 -780,-780" id="fVnCP0QfvSSQl_4iH0vo_pad-20"/><circle cx="0" cy="0" r="390" id="fVnCP0QfvSSQl_4iH0vo_pad-21"/><circle cx="0" cy="0" r="825.5" id="fVnCP0QfvSSQl_4iH0vo_pad-22"/><polygon points="-1143,-1016 -1143,1016 -1140.47,1041.97 -1133.2,1065.98 -1121.65,1087.58 -1106.29,1106.29 -1087.57,1121.65 -1065.98,1133.2 -1041.97,1140.47 -1016,1143 1016,1143 1041.97,1140.47 1065.98,1133.2 1087.57,1121.65 1106.29,1106.29 1121.65,1087.58 1133.2,1065.98 1140.47,1041.97 1143,1016 1143,-1016 1140.47,-1041.97 1133.2,-1065.98 1121.65,-1087.58 1106.29,-1106.29 1087.57,-1121.65 1065.98,-1133.2 1041.97,-1140.47 1016,-1143 -1016,-1143 -1041.97,-1140.47 -1065.98,-1133.2 -1087.57,-1121.65 -1106.29,-1106.29 -1121.65,-1087.58 -1133.2,-1065.98 -1140.47,-1041.97" id="fVnCP0QfvSSQl_4iH0vo_pad-23"/><polygon points="-1016,1143 1016,1143 1041.97,1140.47 1065.98,1133.2 1087.58,1121.65 1106.29,1106.29 1121.65,1087.57 1133.2,1065.98 1140.47,1041.97 1143,1016 1143,-1016 1140.47,-1041.97 1133.2,-1065.98 1121.65,-1087.57 1106.29,-1106.29 1087.58,-1121.65 1065.98,-1133.2 1041.97,-1140.47 1016,-1143 -1016,-1143 -1041.97,-1140.47 -1065.98,-1133.2 -1087.58,-1121.65 -1106.29,-1106.29 -1121.65,-1087.57 -1133.2,-1065.98 -1140.47,-1041.97 -1143,-1016 -1143,1016 -1140.47,1041.97 -1133.2,1065.98 -1121.65,1087.57 -1106.29,1106.29 -1087.58,1121.65 -1065.98,1133.2 -1041.97,1140.47" id="fVnCP0QfvSSQl_4iH0vo_pad-24"/><g id="yhS3nz4x-cL2NselDkAJ_top_silkscreen"><path d="M -21450 10250 -21450 64650.06 6450 64650.06 6450 10250 -21450 10250" fill="none" stroke-width="127"/><path d="M -10050 65018.36 -11002.5 65018.36 -11002.5 65932.76 -10050 65932.76 M -11002.5 65475.56 -10367.5 65475.56 M -9732.5 65170.76 -9573.75 65018.36 -8938.75 65018.36 -8780 65170.76 -8780 65323.16 -8938.75 65475.56 -9573.75 65475.56 -9732.5 65627.96 -9732.5 65780.36 -9573.75 65932.76 -8938.75 65932.76 -8780 65780.36 M -8462.5 65018.36 -8462.5 65932.76 -7668.75 65932.76 -7510 65780.36 -7510 65627.96 -7668.75 65475.56 -8462.5 65475.56 M -7033.75 65780.36 -6875 65932.76 -6398.75 65932.76 -6240 65780.36 -6240 65627.96 -6398.75 65475.56 -6240 65323.16 -6240 65170.76 -6398.75 65018.36 -6875 65018.36 -7033.75 65170.76 M -6716.25 65475.56 -6398.75 65475.56 M -5763.75 65780.36 -5605 65932.76 -5128.75 65932.76 -4970 65780.36 -4970 65627.96 -5128.75 65475.56 -5605 65475.56 -5763.75 65323.16 -5763.75 65018.36 -4970 65018.36" fill="none" stroke-width="203.2"/><path d="M -7714 78500 -7715.31 78531.58 -7725.97 78594.76 -7748.28 78657.94 -7784.73 78721.12 -7840.48 78783.51 -7903.66 78829.47 -7966.84 78858.8 -8030.02 78875.42 -8093.2 78881 -8095 78881 M -8476 78500 -8474.69 78531.58 -8464.03 78594.76 -8441.72 78657.94 -8405.27 78721.12 -8349.52 78783.51 -8286.34 78829.47 -8223.16 78858.8 -8159.98 78875.42 -8096.8 78881 -8095 78881 M -8476 78500 -8474.69 78468.42 -8464.03 78405.24 -8441.72 78342.06 -8405.27 78278.88 -8349.52 78216.49 -8286.34 78170.53 -8223.16 78141.2 -8159.98 78124.58 -8096.8 78119 -8095 78119 M -7714 78500 -7715.31 78468.42 -7725.97 78405.24 -7748.28 78342.06 -7784.73 78278.88 -7840.48 78216.49 -7903.66 78170.53 -7966.84 78141.2 -8030.02 78124.58 -8093.2 78119 -8095 78119" fill="none" stroke-width="508"/><path d="M -8806.2 71801.5 -8806.2 79198.5 -9241.35 79198.5 M -11193.8 79198.5 -11193.8 71801.5 -10758.65 71801.5 M -9241.35 71801.5 -8806.2 71801.5 M -10758.65 79198.5 -11193.8 79198.5" fill="none" stroke-width="152.4"/><path d="M -22907 82542.8 -22907 83457.2 -22430.75 83000 -21954.5 83457.2 -21954.5 82542.8 M -21637 83152.4 -21319.5 83457.2 -21002 83457.2 -20684.5 83152.4 -20684.5 82847.6 -21002 82542.8 -21319.5 82542.8 -21637 82847.6 -21637 83152.4 M -20367 82542.8 -20367 83457.2 -19732 83457.2 -19414.5 83152.4 -19414.5 82847.6 -19732 82542.8 -20367 82542.8 M -19097 83457.2 -19097 82695.2 -18938.25 82542.8 -18303.25 82542.8 -18144.5 82695.2 -18144.5 83457.2 M -17827 83457.2 -17827 82542.8 -16874.5 82542.8 M -16557 83152.4 -16239.5 83457.2 -15922 83457.2 -15604.5 83152.4 -15604.5 82847.6 -15922 82542.8 -16239.5 82542.8 -16557 82847.6 -16557 83152.4 M -14017 82542.8 -14017 83457.2 -13382 83457.2 -13064.5 83152.4 -13064.5 82847.6 -13382 82542.8 -14017 82542.8 M -12747 82542.8 -12747 83152.4 -12429.5 83457.2 -12112 83457.2 -11794.5 83152.4 -11794.5 82542.8 M -12747 82847.6 -11794.5 82847.6 M -10207 83457.2 -10207 82695.2 -10048.25 82542.8 -9413.25 82542.8 -9254.5 82695.2 -9254.5 83457.2 M -8937 82542.8 -8937 83457.2 -8460.75 83000 -7984.5 83457.2 -7984.5 82542.8 M -7508.25 83457.2 -6873.25 83457.2 M -7190.75 83457.2 -7190.75 82542.8 M -7508.25 82542.8 -6873.25 82542.8 M -6397 82542.8 -6397 83457.2 -5762 83457.2 -5444.5 83152.4 -5444.5 82847.6 -5762 82542.8 -6397 82542.8 M -5127 82542.8 -5127 83152.4 -4809.5 83457.2 -4492 83457.2 -4174.5 83152.4 -4174.5 82542.8 M -5127 82847.6 -4174.5 82847.6 M -3857 82542.8 -3857 83457.2 -3222 83457.2 -2904.5 83152.4 -2904.5 82847.6 -3222 82542.8 -3857 82542.8 M -1634.5 82542.8 -2587 82542.8 -2587 83457.2 -1634.5 83457.2 M -2587 83000 -1952 83000 M -47 82542.8 -47 83457.2 588 83457.2 905.5 83152.4 905.5 82847.6 588 82542.8 -47 82542.8 M 1223 83152.4 1540.5 83457.2 1858 83457.2 2175.5 83152.4 2175.5 82847.6 1858 82542.8 1540.5 82542.8 1223 82847.6 1223 83152.4 M 3763 82695.2 3921.75 82542.8 4556.75 82542.8 4715.5 82695.2 4715.5 82847.6 4556.75 83000 3921.75 83000 3763 83152.4 3763 83304.8 3921.75 83457.2 4556.75 83457.2 4715.5 83304.8 M 5033 83152.4 5350.5 83457.2 5668 83457.2 5985.5 83152.4 5985.5 82847.6 5668 82542.8 5350.5 82542.8 5033 82847.6 5033 83152.4 M 6303 83457.2 6303 82542.8 7255.5 82542.8 M 7573 83152.4 7890.5 83457.2 8208 83457.2 8525.5 83152.4 8525.5 82847.6 8208 82542.8 7890.5 82542.8 7573 82847.6 7573 83152.4" fill="none" stroke-width="203.2"/><path d="M 23476 34000 23474.69 34031.58 23464.03 34094.76 23441.72 34157.94 23405.27 34221.12 23349.52 34283.51 23286.34 34329.47 23223.16 34358.8 23159.98 34375.42 23096.8 34381 23095 34381 M 22714 34000 22715.31 34031.58 22725.97 34094.76 22748.28 34157.94 22784.73 34221.12 22840.48 34283.51 22903.66 34329.47 22966.84 34358.8 23030.02 34375.42 23093.2 34381 23095 34381 M 22714 34000 22715.31 33968.42 22725.97 33905.24 22748.28 33842.06 22784.73 33778.88 22840.48 33716.49 22903.66 33670.53 22966.84 33641.2 23030.02 33624.58 23093.2 33619 23095 33619 M 23476 34000 23474.69 33968.42 23464.03 33905.24 23441.72 33842.06 23405.27 33778.88 23349.52 33716.49 23286.34 33670.53 23223.16 33641.2 23159.98 33624.58 23096.8 33619 23095 33619" fill="none" stroke-width="508"/><path d="M 23806.2 40698.5 23806.2 33301.5 24241.35 33301.5 M 26193.8 33301.5 26193.8 40698.5 25758.65 40698.5 M 24241.35 40698.5 23806.2 40698.5 M 25758.65 33301.5 26193.8 33301.5" fill="none" stroke-width="152.4"/><path d="M 10682 31542.8 10682 32457.2 11158.25 32000 11634.5 32457.2 11634.5 31542.8 M 11952 32152.4 12269.5 32457.2 12587 32457.2 12904.5 32152.4 12904.5 31847.6 12587 31542.8 12269.5 31542.8 11952 31847.6 11952 32152.4 M 13222 31542.8 13222 32457.2 13857 32457.2 14174.5 32152.4 14174.5 31847.6 13857 31542.8 13222 31542.8 M 14492 32457.2 14492 31695.2 14650.75 31542.8 15285.75 31542.8 15444.5 31695.2 15444.5 32457.2 M 15762 32457.2 15762 31542.8 16714.5 31542.8 M 17032 32152.4 17349.5 32457.2 17667 32457.2 17984.5 32152.4 17984.5 31847.6 17667 31542.8 17349.5 31542.8 17032 31847.6 17032 32152.4 M 20207 31847.6 20524.5 31847.6 20524.5 31542.8 19889.5 31542.8 19572 31847.6 19572 32152.4 19889.5 32457.2 20365.75 32457.2 20524.5 32304.8 M 20842 31695.2 21000.75 31542.8 21635.75 31542.8 21794.5 31695.2 21794.5 31847.6 21635.75 32000 21000.75 32000 20842 32152.4 20842 32304.8 21000.75 32457.2 21635.75 32457.2 21794.5 32304.8 M 22112 31542.8 22112 32457.2 22588.25 32000 23064.5 32457.2 23064.5 31542.8" fill="none" stroke-width="203.2"/><path d="M -57500 0 40000 0 40000 85000 -57500 85000 -57500 0" fill="none" stroke-width="203.2"/><path d="M 43236.6 85000 43236.6 0 M 43236.6 85000 41966.6 83730 M 43236.6 85000 44506.6 83730 M 43236.6 0 44506.6 1270 M 43236.6 0 41966.6 1270 M 43554.1 42500 43553.01 42526.34 43544.11 42579.03 43525.49 42631.72 43495.06 42684.41 43448.51 42736.43 43395.82 42774.69 43343.13 42799.09 43290.44 42812.9 43237.75 42817.5 43236.6 42817.5 M 42919.1 42500 42920.19 42526.34 42929.09 42579.03 42947.71 42631.72 42978.14 42684.41 43024.69 42736.43 43077.38 42774.69 43130.07 42799.09 43182.76 42812.9 43235.45 42817.5 43236.6 42817.5 M 42919.1 42500 42920.19 42473.66 42929.09 42420.97 42947.71 42368.28 42978.14 42315.59 43024.69 42263.57 43077.38 42225.31 43130.07 42200.91 43182.76 42187.1 43235.45 42182.5 43236.6 42182.5 M 43554.1 42500 43553.01 42473.66 43544.11 42420.97 43525.49 42368.28 43495.06 42315.59 43448.51 42263.57 43395.82 42225.31 43343.13 42200.91 43290.44 42187.1 43237.75 42182.5 43236.6 42182.5 M 47336.8 46945 47590.8 47262.5 47844.8 47262.5 48098.8 46945 48098.8 45992.5 47844.8 45675 47590.8 45675 47336.8 45992.5 47336.8 46945 47082.8 47262.5 46828.8 47262.5 46574.8 46945 46574.8 45992.5 46828.8 45675 47082.8 45675 47336.8 45992.5 M 48098.8 43135 48098.8 44722.5 47590.8 44722.5 47590.8 43452.5 47336.8 43135 46828.8 43135 46574.8 43452.5 46574.8 44405 46828.8 44722.5 M 46574.8 42500 47590.8 42500 M 47336.8 42500 47590.8 42182.5 47082.8 41547.5 47590.8 40912.5 47336.8 40595 46574.8 40595 M 46574.8 39960 47590.8 39960 M 47336.8 39960 47590.8 39642.5 47082.8 39007.5 47590.8 38372.5 47336.8 38055 46574.8 38055" fill="none" stroke-width="203.2"/><path d="M -43770 71230 -41230 71230 -41230 76310 -43770 76310 -43770 71230 M -48523.6 78312.8 -48523.6 78922.4 -48206.1 79227.2 -47888.6 79227.2 -47571.1 78922.4 -47571.1 78312.8 M -48523.6 78617.6 -47571.1 78617.6 M -47253.6 79227.2 -47253.6 78312.8 -46301.1 78312.8 M -45824.85 79227.2 -45189.85 79227.2 M -45507.35 79227.2 -45507.35 78312.8 M -45824.85 78312.8 -45189.85 78312.8 M -44713.6 78312.8 -44713.6 79227.2 -44237.35 78770 -43761.1 79227.2 -43761.1 78312.8 M -42491.1 78312.8 -43443.6 78312.8 -43443.6 79227.2 -42491.1 79227.2 M -43443.6 78770 -42808.6 78770 M -42173.6 78312.8 -42173.6 79227.2 -41221.1 78312.8 -41221.1 79227.2 M -40903.6 79227.2 -39951.1 79227.2 M -40427.35 79227.2 -40427.35 78312.8 M -39633.6 78312.8 -39633.6 78922.4 -39316.1 79227.2 -38998.6 79227.2 -38681.1 78922.4 -38681.1 78312.8 M -39633.6 78617.6 -38681.1 78617.6 M -37411.1 78465.2 -37569.85 78312.8 -38046.1 78312.8 -38363.6 78617.6 -38363.6 78922.4 -38046.1 79227.2 -37569.85 79227.2 -37411.1 79074.8 M -37093.6 78312.8 -37093.6 78922.4 -36776.1 79227.2 -36458.6 79227.2 -36141.1 78922.4 -36141.1 78312.8 M -37093.6 78617.6 -36141.1 78617.6 M -35823.6 78922.4 -35506.1 79227.2 -35188.6 79227.2 -34871.1 78922.4 -34871.1 78617.6 -35188.6 78312.8 -35506.1 78312.8 -35823.6 78617.6 -35823.6 78922.4 M -32331.1 79227.2 -33124.85 79227.2 -33124.85 78922.4 -32489.85 78922.4 -32331.1 78770 -32331.1 78465.2 -32489.85 78312.8 -32966.1 78312.8 -33124.85 78465.2 M -32013.6 79227.2 -32013.6 78770 -31537.35 78312.8 -31061.1 78770 -31061.1 79227.2" fill="none" stroke-width="203.2"/><path d="M -57500 87500 40000 87500 M -57500 87500 -56230 86230 M -57500 87500 -56230 88770 M 40000 87500 38730 88770 M 40000 87500 38730 86230 M -8432.5 87500 -8433.59 87526.34 -8442.49 87579.03 -8461.11 87631.72 -8491.54 87684.41 -8538.09 87736.43 -8590.78 87774.69 -8643.47 87799.09 -8696.16 87812.9 -8748.85 87817.5 -8750 87817.5 M -9067.5 87500 -9066.41 87526.34 -9057.51 87579.03 -9038.89 87631.72 -9008.46 87684.41 -8961.91 87736.43 -8909.22 87774.69 -8856.53 87799.09 -8803.84 87812.9 -8751.15 87817.5 -8750 87817.5 M -9067.5 87500 -9066.41 87473.66 -9057.51 87420.97 -9038.89 87368.28 -9008.46 87315.59 -8961.91 87263.57 -8909.22 87225.31 -8856.53 87200.91 -8803.84 87187.1 -8751.15 87182.5 -8750 87182.5 M -8432.5 87500 -8433.59 87473.66 -8442.49 87420.97 -8461.11 87368.28 -8491.54 87315.59 -8538.09 87263.57 -8590.78 87225.31 -8643.47 87200.91 -8696.16 87187.1 -8748.85 87182.5 -8750 87182.5 M -14465 91117.6 -14782.5 90863.6 -15735 90863.6 -16052.5 91117.6 -16052.5 91371.6 -15735 91625.6 -14782.5 91625.6 -14465 91371.6 -14465 90355.6 -14782.5 90101.6 -15735 90101.6 M -13512.5 91625.6 -11925 91625.6 -11925 91371.6 -13512.5 90101.6 M -10337.5 90355.6 -10020 90355.6 -10020 90101.6 -10337.5 90101.6 -10337.5 90355.6 M -6845 91625.6 -8432.5 91625.6 -8432.5 91117.6 -7162.5 91117.6 -6845 90863.6 -6845 90355.6 -7162.5 90101.6 -8115 90101.6 -8432.5 90355.6 M -6210 90101.6 -6210 91117.6 M -6210 90863.6 -5892.5 91117.6 -5257.5 90609.6 -4622.5 91117.6 -4305 90863.6 -4305 90101.6 M -3670 90101.6 -3670 91117.6 M -3670 90863.6 -3352.5 91117.6 -2717.5 90609.6 -2082.5 91117.6 -1765 90863.6 -1765 90101.6" fill="none" stroke-width="203.2"/><path d="M -38770 31110 -36230 31110 -36230 41270 -38770 41270 -38770 31110 M -52471.4 43232.8 -52471.4 44147.2 -51995.15 43690 -51518.9 44147.2 -51518.9 43232.8 M -51201.4 43842.4 -50883.9 44147.2 -50566.4 44147.2 -50248.9 43842.4 -50248.9 43537.6 -50566.4 43232.8 -50883.9 43232.8 -51201.4 43537.6 -51201.4 43842.4 M -49931.4 43232.8 -49931.4 44147.2 -49296.4 44147.2 -48978.9 43842.4 -48978.9 43537.6 -49296.4 43232.8 -49931.4 43232.8 M -48661.4 44147.2 -48661.4 43385.2 -48502.65 43232.8 -47867.65 43232.8 -47708.9 43385.2 -47708.9 44147.2 M -47391.4 44147.2 -47391.4 43232.8 -46438.9 43232.8 M -46121.4 43842.4 -45803.9 44147.2 -45486.4 44147.2 -45168.9 43842.4 -45168.9 43537.6 -45486.4 43232.8 -45803.9 43232.8 -46121.4 43537.6 -46121.4 43842.4 M -43581.4 43232.8 -43581.4 44147.2 -42946.4 44147.2 -42628.9 43842.4 -42628.9 43537.6 -42946.4 43232.8 -43581.4 43232.8 M -41358.9 43232.8 -42311.4 43232.8 -42311.4 44147.2 -41358.9 44147.2 M -42311.4 43690 -41676.4 43690 M -39771.4 44147.2 -39771.4 43232.8 -38818.9 43232.8 M -37548.9 43232.8 -38501.4 43232.8 -38501.4 44147.2 -37548.9 44147.2 M -38501.4 43690 -37866.4 43690 M -37072.65 44147.2 -36437.65 44147.2 M -36755.15 44147.2 -36755.15 43232.8 M -37072.65 43232.8 -36437.65 43232.8 M -35961.4 44147.2 -35008.9 44147.2 M -35485.15 44147.2 -35485.15 43232.8 M -34691.4 44147.2 -34691.4 43385.2 -34532.65 43232.8 -33897.65 43232.8 -33738.9 43385.2 -33738.9 44147.2 M -33421.4 43232.8 -33421.4 44147.2 -32627.65 44147.2 -32468.9 43994.8 -32468.9 43842.4 -32627.65 43690 -33421.4 43690 M -32627.65 43690 -32468.9 43537.6 -32468.9 43232.8 M -32151.4 43232.8 -32151.4 43842.4 -31833.9 44147.2 -31516.4 44147.2 -31198.9 43842.4 -31198.9 43232.8 M -32151.4 43537.6 -31198.9 43537.6 M -29611.4 43232.8 -29611.4 44147.2 -28976.4 44147.2 -28658.9 43842.4 -28658.9 43537.6 -28976.4 43232.8 -29611.4 43232.8 M -27388.9 43232.8 -28341.4 43232.8 -28341.4 44147.2 -27388.9 44147.2 M -28341.4 43690 -27706.4 43690 M -25801.4 43232.8 -25801.4 44147.2 -25007.65 44147.2 -24848.9 43994.8 -24848.9 43842.4 -25007.65 43690 -25801.4 43690 M -24531.4 43232.8 -24531.4 44147.2 M -23578.9 44147.2 -23578.9 43232.8 M -24531.4 43690 -23578.9 43690 M -48770 13730 -43690 13730 -43690 16270 -48770 16270 -48770 13730 M -53215 11676.4 -53215 12286 -52897.5 12590.8 -52580 12590.8 -52262.5 12286 -52262.5 11676.4 M -53215 11981.2 -52262.5 11981.2 M -51945 12590.8 -51945 11676.4 -50992.5 11676.4 M -50516.25 12590.8 -49881.25 12590.8 M -50198.75 12590.8 -50198.75 11676.4 M -50516.25 11676.4 -49881.25 11676.4 M -49405 11676.4 -49405 12590.8 -48928.75 12133.6 -48452.5 12590.8 -48452.5 11676.4 M -47182.5 11676.4 -48135 11676.4 -48135 12590.8 -47182.5 12590.8 M -48135 12133.6 -47500 12133.6 M -46865 11676.4 -46865 12590.8 -45912.5 11676.4 -45912.5 12590.8 M -45595 12590.8 -44642.5 12590.8 M -45118.75 12590.8 -45118.75 11676.4 M -44325 11676.4 -44325 12286 -44007.5 12590.8 -43690 12590.8 -43372.5 12286 -43372.5 11676.4 M -44325 11981.2 -43372.5 11981.2 M -42102.5 11828.8 -42261.25 11676.4 -42737.5 11676.4 -43055 11981.2 -43055 12286 -42737.5 12590.8 -42261.25 12590.8 -42102.5 12438.4 M -41785 11676.4 -41785 12286 -41467.5 12590.8 -41150 12590.8 -40832.5 12286 -40832.5 11676.4 M -41785 11981.2 -40832.5 11981.2 M -40515 12286 -40197.5 12590.8 -39880 12590.8 -39562.5 12286 -39562.5 11981.2 -39880 11676.4 -40197.5 11676.4 -40515 11981.2 -40515 12286" fill="none" stroke-width="203.2"/></g><g id="yhS3nz4x-cL2NselDkAJ_top_copper"><g mask="url(#TJDXe9j6UqZwxYfb1LH3_clear-1)"><path d="M 39263.4 736.6 -56763.4 736.6 -56763.4 84263.4 39263.4 84263.4 39263.4 736.6"/></g><path d="M 25976.01 44368.75 25976.01 41179.24 25631.26 41523.99 14179.94 41523.99 14078.3 41625.63 8208.55 41625.63 6290.19 43543.99 6005.48 43543.99 6487.99 44026.5 6487.99 45093.5 6005.48 45576.01 24768.75 45576.01 25976.01 44368.75"/><path d="M 25976.01 38730.22 25930.74 38775.49 25976.01 38820.76 25976.01 38730.22"/><path d="M 5200 47100 25400 47100 27500 45000 27500 37500 26000 36000 25000 36000 M 25000 40000 13548.69 40000 13447.05 40101.64 7577.3 40101.64 5658.94 42020 5200 42020 M -42500 75040 -15040 75040 -15000 75000 -12283.08 75000 -10783.08 76500 -10000 76500 M -44960 15000 -44960 30578.6 -45366 30984.6 -38890.6 37460 -37500 37460 M -20200 19160 -31660 19160 -37500 25000 -37500 32380" fill="none" stroke-width="2032"/><path d="M 39263.4 736.6 -56763.4 736.6 -56763.4 84263.4 39263.4 84263.4 39263.4 736.6 M -18912.01 55972.01 -19630.52 55972.01 -18912.01 55253.5 -18912.01 54186.5 -19648.51 53450 -18912.01 52713.5 -18912.01 51646.5 -19648.51 50910 -18912.01 50173.5 -18912.01 49106.5 -19648.51 48370 -18912.01 47633.5 -18912.01 46566.5 -19648.51 45830 -18912.01 45093.5 -18912.01 44026.5 -19648.51 43290 -18912.01 42553.5 -18912.01 41486.5 -19648.51 40750 -18912.01 40013.5 -18912.01 38946.5 -19648.51 38210 -18912.01 37473.5 -18912.01 36406.5 -19648.51 35670 -18912.01 34933.5 -18912.01 33866.5 -19648.51 33130 -18912.01 32393.5 -18912.01 31326.5 -19648.51 30590 -18912.01 29853.5 -18912.01 28786.5 -19648.51 28050 -18912.01 27313.5 -18912.01 26246.5 -19648.51 25510 -18912.01 24773.5 -18912.01 23706.5 -19648.51 22970 -18912.01 22233.5 -18912.01 21166.5 -19481.63 20596.88 -18676.01 19791.26 -18676.01 18528.74 -19481.63 17723.12 -18912.01 17153.5 -18912.01 16086.5 -19648.51 15350 -18912.01 14613.5 -18912.01 13546.5 -19648.51 12810 -18912.01 12073.5 -18912.01 11006.5 -19666.5 10252.01 -20733.5 10252.01 -21487.99 11006.5 -21487.99 12073.5 -20751.49 12810 -21487.99 13546.5 -21487.99 14613.5 -20751.49 15350 -21487.99 16086.5 -21487.99 17153.5 -21005.48 17636.01 -32291.25 17636.01 -39023.99 24368.75 -39023.99 35171.37 -43436.01 30759.35 -43436.01 13476.01 -49023.99 13476.01 -49023.99 16523.99 -46483.99 16523.99 -46483.99 29947.35 -46889.99 30353.35 -46889.99 31615.85 -39521.85 38983.99 -39023.99 38983.99 -39023.99 41523.99 -35976.01 41523.99 -35976.01 25631.25 -31028.75 20683.99 -21005.48 20683.99 -21487.99 21166.5 -21487.99 22233.5 -20751.49 22970 -21487.99 23706.5 -21487.99 24773.5 -20751.49 25510 -21487.99 26246.5 -21487.99 27313.5 -20751.49 28050 -21487.99 28786.5 -21487.99 29853.5 -20751.49 30590 -21487.99 31326.5 -21487.99 32393.5 -20751.49 33130 -21487.99 33866.5 -21487.99 34933.5 -20751.49 35670 -21487.99 36406.5 -21487.99 37473.5 -20751.49 38210 -21487.99 38946.5 -21487.99 40013.5 -20751.49 40750 -21487.99 41486.5 -21487.99 42553.5 -20751.49 43290 -21487.99 44026.5 -21487.99 45093.5 -20751.49 45830 -21487.99 46566.5 -21487.99 47633.5 -20751.49 48370 -21487.99 49106.5 -21487.99 50173.5 -20751.49 50910 -21487.99 51646.5 -21487.99 52713.5 -20751.49 53450 -21487.99 54186.5 -21487.99 55253.5 -20769.48 55972.01 -21487.99 55972.01 -21487.99 58547.99 -18912.01 58547.99 -18912.01 55972.01 M 6487.99 57793.5 6487.99 56726.5 5751.49 55990 6487.99 55253.5 6487.99 54186.5 5751.49 53450 6487.99 52713.5 6487.99 51646.5 5751.49 50910 6487.99 50173.5 6487.99 49106.5 6005.48 48623.99 26031.25 48623.99 29023.99 45631.25 29023.99 36868.75 26631.25 34476.01 26206.49 34476.01 26206.49 33500.26 25499.74 32793.51 24500.26 32793.51 23793.51 33500.26 23793.51 34499.74 24069.26 34775.49 23476.01 35368.74 23476.01 36631.26 24069.26 37224.51 23793.51 37500.26 23793.51 38476.01 12917.44 38476.01 12815.8 38577.65 6946.05 38577.65 6487.99 39035.71 6487.99 38946.5 5751.49 38210 6487.99 37473.5 6487.99 36406.5 5751.49 35670 6487.99 34933.5 6487.99 33866.5 5751.49 33130 6487.99 32393.5 6487.99 31326.5 5751.49 30590 6487.99 29853.5 6487.99 28786.5 5751.49 28050 6487.99 27313.5 6487.99 26246.5 5751.49 25510 6487.99 24773.5 6487.99 23706.5 5751.49 22970 6487.99 22233.5 6487.99 21166.5 5751.49 20430 6487.99 19693.5 6487.99 18626.5 5751.49 17890 6487.99 17153.5 6487.99 16086.5 5751.49 15350 6487.99 14613.5 6487.99 13546.5 5751.49 12810 6487.99 12073.5 6487.99 11006.5 5733.5 10252.01 4666.5 10252.01 3912.01 11006.5 3912.01 12073.5 4648.51 12810 3912.01 13546.5 3912.01 14613.5 4648.51 15350 3912.01 16086.5 3912.01 17153.5 4648.51 17890 3912.01 18626.5 3912.01 19693.5 4648.51 20430 3912.01 21166.5 3912.01 22233.5 4648.51 22970 3912.01 23706.5 3912.01 24773.5 4648.51 25510 3912.01 26246.5 3912.01 27313.5 4648.51 28050 3912.01 28786.5 3912.01 29853.5 4648.51 30590 3912.01 31326.5 3912.01 32393.5 4648.51 33130 3912.01 33866.5 3912.01 34933.5 4648.51 35670 3912.01 36406.5 3912.01 37473.5 4648.51 38210 3912.01 38946.5 3912.01 40013.5 4481.63 40583.12 3676.01 41388.74 3676.01 42651.26 4481.63 43456.88 3912.01 44026.5 3912.01 45093.5 4481.63 45663.12 3676.01 46468.74 3676.01 47731.26 4481.63 48536.88 3912.01 49106.5 3912.01 50173.5 4648.51 50910 3912.01 51646.5 3912.01 52713.5 4648.51 53450 3912.01 54186.5 3912.01 55253.5 4648.51 55990 3912.01 56726.5 3912.01 57793.5 4666.5 58547.99 5733.5 58547.99 6487.99 57793.5 M -8793.51 78999.74 -8793.51 78000.26 -9069.26 77724.51 -8476.01 77131.26 -8476.01 75868.74 -9069.26 75275.49 -8793.51 74999.74 -8793.51 74000.26 -9293.77 73500 -8793.51 72999.74 -8793.51 72000.26 -9500.26 71293.51 -10499.74 71293.51 -11206.49 72000.26 -11206.49 72999.74 -10706.23 73500 -11167.04 73960.8 -11651.83 73476.01 -15631.25 73476.01 -15671.25 73516.01 -40976.01 73516.01 -40976.01 70976.01 -44023.99 70976.01 -44023.99 76563.99 -14408.75 76563.99 -14368.75 76523.99 -12914.33 76523.99 -11414.33 78023.99 -11206.49 78023.99 -11206.49 78999.74 -10499.74 79706.49 -9500.26 79706.49 -8793.51 78999.74 M 25976.01 44368.75 25976.01 41179.24 25631.26 41523.99 14179.94 41523.99 14078.3 41625.63 8208.55 41625.63 6290.19 43543.99 6005.48 43543.99 6487.99 44026.5 6487.99 45093.5 6005.48 45576.01 24768.75 45576.01 25976.01 44368.75 M 25976.01 38730.22 25930.74 38775.49 25976.01 38820.76 25976.01 38730.22" fill="none" stroke-width="508"/><use xlink:href="#TJDXe9j6UqZwxYfb1LH3_pad-12" x="-20200" y="57260"/><use xlink:href="#TJDXe9j6UqZwxYfb1LH3_pad-13" x="-20200" y="54720"/><use xlink:href="#TJDXe9j6UqZwxYfb1LH3_pad-13" x="-20200" y="52180"/><use xlink:href="#TJDXe9j6UqZwxYfb1LH3_pad-13" x="-20200" y="49640"/><use xlink:href="#TJDXe9j6UqZwxYfb1LH3_pad-13" x="-20200" y="47100"/><use xlink:href="#TJDXe9j6UqZwxYfb1LH3_pad-13" x="-20200" y="44560"/><use xlink:href="#TJDXe9j6UqZwxYfb1LH3_pad-13" x="-20200" y="42020"/><use xlink:href="#TJDXe9j6UqZwxYfb1LH3_pad-13" x="-20200" y="39480"/><use xlink:href="#TJDXe9j6UqZwxYfb1LH3_pad-13" x="-20200" y="36940"/><use xlink:href="#TJDXe9j6UqZwxYfb1LH3_pad-13" x="-20200" y="34400"/><use xlink:href="#TJDXe9j6UqZwxYfb1LH3_pad-13" x="-20200" y="31860"/><use xlink:href="#TJDXe9j6UqZwxYfb1LH3_pad-13" x="-20200" y="29320"/><use xlink:href="#TJDXe9j6UqZwxYfb1LH3_pad-13" x="-20200" y="26780"/><use xlink:href="#TJDXe9j6UqZwxYfb1LH3_pad-13" x="-20200" y="24240"/><use xlink:href="#TJDXe9j6UqZwxYfb1LH3_pad-13" x="-20200" y="21700"/><use xlink:href="#TJDXe9j6UqZwxYfb1LH3_pad-13" x="-20200" y="19160"/><use xlink:href="#TJDXe9j6UqZwxYfb1LH3_pad-13" x="-20200" y="16620"/><use xlink:href="#TJDXe9j6UqZwxYfb1LH3_pad-13" x="-20200" y="14080"/><use xlink:href="#TJDXe9j6UqZwxYfb1LH3_pad-13" x="-20200" y="11540"/><use xlink:href="#TJDXe9j6UqZwxYfb1LH3_pad-13" x="5200" y="57260"/><use xlink:href="#TJDXe9j6UqZwxYfb1LH3_pad-13" x="5200" y="54720"/><use xlink:href="#TJDXe9j6UqZwxYfb1LH3_pad-13" x="5200" y="52180"/><use xlink:href="#TJDXe9j6UqZwxYfb1LH3_pad-13" x="5200" y="49640"/><use xlink:href="#TJDXe9j6UqZwxYfb1LH3_pad-13" x="5200" y="47100"/><use xlink:href="#TJDXe9j6UqZwxYfb1LH3_pad-13" x="5200" y="44560"/><use xlink:href="#TJDXe9j6UqZwxYfb1LH3_pad-13" x="5200" y="42020"/><use xlink:href="#TJDXe9j6UqZwxYfb1LH3_pad-13" x="5200" y="39480"/><use xlink:href="#TJDXe9j6UqZwxYfb1LH3_pad-13" x="5200" y="36940"/><use xlink:href="#TJDXe9j6UqZwxYfb1LH3_pad-13" x="5200" y="34400"/><use xlink:href="#TJDXe9j6UqZwxYfb1LH3_pad-13" x="5200" y="31860"/><use xlink:href="#TJDXe9j6UqZwxYfb1LH3_pad-13" x="5200" y="29320"/><use xlink:href="#TJDXe9j6UqZwxYfb1LH3_pad-13" x="5200" y="26780"/><use xlink:href="#TJDXe9j6UqZwxYfb1LH3_pad-13" x="5200" y="24240"/><use xlink:href="#TJDXe9j6UqZwxYfb1LH3_pad-13" x="5200" y="21700"/><use xlink:href="#TJDXe9j6UqZwxYfb1LH3_pad-13" x="5200" y="19160"/><use xlink:href="#TJDXe9j6UqZwxYfb1LH3_pad-13" x="5200" y="16620"/><use xlink:href="#TJDXe9j6UqZwxYfb1LH3_pad-13" x="5200" y="14080"/><use xlink:href="#TJDXe9j6UqZwxYfb1LH3_pad-13" x="5200" y="11540"/><use xlink:href="#TJDXe9j6UqZwxYfb1LH3_pad-14" x="-10000" y="78500"/><use xlink:href="#TJDXe9j6UqZwxYfb1LH3_pad-14" x="-10000" y="76500"/><use xlink:href="#TJDXe9j6UqZwxYfb1LH3_pad-14" x="-10000" y="74500"/><use xlink:href="#TJDXe9j6UqZwxYfb1LH3_pad-14" x="-10000" y="72500"/><use xlink:href="#TJDXe9j6UqZwxYfb1LH3_pad-14" x="25000" y="34000"/><use xlink:href="#TJDXe9j6UqZwxYfb1LH3_pad-14" x="25000" y="36000"/><use xlink:href="#TJDXe9j6UqZwxYfb1LH3_pad-14" x="25000" y="38000"/><use xlink:href="#TJDXe9j6UqZwxYfb1LH3_pad-14" x="25000" y="40000"/><use xlink:href="#TJDXe9j6UqZwxYfb1LH3_pad-15" x="-42500" y="72500"/><use xlink:href="#TJDXe9j6UqZwxYfb1LH3_pad-15" x="-42500" y="75040"/><use xlink:href="#TJDXe9j6UqZwxYfb1LH3_pad-15" x="-37500" y="40000"/><use xlink:href="#TJDXe9j6UqZwxYfb1LH3_pad-15" x="-37500" y="37460"/><use xlink:href="#TJDXe9j6UqZwxYfb1LH3_pad-15" x="-37500" y="34920"/><use xlink:href="#TJDXe9j6UqZwxYfb1LH3_pad-15" x="-37500" y="32380"/><use xlink:href="#TJDXe9j6UqZwxYfb1LH3_pad-15" x="-47500" y="15000"/><use xlink:href="#TJDXe9j6UqZwxYfb1LH3_pad-15" x="-44960" y="15000"/><path d="M -57500 0 40000 0 40000 85000 -57500 85000 -57500 0" fill="none" stroke-width="203.2"/></g><g id="yhS3nz4x-cL2NselDkAJ_top_soldermask"><use xlink:href="#fVnCP0QfvSSQl_4iH0vo_pad-20" x="-20200" y="57260"/><use xlink:href="#fVnCP0QfvSSQl_4iH0vo_pad-21" x="-20200" y="54720"/><use xlink:href="#fVnCP0QfvSSQl_4iH0vo_pad-21" x="-20200" y="52180"/><use xlink:href="#fVnCP0QfvSSQl_4iH0vo_pad-21" x="-20200" y="49640"/><use xlink:href="#fVnCP0QfvSSQl_4iH0vo_pad-21" x="-20200" y="47100"/><use xlink:href="#fVnCP0QfvSSQl_4iH0vo_pad-21" x="-20200" y="44560"/><use xlink:href="#fVnCP0QfvSSQl_4iH0vo_pad-21" x="-20200" y="42020"/><use xlink:href="#fVnCP0QfvSSQl_4iH0vo_pad-21" x="-20200" y="39480"/><use xlink:href="#fVnCP0QfvSSQl_4iH0vo_pad-21" x="-20200" y="36940"/><use xlink:href="#fVnCP0QfvSSQl_4iH0vo_pad-21" x="-20200" y="34400"/><use xlink:href="#fVnCP0QfvSSQl_4iH0vo_pad-21" x="-20200" y="31860"/><use xlink:href="#fVnCP0QfvSSQl_4iH0vo_pad-21" x="-20200" y="29320"/><use xlink:href="#fVnCP0QfvSSQl_4iH0vo_pad-21" x="-20200" y="26780"/><use xlink:href="#fVnCP0QfvSSQl_4iH0vo_pad-21" x="-20200" y="24240"/><use xlink:href="#fVnCP0QfvSSQl_4iH0vo_pad-21" x="-20200" y="21700"/><use xlink:href="#fVnCP0QfvSSQl_4iH0vo_pad-21" x="-20200" y="19160"/><use xlink:href="#fVnCP0QfvSSQl_4iH0vo_pad-21" x="-20200" y="16620"/><use xlink:href="#fVnCP0QfvSSQl_4iH0vo_pad-21" x="-20200" y="14080"/><use xlink:href="#fVnCP0QfvSSQl_4iH0vo_pad-21" x="-20200" y="11540"/><use xlink:href="#fVnCP0QfvSSQl_4iH0vo_pad-21" x="5200" y="57260"/><use xlink:href="#fVnCP0QfvSSQl_4iH0vo_pad-21" x="5200" y="54720"/><use xlink:href="#fVnCP0QfvSSQl_4iH0vo_pad-21" x="5200" y="52180"/><use xlink:href="#fVnCP0QfvSSQl_4iH0vo_pad-21" x="5200" y="49640"/><use xlink:href="#fVnCP0QfvSSQl_4iH0vo_pad-21" x="5200" y="47100"/><use xlink:href="#fVnCP0QfvSSQl_4iH0vo_pad-21" x="5200" y="44560"/><use xlink:href="#fVnCP0QfvSSQl_4iH0vo_pad-21" x="5200" y="42020"/><use xlink:href="#fVnCP0QfvSSQl_4iH0vo_pad-21" x="5200" y="39480"/><use xlink:href="#fVnCP0QfvSSQl_4iH0vo_pad-21" x="5200" y="36940"/><use xlink:href="#fVnCP0QfvSSQl_4iH0vo_pad-21" x="5200" y="34400"/><use xlink:href="#fVnCP0QfvSSQl_4iH0vo_pad-21" x="5200" y="31860"/><use xlink:href="#fVnCP0QfvSSQl_4iH0vo_pad-21" x="5200" y="29320"/><use xlink:href="#fVnCP0QfvSSQl_4iH0vo_pad-21" x="5200" y="26780"/><use xlink:href="#fVnCP0QfvSSQl_4iH0vo_pad-21" x="5200" y="24240"/><use xlink:href="#fVnCP0QfvSSQl_4iH0vo_pad-21" x="5200" y="21700"/><use xlink:href="#fVnCP0QfvSSQl_4iH0vo_pad-21" x="5200" y="19160"/><use xlink:href="#fVnCP0QfvSSQl_4iH0vo_pad-21" x="5200" y="16620"/><use xlink:href="#fVnCP0QfvSSQl_4iH0vo_pad-21" x="5200" y="14080"/><use xlink:href="#fVnCP0QfvSSQl_4iH0vo_pad-21" x="5200" y="11540"/><use xlink:href="#fVnCP0QfvSSQl_4iH0vo_pad-22" x="-10000" y="78500"/><use xlink:href="#fVnCP0QfvSSQl_4iH0vo_pad-22" x="-10000" y="76500"/><use xlink:href="#fVnCP0QfvSSQl_4iH0vo_pad-22" x="-10000" y="74500"/><use xlink:href="#fVnCP0QfvSSQl_4iH0vo_pad-22" x="-10000" y="72500"/><use xlink:href="#fVnCP0QfvSSQl_4iH0vo_pad-22" x="25000" y="34000"/><use xlink:href="#fVnCP0QfvSSQl_4iH0vo_pad-22" x="25000" y="36000"/><use xlink:href="#fVnCP0QfvSSQl_4iH0vo_pad-22" x="25000" y="38000"/><use xlink:href="#fVnCP0QfvSSQl_4iH0vo_pad-22" x="25000" y="40000"/><use xlink:href="#fVnCP0QfvSSQl_4iH0vo_pad-23" x="-42500" y="72500"/><use xlink:href="#fVnCP0QfvSSQl_4iH0vo_pad-23" x="-42500" y="75040"/><use xlink:href="#fVnCP0QfvSSQl_4iH0vo_pad-23" x="-37500" y="40000"/><use xlink:href="#fVnCP0QfvSSQl_4iH0vo_pad-23" x="-37500" y="37460"/><use xlink:href="#fVnCP0QfvSSQl_4iH0vo_pad-23" x="-37500" y="34920"/><use xlink:href="#fVnCP0QfvSSQl_4iH0vo_pad-23" x="-37500" y="32380"/><use xlink:href="#fVnCP0QfvSSQl_4iH0vo_pad-24" x="-47500" y="15000"/><use xlink:href="#fVnCP0QfvSSQl_4iH0vo_pad-24" x="-44960" y="15000"/><path d="M -22100 57260 -22100 57260 M -22100 57540 -22100 57540 M -22100.01 57260 -22099.99 57260 M -22100.01 57540 -22099.99 57540 M -22100.02 57260 -22099.98 57260 M -22100.02 57540 -22099.98 57540 M -22100.03 57260 -22099.97 57260 M -22100.03 57540 -22099.97 57540 M -22100.04 57260 -22099.96 57260 M -22100.04 57540 -22099.96 57540 M -22100.05 57260 -22099.95 57260 M -22100.05 57540 -22099.95 57540 M -22100.06 57260 -22099.94 57260 M -22100.06 57540 -22099.94 57540 M -22100.07 57260 -22099.93 57260 M -22100.07 57540 -22099.93 57540 M -22100.08 57260 -22099.92 57260 M -22100.08 57540 -22099.92 57540 M -22100.09 57260 -22099.91 57260 M -22100.09 57540 -22099.91 57540 M -22100.1 57260 -22099.9 57260 M -22100.1 57540 -22099.9 57540 M -22100.11 57260 -22099.89 57260 M -22100.11 57540 -22099.89 57540 M -22100.12 57260 -22099.88 57260 M -22100.12 57540 -22099.88 57540 M -22100.13 57260 -22099.87 57260 M -22100.13 57540 -22099.87 57540 M -22100.14 57260 -22099.86 57260 M -22100.14 57540 -22099.86 57540 M -22100.15 57260 -22099.85 57260 M -22100.15 57540 -22099.85 57540 M -22100.16 57260 -22099.84 57260 M -22100.16 57540 -22099.84 57540 M -22100.17 57260 -22099.83 57260 M -22100.17 57540 -22099.83 57540 M -22100.18 57260 -22099.82 57260 M -22100.18 57540 -22099.82 57540 M -22100.19 57260 -22099.81 57260 M -22100.19 57540 -22099.81 57540 M -22100.2 57260 -22099.8 57260 M -22100.2 57540 -22099.8 57540 M -22100.21 57260 -22099.79 57260 M -22100.21 57540 -22099.79 57540 M -22100.22 57260 -22099.78 57260 M -22100.22 57540 -22099.78 57540 M -22100.23 57260 -22099.77 57260 M -22100.23 57540 -22099.77 57540 M -22100.24 57260 -22099.76 57260 M -22100.24 57540 -22099.76 57540 M -22100.25 57260 -22099.75 57260 M -22100.25 57540 -22099.75 57540 M -22100.26 57260 -22099.74 57260 M -22100.26 57540 -22099.74 57540 M -22100.27 57260 -22099.73 57260 M -22100.27 57540 -22099.73 57540 M -22100.28 57260 -22099.72 57260 M -22100.28 57540 -22099.72 57540 M -22100.29 57260 -22099.71 57260 M -22100.29 57540 -22099.71 57540 M -22100.3 57260 -22099.7 57260 M -22100.3 57540 -22099.7 57540 M -22100.31 57260 -22099.69 57260 M -22100.31 57540 -22099.69 57540 M -22100.32 57260 -22099.68 57260 M -22100.32 57540 -22099.68 57540 M -22100.33 57260 -22099.67 57260 M -22100.33 57540 -22099.67 57540 M -22100.34 57260 -22099.66 57260 M -22100.34 57540 -22099.66 57540 M -22100.35 57260 -22099.65 57260 M -22100.35 57540 -22099.65 57540 M -22100.36 57260 -22099.64 57260 M -22100.36 57540 -22099.64 57540 M -22100.37 57260 -22099.63 57260 M -22100.37 57540 -22099.63 57540 M -22100.38 57260 -22099.62 57260 M -22100.38 57540 -22099.62 57540 M -22100.39 57260 -22099.61 57260 M -22100.39 57540 -22099.61 57540 M -22100.4 57260 -22099.6 57260 M -22100.4 57540 -22099.6 57540 M -22100.41 57260 -22099.59 57260 M -22100.41 57540 -22099.59 57540 M -22100.42 57260 -22099.58 57260 M -22100.42 57540 -22099.58 57540 M -22100.43 57260 -22099.57 57260 M -22100.43 57540 -22099.57 57540 M -22100.44 57260 -22099.56 57260 M -22100.44 57540 -22099.56 57540 M -22100.45 57260 -22099.55 57260 M -22100.45 57540 -22099.55 57540 M -22100.46 57260 -22099.54 57260 M -22100.46 57540 -22099.54 57540 M -22100.47 57260 -22099.53 57260 M -22100.47 57540 -22099.53 57540 M -22100.48 57260 -22099.52 57260 M -22100.48 57540 -22099.52 57540 M -22100.49 57260 -22099.51 57260 M -22100.49 57540 -22099.51 57540 M -22100.5 57260 -22099.5 57260 M -22100.5 57540 -22099.5 57540 M -22100.51 57260 -22099.49 57260 M -22100.51 57540 -22099.49 57540 M -22100.52 57260 -22099.48 57260 M -22100.52 57540 -22099.48 57540 M -22100.53 57260 -22099.47 57260 M -22100.53 57540 -22099.47 57540 M -22100.54 57260 -22099.46 57260 M -22100.54 57540 -22099.46 57540 M -22100.55 57260 -22099.45 57260 M -22100.55 57540 -22099.45 57540 M -22100.56 57260 -22099.44 57260 M -22100.56 57540 -22099.44 57540 M -22100.57 57260 -22099.43 57260 M -22100.57 57540 -22099.43 57540 M -22100.58 57260 -22099.42 57260 M -22100.58 57540 -22099.42 57540 M -22100.59 57260 -22099.41 57260 M -22100.59 57540 -22099.41 57540 M -22100.6 57260 -22099.4 57260 M -22100.6 57540 -22099.4 57540 M -22100.61 57260 -22099.39 57260 M -22100.61 57540 -22099.39 57540 M -22100.62 57260 -22099.38 57260 M -22100.62 57540 -22099.38 57540 M -22100.63 57260 -22099.37 57260 M -22100.63 57540 -22099.37 57540 M -22100.64 57260 -22099.36 57260 M -22100.64 57540 -22099.36 57540 M -22100.65 57260 -22099.35 57260 M -22100.65 57540 -22099.35 57540 M -22100.66 57260 -22099.34 57260 M -22100.66 57540 -22099.34 57540 M -22100.67 57260 -22099.33 57260 M -22100.67 57540 -22099.33 57540 M -22100.68 57260 -22099.32 57260 M -22100.68 57540 -22099.32 57540 M -22100.69 57260 -22099.31 57260 M -22100.69 57540 -22099.31 57540 M -22100.7 57260 -22099.3 57260 M -22100.7 57540 -22099.3 57540 M -22100.71 57260 -22099.29 57260 M -22100.71 57540 -22099.29 57540 M -22100.72 57260 -22099.28 57260 M -22100.72 57540 -22099.28 57540 M -22100.73 57260 -22099.27 57260 M -22100.73 57540 -22099.27 57540 M -22100.74 57260 -22099.26 57260 M -22100.74 57540 -22099.26 57540 M -22100.75 57260 -22099.25 57260 M -22100.75 57540 -22099.25 57540 M -22100.76 57260 -22099.24 57260 M -22100.76 57540 -22099.24 57540 M -22100.77 57260 -22099.23 57260 M -22100.77 57540 -22099.23 57540 M -22100.78 57260 -22099.22 57260 M -22100.78 57540 -22099.22 57540 M -22100.79 57260 -22099.21 57260 M -22100.79 57540 -22099.21 57540 M -22100.8 57260 -22099.2 57260 M -22100.8 57540 -22099.2 57540 M -22100.81 57260 -22099.19 57260 M -22100.81 57540 -22099.19 57540 M -22100.82 57260 -22099.18 57260 M -22100.82 57540 -22099.18 57540 M -22100.83 57260 -22099.17 57260 M -22100.83 57540 -22099.17 57540 M -22100.84 57260 -22099.16 57260 M -22100.84 57540 -22099.16 57540 M -22100.85 57260 -22099.15 57260 M -22100.85 57540 -22099.15 57540 M -22100.86 57260 -22099.14 57260 M -22100.86 57540 -22099.14 57540 M -22100.87 57260 -22099.13 57260 M -22100.87 57540 -22099.13 57540 M -22100.88 57260 -22099.12 57260 M -22100.88 57540 -22099.12 57540 M -22100.89 57260 -22099.11 57260 M -22100.89 57540 -22099.11 57540 M -22100.9 57260 -22099.1 57260 M -22100.9 57540 -22099.1 57540 M -22100.91 57260 -22099.09 57260 M -22100.91 57540 -22099.09 57540 M -22100.92 57260 -22099.08 57260 M -22100.92 57540 -22099.08 57540 M -22100.93 57260 -22099.07 57260 M -22100.93 57540 -22099.07 57540 M -22100.94 57260 -22099.06 57260 M -22100.94 57540 -22099.06 57540 M -22100.95 57260 -22099.05 57260 M -22100.95 57540 -22099.05 57540 M -22100.96 57260 -22099.04 57260 M -22100.96 57540 -22099.04 57540 M -22100.97 57260 -22099.03 57260 M -22100.97 57540 -22099.03 57540 M -22100.98 57260 -22099.02 57260 M -22100.98 57540 -22099.02 57540 M -22100.99 57260 -22099.01 57260 M -22100.99 57540 -22099.01 57540 M -22101 57260 -22099 57260 M -22101 57540 -22099 57540 M -22101.01 57260 -22098.99 57260 M -22101.01 57540 -22098.99 57540 M -22101.02 57260 -22098.98 57260 M -22101.02 57540 -22098.98 57540 M -22101.03 57260 -22098.97 57260 M -22101.03 57540 -22098.97 57540 M -22101.04 57260 -22098.96 57260 M -22101.04 57540 -22098.96 57540 M -22101.05 57260 -22098.95 57260 M -22101.05 57540 -22098.95 57540 M -22101.06 57260 -22098.94 57260 M -22101.06 57540 -22098.94 57540 M -22101.07 57260 -22098.93 57260 M -22101.07 57540 -22098.93 57540 M -22101.08 57260 -22098.92 57260 M -22101.08 57540 -22098.92 57540 M -22101.09 57260 -22098.91 57260 M -22101.09 57540 -22098.91 57540 M -22101.1 57260 -22098.9 57260 M -22101.1 57540 -22098.9 57540 M -22101.11 57260 -22098.89 57260 M -22101.11 57540 -22098.89 57540 M -22101.12 57260 -22098.88 57260 M -22101.12 57540 -22098.88 57540 M -22101.13 57260 -22098.87 57260 M -22101.13 57540 -22098.87 57540 M -22101.14 57260 -22098.86 57260 M -22101.14 57540 -22098.86 57540 M -22101.15 57260 -22098.85 57260 M -22101.15 57540 -22098.85 57540 M -22101.16 57260 -22098.84 57260 M -22101.16 57540 -22098.84 57540 M -22101.17 57260 -22098.83 57260 M -22101.17 57540 -22098.83 57540 M -22101.18 57260 -22098.82 57260 M -22101.18 57540 -22098.82 57540 M -22151.98 57270.01 -22048.02 57270.01 M -22151.98 57529.99 -22048.02 57529.99 M -22202.64 57304.79 -21997.36 57304.79 M -22202.64 57495.21 -21997.36 57495.21 M -22232.77 57355.59 -21967.23 57355.59 M -22232.77 57444.41 -21967.23 57444.41 M -22240 57400 -21960 57400 M -22240 57400 -21960 57400" fill="none" stroke-width="63.5"/><path d="M -21960 57400 -21960.48 57411.64 -21964.43 57434.93 -21972.68 57458.22 -21986.18 57481.51 -22006.81 57504.48 -22030.1 57521.3 -22053.39 57532.01 -22076.68 57538.04 -22099.97 57540 -22100 57540 M -22240 57400 -22239.52 57411.64 -22235.57 57434.93 -22227.32 57458.22 -22213.82 57481.51 -22193.19 57504.48 -22169.9 57521.3 -22146.61 57532.01 -22123.32 57538.04 -22100.03 57540 -22100 57540 M -22240 57400 -22239.52 57388.36 -22235.57 57365.07 -22227.32 57341.78 -22213.82 57318.49 -22193.19 57295.52 -22169.9 57278.7 -22146.61 57267.99 -22123.32 57261.96 -22100.03 57260 -22100 57260 M -21960 57400 -21960.48 57388.36 -21964.43 57365.07 -21972.68 57341.78 -21986.18 57318.49 -22006.81 57295.52 -22030.1 57278.7 -22053.39 57267.99 -22076.68 57261.96 -22099.97 57260 -22100 57260" fill="none" stroke-width="280"/><path d="M -57500 0 40000 0 40000 85000 -57500 85000 -57500 0" fill="none" stroke-width="203.2"/></g><clipPath id="yhS3nz4x-cL2NselDkAJ_top_outline"><path d="M -57500 0 40000 0 40000 85000 -57500 85000 -57500 0" fill="none" stroke-width="203.2"/></clipPath><mask id="yhS3nz4x-cL2NselDkAJ_top_mech-mask"><g fill="#000" stroke="#000"><rect x="-57500" y="0" width="97500" height="85000" fill="#fff"/></g></mask><mask id="yhS3nz4x-cL2NselDkAJ_top_cf-mask"><g fill="#fff" stroke="#fff"><use xlink:href="#yhS3nz4x-cL2NselDkAJ_top_soldermask"/></g></mask><mask id="yhS3nz4x-cL2NselDkAJ_top_sm-mask"><g fill="#000" stroke="#000"><rect x="-57500" y="0" width="97500" height="85000" fill="#fff"/><use xlink:href="#yhS3nz4x-cL2NselDkAJ_top_soldermask"/></g></mask></defs><g transform="translate(0,85000) scale(1,-1)"><g mask="url(#yhS3nz4x-cL2NselDkAJ_top_mech-mask)" clip-path="url(#yhS3nz4x-cL2NselDkAJ_top_outline)"><rect x="-57500" y="0" width="97500" height="85000" fill="currentColor" class="yhS3nz4x-cL2NselDkAJ_fr4"/><use xlink:href="#yhS3nz4x-cL2NselDkAJ_top_copper" fill="currentColor" stroke="currentColor" class="yhS3nz4x-cL2NselDkAJ_cu"/><use xlink:href="#yhS3nz4x-cL2NselDkAJ_top_copper" fill="currentColor" stroke="currentColor" class="yhS3nz4x-cL2NselDkAJ_cf" mask="url(#yhS3nz4x-cL2NselDkAJ_top_cf-mask)"/><g mask="url(#yhS3nz4x-cL2NselDkAJ_top_sm-mask)"><rect x="-57500" y="0" width="97500" height="85000" fill="currentColor" class="yhS3nz4x-cL2NselDkAJ_sm"/><use xlink:href="#yhS3nz4x-cL2NselDkAJ_top_silkscreen" fill="currentColor" stroke="currentColor" class="yhS3nz4x-cL2NselDkAJ_ss"/></g></g></g></svg>